<?xml version="1.0" encoding="utf-8"?>
<!-- Generator: Adobe Illustrator 27.5.0, SVG Export Plug-In . SVG Version: 6.00 Build 0)  -->
<svg version="1.1" id="Layer_1" xmlns="http://www.w3.org/2000/svg" xmlns:xlink="http://www.w3.org/1999/xlink" x="0px" y="0px"
	 viewBox="0 0 841.89 595.28" style="enable-background:new 0 0 841.89 595.28;" xml:space="preserve">
<style type="text/css">
	.st0{fill:#010101;}
</style>
<path class="st0" d="M760.32,349.75c-7.87-1.83-16.01-3.72-23.98-4.35c-17.53-1.37-33.93,0.8-51.3,3.11
	c-4.45,0.59-9.06,1.2-13.63,1.74c-22.3,2.62-42.82-0.57-59.94-4.03c-21.39-4.33-41.65-5.34-63.76-3.17
	c-4.3,0.42-8.61,0.9-12.92,1.38c-15.19,1.69-30.9,3.44-46.38,2.52c-10.65-0.63-20.8-3.78-30.61-6.83
	c-5.76-1.79-11.65-3.62-17.69-4.96c19.9-10.78,37.07-28.33,47.14-48.93c10.13-20.71,14.67-49.97-2.98-69.95
	c-14.79-16.74-47.78-10.97-66.36-3.01c-27.14,11.63-48.93,35.29-58.28,63.29c-4.19,12.54-5.28,24.94-3.17,35.87
	c1.71,8.83,5.9,19.04,12.72,24.47c-6.62,6.72-16.01,2.82-25.92-1.29c-4.07-1.69-8.27-3.44-12.32-4.43
	c-15.7-3.84-30.31-4.81-44.65-2.97c-15.3,1.97-30.16,7.71-42.95,16.6c-11.66,8.1-22.54,14.72-37.69,13.54
	c-12.25-0.94-24.31-5.02-35.97-8.97c-4.48-1.52-9.11-3.08-13.66-4.44c-15.43-4.6-31.24-8.63-46.98-11.99
	c-1.88-0.4-3.78-0.81-5.7-1.23c-12.38-2.68-25.46-5.51-38.59-6.93v1.97c12.97,1.42,25.92,4.22,38.18,6.87
	c1.92,0.42,3.82,0.83,5.71,1.23c15.7,3.35,31.45,7.37,46.83,11.96c4.51,1.34,9.13,2.91,13.59,4.42c11.78,3.99,23.96,8.11,36.45,9.07
	c15.79,1.21,26.98-5.57,38.96-13.89c12.54-8.71,27.09-14.34,42.08-16.27c14.1-1.82,28.47-0.86,43.93,2.92
	c3.9,0.96,8.04,2.67,12.04,4.33c10.2,4.23,20.74,8.61,28.28,0.64c1.98,1.28,4.16,2.16,6.53,2.51c1.11,1.16,2.56,2.07,4.33,2.7
	c14.22,5.13,28.93,2.85,38.76,0.02c5.78-1.66,11.47-3.92,16.97-6.69c6.77,1.34,13.39,3.39,19.83,5.4
	c9.92,3.08,20.19,6.27,31.07,6.91c15.65,0.93,31.44-0.83,46.71-2.53c4.3-0.48,8.6-0.95,12.9-1.38c21.92-2.14,41.99-1.15,63.18,3.14
	c17.28,3.49,37.99,6.71,60.56,4.05c4.59-0.54,9.2-1.15,13.66-1.74c17.26-2.29,33.56-4.46,50.89-3.1c7.82,0.61,15.88,2.49,23.69,4.3
	c3.75,0.87,7.55,1.75,11.37,2.51v-2C767.58,351.44,763.93,350.59,760.32,349.75z M372.09,336.55c0.86-1.05,1.7-2.11,2.51-3.17
	c0.05,1.57,0.32,3.05,0.89,4.4c0.06,0.14,0.12,0.28,0.19,0.42C374.41,337.82,373.21,337.25,372.09,336.55z M419.87,341.41
	c-9.55,2.75-23.83,4.97-37.56,0.02c-0.42-0.16-0.82-0.32-1.2-0.51c7.87,0.41,15.79-1.24,23.48-2.81c8.53-1.75,17.36-3.56,25.99-2.58
	c1.18,0.14,2.36,0.3,3.54,0.49C429.48,338.21,424.71,340.02,419.87,341.41z M437.1,334.55c-2.08-0.4-4.17-0.72-6.29-0.97
	c-8.95-1.02-17.92,0.83-26.6,2.61c-8.54,1.75-17.35,3.56-25.91,2.53c-0.41-0.51-0.74-1.08-1.01-1.71c-0.79-1.86-0.88-4.11-0.56-6.52
	c1.33-1.83,2.6-3.66,3.86-5.47c4.72-6.78,9.18-13.19,15.57-18.86c9.29-8.25,20.18-14.43,30.7-20.42c2.68-1.52,5.36-3.05,8.03-4.61
	c22.88-13.4,37.36-33.68,43.04-60.27c0.1-0.45-0.14-0.91-0.57-1.1c-0.42-0.18-0.92-0.05-1.19,0.33
	c-16.2,23.01-33.35,38.06-50.98,44.76c-18.41,6.99-33.81,23.27-43.36,45.83c-0.41,0.97-0.9,2.05-1.42,3.21
	c-2.12,4.7-4.74,10.52-5.56,15.86c-1.39,1.91-2.83,3.8-4.36,5.65c-6.9-5.47-10.75-16.37-12.1-23.35
	c-2.05-10.6-0.97-22.66,3.11-34.88c9.18-27.47,30.56-50.69,57.2-62.11c18.05-7.74,50.02-13.45,64.12,2.51
	c17.01,19.26,12.55,47.65,2.69,67.8C475.24,306.34,457.52,324.09,437.1,334.55z M377.88,325.49c1.17-3.83,2.91-7.68,4.31-10.79
	c0.53-1.17,1.02-2.27,1.44-3.25c9.35-22.07,24.36-37.97,42.26-44.77c16.94-6.44,33.41-20.37,48.99-41.45
	c-6.22,23.69-19.98,41.91-40.97,54.21c-2.66,1.56-5.34,3.08-8.01,4.6c-10.61,6.03-21.58,12.27-31.03,20.65
	c-6.56,5.82-11.3,12.63-15.88,19.21C378.62,324.43,378.25,324.96,377.88,325.49z"/>
</svg>
