<?xml version="1.0" encoding="utf-8"?>
<!-- Generator: Adobe Illustrator 27.5.0, SVG Export Plug-In . SVG Version: 6.00 Build 0)  -->
<svg version="1.1" id="Layer_1" xmlns="http://www.w3.org/2000/svg" xmlns:xlink="http://www.w3.org/1999/xlink" x="0px" y="0px"
	 viewBox="0 0 500 500" style="enable-background:new 0 0 500 500;" xml:space="preserve">
<style type="text/css">
	.st0{fill:#BF856B;}
</style>
<g>
	<path d="M128.3,260.87c1.07-0.8,1.31-2.12,1.4-3.2c0.33-4.05,1.41-7.87,2.85-11.63c0.55-1.43-0.09-2.92,0.67-4.48
		c1.17-2.41,1.48-5.22,2.45-7.75c0.94-2.46,1.29-5.05,2.04-7.54c1.26-4.17,2.39-7.81,4.5-10.93c0.26-0.39,0.68-0.68,0.93-1.08
		c0.68-1.09,2.28-0.89,2.85-2.41c0.33-0.89,1.97-1.26,2.96-1.94c1.06-0.72,2.03-1.56,3.07-2.3c0.55-0.39,1.28-0.59,1.74-1.06
		c3.17-3.17,6.87-5.66,10.51-8.22c3.46-2.44,7.05-4.72,10.64-6.97c1.33-0.83,2.9-1.29,4.23-2.12c1.66-1.03,3.31-2.11,4.93-3.21
		c2.27-1.55,5.11-2.31,7.73-3.32c3.68-1.42,7.56-2.25,11.15-3.98c1.4-0.68,3.08-1.02,4.65-1.09c2.36-0.11,4.32-1.43,6.69-1.67
		c2.14-0.22,4.36-1.05,6.51-1.8c1.89-0.66,4-1.27,6.2-1.02c1.09,0.13,2.21,0.1,3.43-0.52c1.02-0.52,2.69-0.41,4.13,0.29
		c2.42,1.18,5.43,1,7.47,3.15c1.46,0.02,3.3,0.6,4.28-0.08c1.62-1.11,3.66,0.23,4.97-1.33c3.22,0.1,6.34-1.3,9.57-0.7
		c1.64,0.3,2.44-0.72,3.33-1.68c0.2-0.22,0.09-0.74,0.29-0.96c1.52-1.58,2.88-3.47,4.71-4.54c1.18-0.69,3.09-0.18,4.66-0.16
		c1.88,0.02,3.71-0.03,5.58,0.65c1.69,0.61,3.49,0.99,5.24,1.45c3.3,0.87,6.49,2.03,9.74,3.01c1.51,0.46,3.18,0.7,4.48,1.52
		c1.91,1.2,4.09,1.35,6.08,2.12c0.32,0.12,0.73,0.07,0.99,0.25c2.89,2.04,6.52,2.82,9.12,5.39c0.89,0.88,3.07,3.07,3.53,4.33
		c0.73,2.01,1.7,3.9,2.26,6.02c0.7,2.63,1.91,5.51,4.77,6.56c1.5,0.55,1.89,2.41,3.81,2.39c1.25-0.02,2.51,0.9,3.78,1.36
		c1.8,0.65,3.51,1.59,5.23,2.37c1.96,0.88,3.48,2.95,4.89,4.73c0.65,0.82,1.58,1.48,1.8,2.86c0.17,1.07,1.87,1.83,2.61,2.91
		c0.69,1,0.97,2.27,1.53,3.37c0.26,0.51,0.72,0.94,1.14,1.35c0.93,0.92,1.6,1.95,1.77,3.29c0.28,2.28,2.09,4.05,2.19,6.4
		c1.5,0.34,1.3,1.85,1.95,2.78c0.66,0.95,1.27,1.98,2.08,2.78c2.11,2.07,3.93,4.39,5.36,6.93c1.7,3.02,4,5.64,5.63,8.63
		c1.11,2.03,1.49,4.56,1.74,6.92c0.29,2.77,0.2,5.6,0.02,8.39c-0.11,1.69-0.72,3.34-1.09,5.01c-0.15,0.68-0.49,1.48-0.27,2.03
		c0.35,0.87,0.4,1.47,0.01,2.37c-0.35,0.79-0.55,1.8-0.68,2.61c-0.53,3.29-1.88,6.34-2.47,9.64c-0.53,2.95-1.62,5.88-2.36,8.85
		c-0.52,2.1-1.09,4.15-2.3,6c-0.34,0.53-0.08,1.41-0.33,2.05c-1.06,2.72-2.06,5.49-3.38,8.09c-0.93,1.83-1.75,3.82-3.56,5.12
		c-1.63,1.17-2.74,2.88-4.56,3.96c-1.56,0.93-2.58,2.75-3.84,4.18c-0.31,0.35-0.51,0.89-0.89,1.07c-2.21,1.06-3.24,3.27-4.82,4.92
		c-1.77,1.85-4.04,2.47-6.13,1.75c-1.4-0.48-2.8-0.17-4.06-0.76c-1.53-0.73-3.02-1.53-4.53-2.31c-2.64-1.37-4.37-3.22-4.55-6.49
		c-0.09-1.7-0.41-3.48-0.75-5.16c-0.32-1.62-0.18-3.37-0.73-4.79c-0.83-2.14-0.51-4.21-0.6-6.31c-0.09-1.94-0.01-3.9-0.02-5.84
		c-0.01-1.76-1.12-3.34-0.75-5.18c0.28-1.41-1.55-0.77-1.83-1.71c-1.5,0.52-2.66-0.84-4.09-0.74c-0.35,0.03-0.92,0.11-1.04-0.07
		c-1.37-2.07-3.47-1.16-5.3-1.4c-1.25-0.16-2.47-0.56-3.72-0.69c-1.21-0.12-2.46-0.18-3.65,0.02c-1.33,0.22-2.57,0.93-3.89,1.15
		c-3.3,0.55-5.71,2.14-7.39,5.11c-0.48,0.85-1.88,1.62-2.88,1.64c-1.72,0.03-3.54,0.7-5.27-0.46c-0.51-0.34-1.86,0.6-2.39,0.26
		c-0.84-0.52-1.6-0.41-2.4-0.43c-2.19-0.04-4.41-0.18-6.58,0.03c-2.66,0.26-5.15-0.63-7.74-0.8c-0.68-1.35-1.3,0.28-1.97,0.04
		c-0.74-0.27-1.51-0.71-2.25-0.7c-2.12,0.05-3.47-1.17-4.83-2.52c-1.57-1.55-1.75-1.52-4-0.55c-1.14,0.49-2.32,0.88-3.48,1.3
		c-0.32,0.11-0.72,0.34-0.98,0.24c-1.4-0.54-2.78-1.28-4.16,0.03c-1.1-0.98-2.47-0.53-3.71-0.77c-1.6-0.31-3.17-0.66-4.82-0.79
		c-0.82-0.07-1.77-1.12-2.28-1.96c-1.35-2.22-2.5-4.55-3.69-6.87c-1.04-2.02-1.9-4.02-2.39-6.35c-0.54-2.54-1.73-5.09-2.77-7.58
		c-0.11-0.26-0.91-0.55-1.09-0.42c-1.44,1.06-2.72,0.44-4.27,0.13c-3.4-0.66-6.67-2.1-10.3-1.77c-1.52,0.14-3.14-0.54-4.69-0.94
		c-1.43-0.37-2.85-0.82-4.24-1.27c-2.37-0.77-4.68-1.9-6.12-4.22c-1.27-2.05-2.69-4.01-4.09-5.98c-0.44-0.62-0.96-0.97-1.77-0.31
		c-0.88,0.71-1.9,1.26-2.89,1.83c-2.36,1.39-5.05,1.94-7.56,2.93c-0.52,0.21-1.13,0.35-1.53,0.7c-1.41,1.25-2.62,2.72-4.35,3.64
		c-0.67,0.35-1.01,1.11-1.29,2c-0.75,2.45-1.48,4.81-1.48,7.46c0,1.5,0.01,3.01,0,4.51c-0.01,4.21-1.95,7.79-5.43,10.05
		c-1.71,1.11-4.15,1.12-6.27,1.58c-0.47,0.1-0.98-0.05-1.46,0.03c-4.27,0.7-6.72-1.88-8.66-5.03c-1.65-2.69-2.91-5.61-4.45-8.38
		c-0.89-1.6-2.01-3.06-3-4.61c-0.49-0.76-1.1-1.52-1.32-2.37c-0.2-0.8,0.07-1.63-1.23-1.7c-0.36-0.02-0.88-0.83-0.99-1.34
		c-0.45-2.12-2.03-3.95-1.63-6.29c0.01-0.05-0.39-0.17-0.6-0.26C128.3,261.35,128.3,261.11,128.3,260.87z M205.12,182.87
		c-3.75,1.19-7.36,2.32-10.96,3.47c-1.29,0.41-2.67,0.67-3.84,1.31c-4.38,2.38-8.4,5.44-13.12,7.18c-3.22,1.18-5.39,3.87-8.3,5.53
		c-2.69,1.54-5.3,3.33-7.51,5.65c-1.59,1.67-3.56,3.02-5.53,4.24c-1.94,1.2-3.87,2.39-5.7,3.77c-1.39,1.05-2.23,2.83-4.13,3.22
		c-0.1,0.02-0.04,0.48-0.18,0.63c-1.61,1.73-2.27,3.92-2.91,6.11c-0.54,1.85-0.84,3.79-1.53,5.58c-0.34,0.88-0.71,1.67-0.7,2.64
		c0.01,0.91,0.36,1.91-0.61,2.69c-0.25,0.2-0.25,0.99-0.07,1.38c1.35,2.99,1.64,6.33,3.22,9.27c0.85,1.57,1.64,3.34,1.77,5.07
		c0.17,2.23,1.48,3.8,2.27,5.67c0.87,2.03,1.75,3.99,3.47,5.52c1.27,1.13,1.29,2.78,0.3,3.72c-0.98,0.92-2.41,0.51-3.51-1.16
		c-0.55-0.84-0.88-1.82-1.31-2.74c-1.38,0.38-0.9-1.1-1.5-1.52c-0.84-0.58-0.77-1.77-1.2-2.39c-1.31-1.9-1.21-4.15-2.08-6.11
		c-0.5-1.13-1.51-2.35-1.36-3.4c0.35-2.33-1.81-3.81-1.62-5.99c0.01-0.09-0.59-0.3-0.91-0.33c-0.16-0.01-0.5,0.28-0.48,0.41
		c0.22,1.92-0.27,3.73-0.76,5.54c-0.9,3.4-1.98,6.77-2.64,10.22c-0.51,2.65-0.85,5.38,0.77,7.86c1,1.54,2.15,2.99,3.08,4.58
		c1.72,2.94,3.43,5.9,5.07,8.87c0.9,1.63,2.17,3.11,2.67,5.11c0.36,1.45,1.63,3.44,4.13,2.71c0.67-0.2,1.45-0.01,2.19-0.03
		c1.3-0.05,4.75-1.51,5.66-2.23c1.58-1.25,1.43-3.24,1.63-4.78c0.45-3.39,0.33-6.84,0.72-10.29c0.35-3,2.26-4.95,3.32-7.43
		c2.18-0.95,4-2.4,5.61-4.13c0.15-0.16,0.37-0.3,0.58-0.36c3.4-0.92,6.48-2.61,9.7-3.94c1.35-0.56,2.14-1.37,3-2.36
		c0.3-0.35,0.87-0.72,1.27-0.67c0.77,0.09,2.06,0.34,2.15,0.75c0.44,2.02,2.38,2.82,3.33,4.46c1.47,2.52,3.82,4.54,5.83,6.74
		c0.27,0.3,8.74,2.39,9.27,2.31c2.05-0.3,3.91,0.44,5.79,1.05c0.54,0.18,1.14,0.49,1.65,0.39c2.25-0.47,4.4,0.92,6.75,0.15
		c0.94-0.31,2.54,0.41,3.43,1.16c1.98,1.66,3.02,4.11,3.5,6.53c0.55,2.82,1.65,5.42,2.55,8.1c0.64,1.91,1.82,3.62,2.64,5.48
		c0.83,1.88,2.56,2.77,4.19,2.61c2.4-0.24,4.72,1.7,7.1,0.13c0.17-0.11,0.48-0.05,0.72-0.01c1.85,0.33,3.26,0.08,4.55-0.81
		c2.47-1.71,3.15-1.67,5.29,0.33c0.71,0.67,1.32,1.45,2.09,2.04c0.9,0.69,1.83,1.37,3.09,1.37c2.12-0.01,4.18,0.11,6.31,0.6
		c2.19,0.51,4.62,0.32,6.9,0.06c2.27-0.26,4.46,1.93,6.75,0.1c0.21-0.17,0.85,0.19,1.29,0.3c2.87,0.7,5.48,0.97,7.77-1.74
		c2.11-2.5,4.66-4.68,8.36-4.45c0.2,0.01,0.41-0.2,0.62-0.24c2.03-0.41,4.05-1.1,6.08-1.14c2.7-0.05,5.41,0.4,8.11,0.68
		c0.3,0.03,0.52,0.51,0.84,0.61c1.85,0.55,3.73,1.53,5.57,1.46c3.22-0.13,5.02,1.74,6.9,3.74c0.22,0.23,0.43,0.63,0.39,0.92
		c-0.29,1.82,0.64,3.45,0.74,5.18c0.26,4.65-0.01,9.28,0.58,13.96c0.45,3.59,1.67,7.05,1.68,10.7c0,0.46,0.59,1.02,1.04,1.36
		c0.93,0.7,6.82,2.9,7.9,2.96c1.39,0.07,2.53-0.2,3.52-1.51c0.83-1.11,1.78-2.2,2.8-3.19c1.93-1.86,3.65-3.98,5.74-5.61
		c1.97-1.53,3.09-3.96,5.53-4.97c0.54-0.22,0.97-1.03,1.18-1.66c0.81-2.47,2.03-4.78,3.07-7.13c1-2.28,0.56-5.13,2.74-6.92
		c0.13-0.11,0.08-0.45,0.07-0.69c-0.09-2.26,1.33-4.09,1.81-6.2c0.5-2.2,0.64-4.48,1.79-6.57c0.63-1.15,0.34-2.77,0.85-4.02
		c0.96-2.34,0.37-5.06,1.93-7.25c0.28-0.4,0.36-1.36,0.09-1.65c-0.75-0.8-0.3-1.24-0.08-2.1c0.59-2.24,0.72-4.61,0.91-6.94
		c0.12-1.45,0.01-2.92,0.03-4.38c0.02-1.41-0.13-2.74-0.68-4.1c-0.53-1.3-1.17-2.27-2.58-2.53c-0.81-0.15-1.8,0.09-2.42-0.3
		c-1.03-0.65-1.56,0.76-2.46,0.31c-0.7-0.35-1.49-0.68-2.25-0.72c-2.07-0.1-4.15-0.16-6.21,0c-3.08,0.22-6.25-0.75-9.25,0.59
		c-1.89-1.76-3.7,0.48-5.57,0.12c-0.76-0.15-1.27,0.28-1.91,0.7c-5.12,3.44-9.26,8.02-14.02,11.88c-1.15,2.6-3.75,3.91-5.46,6.05
		c-2.19,2.74-4.81,5.18-7.47,7.5c-1.4,1.22-2.49,2.81-4.25,3.65c-0.97,0.46-1.53-0.15-1.71-0.69c-0.24-0.7-1.58-1.38-0.48-2.24
		c2.42-1.87,3.47-5.03,6.38-6.49c1.02-0.51,2.06-1.54,2.47-2.58c0.5-1.27,1.86-1.18,2.46-2.2c0.7-1.2,1.66-2.25,2.56-3.33
		c0.61-0.73,1.74-0.77,2.1-2c0.27-0.94,1.72-1.13,2.27-2.27c0.5-1.04,1.53-1.94,2.53-2.58c2.7-1.72,5.08-3.84,7.33-6.04
		c2.61-2.56,5.48-3.8,9.09-3.77c6.34,0.06,12.68,0,19.02,0.03c1.26,0.01,2.62-0.38,3.75,0.68c0.24,0.22,1.18,0.14,1.33-0.1
		c0.29-0.45,0.51-1.28,0.27-1.65c-1.4-2.24-2.46-4.68-4.33-6.63c-1.9-1.97-3.8-3.97-5.38-6.19c-0.75-1.06-1.61-2.42-1.81-3.58
		c-0.32-1.83-1.2-3.15-2.02-4.69c-0.79-1.49-1.45-3.02-2.35-4.51c-1.59-2.65-3.44-5.13-4.96-7.8c-0.84-1.47-1.77-2.74-3.26-3.53
		c-1.49-0.79-2.78-1.82-4.52-2.38c-1.61-0.51-3.22-1.57-4.85-2.37c-3.21-1.57-6.72-2.74-8.78-6.18c-0.97-1.63-2.94-4.4-3.05-6.09
		c-0.15-2.58-1.63-4.69-2.54-6.99c-0.52-1.31-2.08-1.79-3.38-2.3c-0.73-0.29-1.71-0.28-2.22-0.78c-2.07-2.05-4.94-2.24-7.4-3.37
		c-0.33-0.15-1.07-0.12-1.2,0.08c-1.4,2.19-4.77,2.03-5.66,4.79c-2.98,1.52-4.63,4.53-7.2,6.48c-2.65,2.01-3.59,5.66-6.91,6.98
		c-0.1,0.04,0.02,0.5-0.1,0.66c-0.98,1.31-1.99,2.59-3.01,3.87c-1.67,2.11-3.22,4.34-5.06,6.29c-2.18,2.32-3.3,5.38-5.74,7.55
		c-1.32,1.16-2.55,2.92-2.85,4.59c-0.29,1.56-0.77,2.66-1.85,3.66c-0.24,0.22-0.46,0.58-0.48,0.88c-0.1,2.31-1.96,3.8-2.76,5.81
		c-0.69,1.74-1.86,3.31-2.45,5.2c-0.46,1.48-1.53,2.77-2.34,4.14c-0.7,1.18-1.88,0.95-2.92,0.85c-0.85-0.08-1.32-1.31-0.9-2.14
		c2.23-4.43,4.46-8.87,6.72-13.29c1.59-3.12,2.97-6.34,4.87-9.32c3.19-5.02,7.25-9.37,10.67-14.19c1.37-1.92,3.48-3.4,4.51-5.46
		c1.09-2.17,3.05-3.34,4.55-4.94c4.39-4.63,9.18-8.87,13.85-13.24c0.31-0.29,0.81-0.36,1.22-0.54c-1.37-1.95-3.43-1.78-5.14-2.28
		c-5.25-1.53-10.36-3.62-15.91-3.99c-0.22-0.01-0.5-0.05-0.65-0.19c-1.01-0.93-1.79-0.52-2.81,0.14c-0.79,0.51-1.84,0.6-2.51,1.44
		c-1.89,2.36-3.26,5.32-6.72,5.95c-0.41,0.07-0.7,0.63-1.11,0.84c-1.68,0.89-2.34,2.78-3.83,3.84c-1.88,1.33-3.14,3.17-4.46,5.03
		c-2.36,3.32-4.9,6.51-7.41,9.73c-0.79,1.01-1.76,1.82-2.39,3.03c-0.62,1.19-2.09,1.88-2.06,3.57c0.01,0.42-0.75,0.93-1.24,1.27
		c-0.33,0.23-0.9,0.43-1.22,0.3c-0.73-0.3-1.43-0.75-2.02-1.28c-0.27-0.24-0.48-0.9-0.35-1.2c0.51-1.13,1.04-2.3,1.79-3.27
		c2.96-3.79,5.99-7.53,9.04-11.24c0.83-1.01,1.02-2.71,2.78-2.81c0.03-2.53,2.36-3.42,3.6-5.09c0.4-0.55,0.55-1.28,0.82-1.95
		c-3.2-0.22-6.07,0.03-8.87,1.18c-1.15,0.48-2.45,0.48-3.71-0.35c-1.59-1.05-3.55-1.4-5.29-2.23c-1.57-0.75-3.69-1.61-5.45-0.77
		c-1.65,0.78-3.24,0.51-4.86,0.64c-0.47,0.04-0.98-0.03-1.42,0.11c-2.83,0.92-5.8,1.26-8.63,2.13c-2.34,0.72-5.08,0.93-6.28,3.66
		c-0.91,2.06-2.25,3.88-3.03,6.06c-0.79,2.2-1.5,4.47-2.75,6.54c-0.91,1.5-1.5,3.34-1.88,5.03c-0.35,1.57-1.58,2.48-1.91,3.99
		c-0.51,2.3-1.06,4.72-2.21,6.73c-1.92,3.34-1.77,7.26-3.53,10.61c-0.62,1.17-0.35,2.87-1.09,3.9c-0.99,1.38,0.46,3.23-1.15,4.3
		c0.07,2.25-1.13,4.33-0.77,6.64c0.22,1.42-0.19,2.97,0.21,4.31c0.42,1.4-0.67,2.53-0.21,3.85c0.23,0.65-0.08,1.54,0.26,2.08
		c1.09,1.72,0.31,3.53,0.43,5.29c0.03,0.47-0.73,1.26-1.28,1.45c-1.81,0.61-2.99-0.32-3.03-2.29c-0.04-2.43,0-4.87-0.01-7.31
		c0-0.84,0.13-1.75-0.15-2.49c-0.35-0.93-0.05-1.95-0.58-2.81c1.53-0.95,0.14-2.21,0.35-3.27c0.59-3.04,1-6.09,1.73-9.12
		c0.99-4.1,2.38-8.06,3.4-12.13c1.16-4.63,3.74-8.67,5.27-13.17c1.62-4.78,3.46-9.52,5.84-14.02
		C204.18,186.18,204.54,184.52,205.12,182.87z"/>
	<path class="st0" d="M205.12,182.87c-0.58,1.65-0.95,3.31-1.71,4.76c-2.38,4.5-4.21,9.24-5.84,14.02
		c-1.53,4.5-4.11,8.54-5.27,13.17c-1.02,4.07-2.41,8.03-3.4,12.13c-0.73,3.03-1.14,6.09-1.73,9.12c-0.21,1.07,1.18,2.32-0.35,3.27
		c0.53,0.86,0.23,1.88,0.58,2.81c0.28,0.75,0.14,1.66,0.15,2.49c0.01,2.43-0.03,4.87,0.01,7.31c0.03,1.97,1.21,2.91,3.03,2.29
		c0.55-0.19,1.31-0.98,1.28-1.45c-0.11-1.75,0.66-3.57-0.43-5.29c-0.34-0.53-0.03-1.43-0.26-2.08c-0.46-1.32,0.63-2.45,0.21-3.85
		c-0.4-1.34,0.01-2.89-0.21-4.31c-0.36-2.31,0.84-4.4,0.77-6.64c1.62-1.06,0.17-2.91,1.15-4.3c0.74-1.03,0.47-2.73,1.09-3.9
		c1.76-3.35,1.61-7.27,3.53-10.61c1.16-2.01,1.71-4.43,2.21-6.73c0.33-1.51,1.57-2.42,1.91-3.99c0.37-1.69,0.97-3.53,1.88-5.03
		c1.26-2.07,1.97-4.35,2.75-6.54c0.78-2.18,2.12-3.99,3.03-6.06c1.2-2.73,3.94-2.94,6.28-3.66c2.83-0.87,5.8-1.2,8.63-2.13
		c0.44-0.14,0.95-0.07,1.42-0.11c1.62-0.14,3.21,0.14,4.86-0.64c1.76-0.83,3.88,0.02,5.45,0.77c1.75,0.83,3.7,1.18,5.29,2.23
		c1.26,0.83,2.55,0.82,3.71,0.35c2.8-1.16,5.67-1.4,8.87-1.18c-0.27,0.67-0.42,1.4-0.82,1.95c-1.23,1.67-3.57,2.57-3.6,5.09
		c-1.76,0.1-1.95,1.8-2.78,2.81c-3.06,3.71-6.08,7.45-9.04,11.24c-0.76,0.97-1.29,2.14-1.79,3.27c-0.14,0.3,0.07,0.96,0.35,1.2
		c0.59,0.53,1.29,0.98,2.02,1.28c0.32,0.13,0.88-0.07,1.22-0.3c0.49-0.34,1.25-0.84,1.24-1.27c-0.03-1.69,1.43-2.38,2.06-3.57
		c0.63-1.21,1.6-2.02,2.39-3.03c2.51-3.21,5.05-6.41,7.41-9.73c1.32-1.85,2.57-3.69,4.46-5.03c1.49-1.06,2.15-2.95,3.83-3.84
		c0.41-0.22,0.7-0.77,1.11-0.84c3.47-0.63,4.83-3.59,6.72-5.95c0.68-0.84,1.72-0.93,2.51-1.44c1.02-0.66,1.8-1.07,2.81-0.14
		c0.15,0.14,0.42,0.17,0.65,0.19c5.54,0.37,10.66,2.47,15.91,3.99c1.71,0.5,3.76,0.32,5.14,2.28c-0.41,0.17-0.92,0.25-1.22,0.54
		c-4.66,4.37-9.46,8.61-13.85,13.24c-1.51,1.59-3.46,2.76-4.55,4.94c-1.03,2.05-3.15,3.53-4.51,5.46
		c-3.43,4.83-7.48,9.18-10.67,14.19c-1.9,2.98-3.27,6.2-4.87,9.32c-2.26,4.42-4.49,8.86-6.72,13.29c-0.42,0.83,0.05,2.06,0.9,2.14
		c1.04,0.1,2.22,0.33,2.92-0.85c0.81-1.37,1.88-2.66,2.34-4.14c0.59-1.89,1.76-3.46,2.45-5.2c0.8-2.01,2.67-3.49,2.76-5.81
		c0.01-0.3,0.24-0.67,0.48-0.88c1.08-1,1.57-2.1,1.85-3.66c0.31-1.67,1.54-3.42,2.85-4.59c2.44-2.16,3.56-5.23,5.74-7.55
		c1.84-1.95,3.39-4.18,5.06-6.29c1.01-1.28,2.03-2.57,3.01-3.87c0.12-0.16,0-0.62,0.1-0.66c3.32-1.32,4.26-4.98,6.91-6.98
		c2.57-1.95,4.22-4.95,7.2-6.48c0.88-2.76,4.26-2.6,5.66-4.79c0.13-0.21,0.87-0.24,1.2-0.08c2.46,1.13,5.33,1.32,7.4,3.37
		c0.5,0.5,1.48,0.48,2.22,0.78c1.3,0.52,2.86,0.99,3.38,2.3c0.91,2.3,2.39,4.41,2.54,6.99c0.1,1.69,2.07,4.46,3.05,6.09
		c2.05,3.44,5.57,4.61,8.78,6.18c1.63,0.8,3.24,1.85,4.85,2.37c1.74,0.55,3.02,1.58,4.52,2.38c1.49,0.79,2.42,2.06,3.26,3.53
		c1.53,2.67,3.37,5.15,4.96,7.8c0.89,1.49,1.55,3.03,2.35,4.51c0.82,1.54,1.71,2.86,2.02,4.69c0.2,1.16,1.06,2.52,1.81,3.58
		c1.57,2.22,3.48,4.22,5.38,6.19c1.87,1.95,2.93,4.39,4.33,6.63c0.23,0.37,0.01,1.21-0.27,1.65c-0.15,0.24-1.09,0.32-1.33,0.1
		c-1.14-1.06-2.49-0.67-3.75-0.68c-6.34-0.04-12.68,0.03-19.02-0.03c-3.6-0.04-6.48,1.21-9.09,3.77c-2.24,2.2-4.63,4.32-7.33,6.04
		c-1,0.64-2.03,1.55-2.53,2.58c-0.55,1.14-2,1.32-2.27,2.27c-0.36,1.24-1.49,1.27-2.1,2c-0.9,1.08-1.85,2.13-2.56,3.33
		c-0.6,1.02-1.96,0.93-2.46,2.2c-0.41,1.04-1.45,2.07-2.47,2.58c-2.9,1.46-3.96,4.62-6.38,6.49c-1.1,0.85,0.24,1.53,0.48,2.24
		c0.18,0.54,0.75,1.15,1.71,0.69c1.76-0.84,2.85-2.43,4.25-3.65c2.66-2.32,5.28-4.75,7.47-7.5c1.71-2.14,4.31-3.45,5.46-6.05
		c4.76-3.85,8.9-8.44,14.02-11.88c0.64-0.43,1.15-0.85,1.91-0.7c1.87,0.37,3.68-1.88,5.57-0.12c3.01-1.34,6.17-0.37,9.25-0.59
		c2.06-0.15,4.15-0.09,6.21,0c0.76,0.04,1.55,0.37,2.25,0.72c0.91,0.45,1.43-0.96,2.46-0.31c0.62,0.39,1.62,0.15,2.42,0.3
		c1.4,0.26,2.05,1.23,2.58,2.53c0.56,1.36,0.7,2.69,0.68,4.1c-0.02,1.46,0.09,2.93-0.03,4.38c-0.19,2.33-0.32,4.7-0.91,6.94
		c-0.23,0.86-0.67,1.3,0.08,2.1c0.27,0.29,0.19,1.25-0.09,1.65c-1.56,2.18-0.97,4.91-1.93,7.25c-0.51,1.25-0.22,2.87-0.85,4.02
		c-1.14,2.09-1.29,4.37-1.79,6.57c-0.48,2.11-1.89,3.94-1.81,6.2c0.01,0.23,0.06,0.58-0.07,0.69c-2.18,1.79-1.73,4.64-2.74,6.92
		c-1.04,2.35-2.26,4.66-3.07,7.13c-0.21,0.63-0.64,1.44-1.18,1.66c-2.45,1.01-3.57,3.44-5.53,4.97c-2.1,1.64-3.82,3.75-5.74,5.61
		c-1.02,0.99-1.97,2.08-2.8,3.19c-0.99,1.31-2.13,1.59-3.52,1.51c-1.08-0.06-6.97-2.25-7.9-2.96c-0.45-0.34-1.03-0.9-1.04-1.36
		c-0.02-3.65-1.23-7.11-1.68-10.7c-0.59-4.68-0.31-9.32-0.58-13.96c-0.1-1.74-1.03-3.37-0.74-5.18c0.05-0.28-0.17-0.69-0.39-0.92
		c-1.88-2-3.68-3.87-6.9-3.74c-1.83,0.08-3.72-0.91-5.57-1.46c-0.31-0.09-0.54-0.57-0.84-0.61c-2.7-0.29-5.41-0.73-8.11-0.68
		c-2.03,0.04-4.06,0.73-6.08,1.14c-0.22,0.04-0.42,0.25-0.62,0.24c-3.7-0.23-6.25,1.96-8.36,4.45c-2.29,2.71-4.9,2.44-7.77,1.74
		c-0.44-0.11-1.08-0.47-1.29-0.3c-2.29,1.83-4.48-0.36-6.75-0.1c-2.28,0.26-4.71,0.46-6.9-0.06c-2.13-0.5-4.19-0.61-6.31-0.6
		c-1.26,0.01-2.19-0.67-3.09-1.37c-0.76-0.59-1.38-1.38-2.09-2.04c-2.15-2.01-2.83-2.04-5.29-0.33c-1.29,0.89-2.7,1.14-4.55,0.81
		c-0.24-0.04-0.55-0.1-0.72,0.01c-2.37,1.57-4.69-0.38-7.1-0.13c-1.64,0.17-3.37-0.73-4.19-2.61c-0.82-1.86-2-3.57-2.64-5.48
		c-0.9-2.68-2-5.28-2.55-8.1c-0.47-2.42-1.52-4.87-3.5-6.53c-0.89-0.75-2.49-1.47-3.43-1.16c-2.35,0.77-4.5-0.62-6.75-0.15
		c-0.5,0.1-1.11-0.21-1.65-0.39c-1.88-0.61-3.73-1.34-5.79-1.05c-0.53,0.08-8.99-2.01-9.27-2.31c-2.01-2.2-4.36-4.22-5.83-6.74
		c-0.96-1.64-2.89-2.44-3.33-4.46c-0.09-0.4-1.38-0.66-2.15-0.75c-0.4-0.05-0.97,0.33-1.27,0.67c-0.85,0.99-1.64,1.8-3,2.36
		c-3.23,1.33-6.31,3.02-9.7,3.94c-0.21,0.06-0.43,0.2-0.58,0.36c-1.61,1.73-3.42,3.18-5.61,4.13c-1.06,2.48-2.98,4.44-3.32,7.43
		c-0.4,3.45-0.27,6.9-0.72,10.29c-0.2,1.54-0.05,3.53-1.63,4.78c-0.91,0.72-4.37,2.18-5.66,2.23c-0.73,0.03-1.51-0.16-2.19,0.03
		c-2.49,0.73-3.76-1.26-4.13-2.71c-0.51-2.01-1.78-3.48-2.67-5.11c-1.64-2.97-3.35-5.93-5.07-8.87c-0.93-1.58-2.07-3.04-3.08-4.58
		c-1.61-2.47-1.28-5.21-0.77-7.86c0.66-3.46,1.74-6.82,2.64-10.22c0.48-1.82,0.98-3.63,0.76-5.54c-0.01-0.12,0.33-0.42,0.48-0.41
		c0.32,0.03,0.92,0.24,0.91,0.33c-0.19,2.17,1.97,3.65,1.62,5.99c-0.16,1.04,0.85,2.26,1.36,3.4c0.87,1.96,0.77,4.21,2.08,6.11
		c0.43,0.62,0.35,1.8,1.2,2.39c0.6,0.42,0.12,1.89,1.5,1.52c0.43,0.92,0.76,1.9,1.31,2.74c1.1,1.67,2.53,2.09,3.51,1.16
		c0.99-0.93,0.97-2.59-0.3-3.72c-1.72-1.53-2.6-3.49-3.47-5.52c-0.8-1.87-2.11-3.44-2.27-5.67c-0.13-1.73-0.93-3.51-1.77-5.07
		c-1.59-2.93-1.88-6.27-3.22-9.27c-0.17-0.39-0.17-1.18,0.07-1.38c0.96-0.78,0.61-1.78,0.61-2.69c-0.01-0.98,0.35-1.76,0.7-2.64
		c0.69-1.79,1-3.72,1.53-5.58c0.63-2.19,1.29-4.37,2.91-6.11c0.14-0.15,0.08-0.61,0.18-0.63c1.9-0.4,2.74-2.18,4.13-3.22
		c1.84-1.39,3.76-2.57,5.7-3.77c1.97-1.22,3.95-2.58,5.53-4.24c2.21-2.32,4.83-4.11,7.51-5.65c2.91-1.67,5.08-4.35,8.3-5.53
		c4.72-1.74,8.74-4.8,13.12-7.18c1.17-0.64,2.55-0.9,3.84-1.31C197.77,185.19,201.38,184.06,205.12,182.87z M246.86,277.52
		c-0.06,1.91-0.27,3.16,0.98,3.64c0.47,0.18,1.24-0.3,1.81-0.59c0.33-0.17,0.69-0.51,0.8-0.85c0.36-1.07,0.43-2.27,0.92-3.27
		c2.69-5.61,4.17-11.65,6.42-17.41c0.74-1.88,1.85-3.72,2.09-5.67c0.28-2.22,2.66-3.29,2.55-5.54c1.62-0.63,0.83-2.61,2.04-3.56
		c1.09-0.85,0.55-2.82,2.09-3.49c0.36-3.88,3.57-6.48,4.52-10.19c0.63-2.43,2.43-4.57,3.74-6.82c1.31-2.25,1.92-4.88,3.84-6.82
		c0.74-0.74,0.49-2.01-0.39-2.43c-0.84-0.4-1.52,0.36-2.18,0.8c-0.12,0.08,0.03,0.51-0.1,0.67c-2.93,3.68-4.95,7.92-7.2,11.99
		c-3.32,6.02-6.48,12.14-9.52,18.32c-2.13,4.33-4.13,8.74-5.74,13.31c-1.08,3.08-2.34,6.1-3.31,9.21c-0.74,2.38-1.68,4.66-2.69,6.92
		C247.19,276.56,246.9,277.42,246.86,277.52z M312.9,236.37c-0.46-0.59-0.82-1.44-1.45-1.74c-0.75-0.36-1.66-0.07-2.18,0.77
		c-1.22,1.98-2.66,3.78-4.06,5.63c-1.23,1.63-2.67,3.34-3.39,5.13c-1.22,3.05-3.13,5.72-4.22,8.83c-0.66,1.89-2.07,3.51-3,5.32
		c-0.68,1.33-1.7,2.56-2.19,3.83c-0.52,1.36-1.64,2.66-1.61,4.04c0.04,1.73-2.3,2.25-1.69,4.12c0.13,0.4-0.58,1.12-0.42,1.46
		c0.31,0.62,0.9,1.17,1.5,1.55c1.07,0.69,1.49-0.44,1.98-0.98c0.6-0.66,1.07-1.48,1.43-2.31c0.4-0.92,0.58-1.94,0.92-2.9
		c0.81-2.25,2.66-4.08,3.24-6.3c0.96-3.7,3.46-6.56,4.8-10.06c1.01-2.66,2.44-5.34,4.2-7.75c1.61-2.2,2.94-4.61,4.44-6.9
		c0.2-0.3,0.73-0.37,1.03-0.64C312.48,237.26,312.59,236.91,312.9,236.37z M175.17,229.44c0.11-0.07,0.61-0.22,0.84-0.55
		c0.64-0.93,1.25-1.86,1.34-3.09c0.1-1.36-0.66-2.89,0.67-4.05c-1.17-1.66,0.78-2.75,0.77-4.2c-0.03-3.15,0.81-6.17,1.46-9.22
		c0.34-1.58,1.06-3.11,0.73-4.79c1.52-2.34,1.24-5.3,2.6-7.65c0.67-1.16,0-1.54-0.58-2.03c-0.82-0.7-1.23,0.18-1.75,0.6
		c-0.67,0.56-0.88,1.23-1.07,2.12c-0.46,2.07-1.52,4.01-1.95,6.08c-0.72,3.45-1.9,6.78-2.51,10.28c-0.39,2.21-0.13,4.64-1.34,6.68
		c-0.77,1.3-0.7,2.67-0.72,4.07c-0.02,1.15,0.06,2.23-0.64,3.38C172.35,228.16,173.54,229.48,175.17,229.44z M329.77,265.25
		c0.49,0,1.06,0.16,1.45-0.03c1.44-0.71,2.86-1.48,4.53-1.42c1.78,0.06,3.48-0.1,5.2-0.7c1.29-0.45,2.7-0.63,4.07-0.75
		c3.43-0.3,6.87-0.48,10.3-0.78c0.65-0.06,1.25-0.61,1.9-0.67c0.93-0.09,0.81-0.66,0.82-1.25c0.03-2.05-1.33-3.24-3.26-2.3
		c-1.09,0.54-2.03,0.47-3.06,0.58c-2.58,0.27-5.25,0.16-7.72,0.82c-3.33,0.89-6.67,1.61-10.06,2.24c-1.6,0.29-3.3,0.83-4.93,1.23
		c-1.29,0.32-0.76,1.67-1.71,1.93c0.58,0.36,1.15,0.76,1.75,1.08C329.24,265.34,329.53,265.25,329.77,265.25z M150.67,236.53
		c0.43,2.36,0.63,4.09,1.08,5.75c0.23,0.84,1.14,1.48,1.38,2.32c1.3,4.47,3.9,8.32,5.91,12.44c0.4,0.82,0.99,1.65,1.71,2.15
		c0.41,0.28,1.27-0.09,1.93-0.16c-0.17-1.11,1.37-1.84,0.49-3.24c-1.61-2.57-2.78-5.42-4.45-7.94c-1.33-2-1.37-4.6-3.24-6.33
		c-0.31-0.29,0.06-1.2-0.15-1.73c-0.37-0.93-0.75-2.01-1.48-2.61C153.25,236.7,152.14,236.8,150.67,236.53z M228.51,249.18
		c0.12-0.07,0.66-0.19,0.86-0.52c0.53-0.86,1.17-1.77,1.3-2.72c0.23-1.73,0.27-3.43,0.68-5.18c0.64-2.72,0.54-5.61,0.86-8.42
		c0.13-1.12,0.51-2.21,0.78-3.32c0.09-0.35,0.38-0.82,0.25-1.01c-0.56-0.79-0.55-2.39-1.9-2.11c-0.66,0.14-1.11,1.3-1.63,2.02
		c-0.19,0.27-0.41,0.59-0.43,0.91c-0.26,3.36-0.71,6.68-1.46,9.97c-0.16,0.69-0.19,1.51,0.02,2.17c0.23,0.72-1.15,0.86-0.4,1.77
		c0.29,0.36-0.35,1.36-0.34,2.07c0,0.78-0.45,1.28-0.71,1.91C225.9,247.94,226.9,249.17,228.51,249.18z M331.41,288.67
		c1.1,1.02,1.66,2.49,3.49,2.16c1,1.43,2.15-0.91,3,0.05c0.92,1.04,2,0.54,3.02,0.68c0.81,0.11,1.82-0.06,2.38,0.36
		c1.2,0.91,1.9-0.11,2.86-0.28c1.52-0.27,0.76-1.26,0.88-1.92c0.18-1.01-0.55-1.64-1.37-1.77c-2.19-0.35-4.41-0.55-6.62-0.75
		c-0.84-0.08-1.96,0.33-2.51-0.07C334.13,285.31,332.94,286.92,331.41,288.67z"/>
	<path d="M246.86,277.52c0.04-0.1,0.33-0.96,0.7-1.78c1.01-2.26,1.94-4.54,2.69-6.92c0.97-3.11,2.23-6.13,3.31-9.21
		c1.61-4.57,3.61-8.98,5.74-13.31c3.03-6.17,6.19-12.29,9.52-18.32c2.25-4.08,4.26-8.31,7.2-11.99c0.12-0.15-0.03-0.59,0.1-0.67
		c0.66-0.43,1.34-1.19,2.18-0.8c0.88,0.42,1.12,1.68,0.39,2.43c-1.92,1.94-2.53,4.57-3.84,6.82c-1.31,2.25-3.11,4.39-3.74,6.82
		c-0.96,3.71-4.16,6.31-4.52,10.19c-1.55,0.67-1.01,2.64-2.09,3.49c-1.21,0.95-0.42,2.93-2.04,3.56c0.11,2.26-2.26,3.32-2.55,5.54
		c-0.25,1.95-1.36,3.79-2.09,5.67c-2.26,5.76-3.73,11.81-6.42,17.41c-0.48,1-0.56,2.2-0.92,3.27c-0.11,0.34-0.47,0.68-0.8,0.85
		c-0.58,0.29-1.35,0.77-1.81,0.59C246.59,280.68,246.8,279.43,246.86,277.52z"/>
	<path d="M312.9,236.37c-0.31,0.55-0.42,0.9-0.65,1.1c-0.3,0.27-0.83,0.34-1.03,0.64c-1.5,2.29-2.83,4.69-4.44,6.9
		c-1.76,2.41-3.18,5.09-4.2,7.75c-1.34,3.5-3.84,6.36-4.8,10.06c-0.58,2.22-2.43,4.05-3.24,6.3c-0.34,0.95-0.52,1.97-0.92,2.9
		c-0.36,0.83-0.83,1.65-1.43,2.31c-0.49,0.54-0.91,1.67-1.98,0.98c-0.6-0.39-1.2-0.93-1.5-1.55c-0.16-0.33,0.55-1.06,0.42-1.46
		c-0.62-1.86,1.73-2.38,1.69-4.12c-0.03-1.38,1.08-2.68,1.61-4.04c0.49-1.27,1.5-2.5,2.19-3.83c0.93-1.81,2.34-3.43,3-5.32
		c1.09-3.11,3-5.78,4.22-8.83c0.72-1.8,2.16-3.5,3.39-5.13c1.4-1.85,2.84-3.66,4.06-5.63c0.52-0.84,1.43-1.13,2.18-0.77
		C312.08,234.93,312.44,235.78,312.9,236.37z"/>
	<path d="M175.17,229.44c-1.63,0.04-2.82-1.28-2.17-2.35c0.7-1.15,0.62-2.23,0.64-3.38c0.02-1.4-0.05-2.77,0.72-4.07
		c1.21-2.04,0.95-4.47,1.34-6.68c0.61-3.5,1.78-6.83,2.51-10.28c0.43-2.07,1.49-4.01,1.95-6.08c0.2-0.88,0.41-1.56,1.07-2.12
		c0.51-0.43,0.92-1.3,1.75-0.6c0.58,0.49,1.25,0.87,0.58,2.03c-1.36,2.34-1.08,5.31-2.6,7.65c0.32,1.68-0.4,3.21-0.73,4.79
		c-0.65,3.05-1.49,6.06-1.46,9.22c0.01,1.45-1.93,2.54-0.77,4.2c-1.33,1.16-0.57,2.69-0.67,4.05c-0.09,1.23-0.7,2.16-1.34,3.09
		C175.78,229.22,175.28,229.37,175.17,229.44z"/>
	<path d="M329.77,265.25c-0.24,0-0.53,0.09-0.72-0.02c-0.6-0.32-1.17-0.71-1.75-1.08c0.95-0.26,0.42-1.61,1.71-1.93
		c1.63-0.41,3.33-0.94,4.93-1.23c3.39-0.62,6.72-1.34,10.06-2.24c2.47-0.66,5.14-0.55,7.72-0.82c1.02-0.11,1.96-0.05,3.06-0.58
		c1.92-0.94,3.29,0.24,3.26,2.3c-0.01,0.59,0.11,1.16-0.82,1.25c-0.65,0.06-1.25,0.61-1.9,0.67c-3.43,0.3-6.87,0.47-10.3,0.78
		c-1.37,0.12-2.78,0.3-4.07,0.75c-1.71,0.6-3.42,0.76-5.2,0.7c-1.67-0.05-3.08,0.71-4.53,1.42
		C330.83,265.41,330.26,265.25,329.77,265.25z"/>
	<path d="M150.67,236.53c1.47,0.27,2.58,0.17,3.19,0.67c0.73,0.6,1.11,1.68,1.48,2.61c0.21,0.52-0.16,1.44,0.15,1.73
		c1.87,1.73,1.91,4.32,3.24,6.33c1.67,2.52,2.84,5.37,4.45,7.94c0.88,1.4-0.66,2.12-0.49,3.24c-0.66,0.07-1.52,0.44-1.93,0.16
		c-0.72-0.51-1.31-1.34-1.71-2.15c-2.01-4.13-4.61-7.97-5.91-12.44c-0.24-0.84-1.15-1.48-1.38-2.32
		C151.3,240.62,151.1,238.89,150.67,236.53z"/>
	<path d="M228.51,249.18c-1.61-0.01-2.61-1.24-2.11-2.46c0.26-0.63,0.71-1.13,0.71-1.91c0-0.71,0.63-1.72,0.34-2.07
		c-0.74-0.92,0.63-1.06,0.4-1.77c-0.21-0.66-0.18-1.48-0.02-2.17c0.75-3.29,1.2-6.62,1.46-9.97c0.02-0.31,0.24-0.64,0.43-0.91
		c0.52-0.72,0.97-1.88,1.63-2.02c1.34-0.28,1.34,1.31,1.9,2.11c0.13,0.19-0.16,0.66-0.25,1.01c-0.27,1.1-0.66,2.2-0.78,3.32
		c-0.32,2.81-0.22,5.7-0.86,8.42c-0.41,1.75-0.45,3.46-0.68,5.18c-0.13,0.95-0.77,1.87-1.3,2.72
		C229.17,248.99,228.63,249.11,228.51,249.18z"/>
	<path d="M331.41,288.67c1.53-1.75,2.72-3.36,5.14-1.56c0.55,0.41,1.66-0.01,2.51,0.07c2.21,0.21,4.43,0.4,6.62,0.75
		c0.82,0.13,1.55,0.76,1.37,1.77c-0.12,0.67,0.64,1.65-0.88,1.92c-0.95,0.17-1.65,1.2-2.86,0.28c-0.56-0.43-1.58-0.25-2.38-0.36
		c-1.02-0.14-2.1,0.36-3.02-0.68c-0.85-0.96-2,1.38-3-0.05C333.07,291.16,332.51,289.69,331.41,288.67z"/>
</g>
</svg>
