<?xml version="1.0" encoding="utf-8"?>
<!-- Generator: Adobe Illustrator 27.5.0, SVG Export Plug-In . SVG Version: 6.00 Build 0)  -->
<svg version="1.1" id="Layer_1" xmlns="http://www.w3.org/2000/svg" xmlns:xlink="http://www.w3.org/1999/xlink" x="0px" y="0px"
	 viewBox="0 0 500 500" style="enable-background:new 0 0 500 500;" xml:space="preserve">
<style type="text/css">
	.st0{fill:#E5D6CF;}
</style>
<g>
	<path d="M288.95,406.43c-1.3-0.37-3.08,0.06-4.37-1.27c-0.78,0.44-1.36,0.14-2.14-0.22c-0.97-0.45-2.19-0.53-3.28-0.48
		c-0.88,0.04-1.43-0.64-2.38-0.66c-0.99-0.01-2.21,0.54-3.15-0.16c-2.46-1.82-5.74-0.68-8.28-2.41c-1-0.68-2.43,0.01-3.76-0.48
		c-2.42-0.89-5.19-0.88-7.52-1.91c-2.05-0.9-4.32-0.63-6.19-1.66c-2.06-1.14-4.45-0.43-6.37-1.37c-2.68-1.31-5.55-1.11-8.3-1.75
		c-1.23-0.29-2.4-0.85-3.63-1.13c-1.19-0.28-2.83,0.06-3.55-0.63c-0.95-0.92-2.39,0.67-2.85-0.91c-1.21-0.18-2.54-0.1-3.61-0.58
		c-3.4-1.52-7.08-1.37-10.61-2.1c-1.02-0.21-1.95-0.78-2.96-1.03c-0.97-0.24-2.03-0.17-2.97-0.48c-0.62-0.2-1.04-0.69-1.81-0.24
		c-0.4,0.24-7.98-1.89-8.68-2.24c-1.33-0.65-2.88-0.58-4.17-1.46c-0.74-0.51-1.76,0.97-2.84-0.34c-0.6-0.73-2.4-0.35-3.32-0.97
		c-0.92-0.62-2.32,0.04-2.88-1.25c-0.05-0.12-0.4-0.11-0.61-0.16c-2.64-0.59-5.3-1.14-7.93-1.78c-1.12-0.27-2.18-0.77-3.29-1.1
		c-1.11-0.33-2.47,0.08-3.28-1.14c-2.32-0.32-4.65-0.62-6.97-0.95c-2.86-0.41-5.43-1.76-8.13-2.68c-1.09-0.37-1.85-1.56-1.83-2.92
		c0.01-0.44,0.19-0.89,0.16-1.33c-0.12-1.42,0.85-2.59,0.66-4.12c-0.18-1.5,0.44-3.09,0.52-4.65c0.07-1.37,1.05-2.77-0.05-4.16
		c-0.09-0.12,0.21-0.55,0.34-0.84c0.21-0.48,0.35-1,0.64-1.42c0.74-1.12-1.01-2.28,0.27-3.59c0.7-0.72,0.57-2.31,0.66-3.51
		c0.05-0.7-0.21-1.43-0.35-2.14c-0.16-0.79,1.61-0.9,0.71-1.89c-0.84-0.93,0.88-0.98,0.53-1.87c-0.29-0.74,0.45-1.62-0.17-2.54
		c-0.21-0.32,0.59-1.21,0.68-1.88c0.07-0.54-0.87-0.96-0.24-1.72c1.06-1.26,0.94-2.69,0.71-4.26c-0.18-1.21,0.26-2.52,0.5-3.77
		c0.1-0.5,0.44-0.95,0.58-1.44c0.34-1.17,0.04-2.31-0.14-3.48c-0.15-1,1.43-1.84,0.42-3.13c-0.24-0.31-0.01-1.5,0.2-1.56
		c1.68-0.47,0.02-1.79,0.75-2.63c0.56-0.64,0.48-1.86,0.63-2.84c0.18-1.1,0.55-2.25,0.39-3.31c-0.18-1.16-0.37-2.22,0.5-3.1
		c0.69-0.7-1.05-1.29,0-1.92c-0.45-1.91,1.05-3.42,1.03-5.3c-0.02-1.88,0.41-3.77,0.74-5.65c0.1-0.59,0.54-1.12,0.75-1.7
		c0.18-0.51,0.38-1.08,0.32-1.59c-0.11-0.94-0.63-1.87,0.2-2.72c-1.33-1.16,0.58-1.56,0.6-2.49c0.04-1.78,0.38-3.55,0.68-5.32
		c0.19-1.15-0.06-2.47,1.11-3.29c-0.61-1.02,0.28-1.85,0.38-2.77c0.14-1.22,0.28-2.45,0.51-3.65c0.2-1.05,0.64-2.06,0.78-3.11
		c0.15-1.09-0.35-2.49,0.16-3.26c1.14-1.7,0.97-3.56,1.29-5.35c0.4-2.2,0.65-4.43,0.92-6.65c0.29-2.36,1.08-4.54,2.15-6.64
		c0.14-0.28,0.25-0.63,0.23-0.93c-0.13-1.82,0.84-3.33,1.4-4.94c0.43-1.2,1.1-2.31,1.14-3.64c0.04-1.31,1.45-2.2,1.16-3.62
		c1.41-2.12,1-5,2.86-6.95c0.19-0.2,0.2-0.61,0.24-0.93c0.38-3,1.23-5.85,2.5-8.59c0.27-0.58,0.2-1.32,0.3-1.98
		c0.17-1.17,0.37-2.25,1.06-3.33c0.78-1.23,0.95-2.82,1.41-4.22c1.05-3.16,1.4-6.64,3.64-9.34c0.52-0.62-0.92-1.2,0.06-1.91
		c0.42-0.31,0.64-1.13,0.65-1.73c0.02-1.47,0.51-2.81,1.3-3.92c0.82-1.15,0.85-2.4,1.14-3.65c0.38-1.67,0.61-3.45,1.4-4.92
		c1.29-2.43,1.11-5.41,3-7.58c-0.02-3.44,2.63-6.13,2.7-9.57c0.01-0.55,0.61-1.07,0.85-1.63c0.95-2.24,1.45-4.63,2.22-6.94
		c1.25-3.71,1.88-7.62,3.61-11.19c0.28-0.57,0.15-1.33,0.31-1.98c0.25-1.02,0.23-2.02,0.93-3.05c0.72-1.07,0.76-2.65-0.44-3.94
		c-1.58-1.7-1.56-4.07-2-6.18c-0.24-1.16-0.66-2.18-1.01-3.27c-0.67-2.08-1.94-4.1-2.16-6.14c-0.38-3.47-1.32-7.28,1.69-10.34
		c0.54-0.55,0.79-1.47,1-2.27c0.35-1.39,1.64-2.07,2.21-3.4c0.96-2.25,2.53-4.25,3.89-6.32c0.35-0.52,0.87-0.95,1.36-1.36
		c0.82-0.69,1.75-0.57,2.23,0.27c0.62,1.09,1.59,0.99,2.54,1.23c3.8,0.97,7.71,1.5,11.26,3.42c1.1,0.6,2.6,0.47,3.92,0.66
		c0.66,0.1,1.44,0.44,1.97,0.22c0.89-0.38,0.92,1.36,1.9,0.58c0.21-0.17,1.01,0.37,1.52,0.62c2.3,1.12,4.8,1.65,7.24,2.34
		c0.87,0.25,2.12,1.06,2.5,0.75c1.33-1.1,1.62,0.74,2.57,0.66c0.93-0.07,1.79,0.52,2.66,0.87c1.65,0.66,3.51,0.76,5.27,1.42
		c2.4,0.91,5.27,0.77,7.5,1.93c2.27,1.18,4.98,0.42,7,2.14c0.36,0.3,1.09,0.13,1.63,0.27c1.12,0.29,2.51-0.19,3.3,1.11
		c0.04,0.06,0.21,0.05,0.32,0.05c1.16-0.06,2.31-0.17,3.47-0.19c1.08-0.01,2.16,0.09,3.23,0.1c0.41,0,0.87-0.28,1.22-0.16
		c1.34,0.47,2.62,0.88,4.12,0.57c1.45-0.3,2.98,1.08,4.46-0.11c2.38,1.76,5.29,1.15,7.94,1.71c1.32,0.28,2.75,0.94,4.14-0.04
		c0.2-0.14,0.75-0.06,0.96,0.13c1.85,1.6,4.19,1.04,6.3,1.48c2.07,0.44,4.22,0.49,6.29,0.95c0.95,0.21,2.07-1.46,2.8,0.29
		c0.93-0.09,1.86-0.27,2.78-0.24c1.11,0.04,2.21,0.28,3.32,0.43c1,0.14,1.99,0.28,2.99,0.4c0.84,0.1,1.64,0.34,2.5-0.21
		c0.18-0.12,1.05,0.88,1.63,1.33c0.16,0.12,0.43,0.24,0.59,0.19c3.12-0.97,6.08,0.38,9.11,0.62c3.11,0.25,6.2,0.8,9.3,1.23
		c2.44,0.34,2.5,0.47,2.43,2.85c-0.02,0.61,0.32,1.23,0.3,1.83c-0.06,1.49,0.4,2.91,0.28,4.45c-0.13,1.56,0.11,3.18-0.01,4.8
		c-0.11,1.42,0.45,2.88,0.5,4.33c0.04,1.31-0.13,2.64-0.37,3.94c-0.13,0.69-0.7,1.29-0.88,1.97c-0.23,0.86-0.5,1.82-0.32,2.64
		c0.19,0.87-0.69,1.02-0.71,1.86c-0.04,1.97-0.61,3.94-1.11,5.87c-0.37,1.43-0.79,2.96-1.42,4.2c-0.58,1.15-0.72,2.25-0.92,3.39
		c-0.3,1.7-0.45,3.37-1.67,4.79c-0.5,0.59-0.7,1.63-0.65,2.45c0.08,1.55,0.29,3.13,0.75,4.6c0.19,0.62,0.54,1.16,0.35,1.83
		c-0.45,1.62,0.1,3.15,0.36,4.71c0.26,1.56,0.45,3.09,0.48,4.7c0.05,2.82,0.09,5.67,0.59,8.47c0.04,0.2,0.1,0.41,0.1,0.61
		c-0.11,2.49-0.23,4.97-0.33,7.46c-0.04,0.87-0.04,1.74-0.06,2.6c-0.01,0.99-0.01,1.98-0.04,2.98c-0.02,0.95-0.52,1.87,0.24,2.85
		c0.29,0.38-0.02,1.31-0.23,1.94c-0.67,2.04,0.25,4.09-0.08,6.12c1.45,1.15-1.37,2.45,0.12,3.6c-0.42,1.2,0.22,2.72-1.14,3.66
		c-0.19,0.13-0.25,0.68-0.15,0.95c0.99,2.67-0.29,5.2-0.43,7.8c-0.1,1.78-0.76,3.57-0.61,5.31c0.14,1.62-0.8,2.92-0.7,4.44
		c0.06,0.94-0.68,1.94,0.19,2.85c0.11,0.11,0.08,0.43,0.01,0.62c-0.32,0.88-1.2,2.02-0.92,2.57c0.59,1.16,0.2,2.14,0.13,3.19
		c-0.07,1-0.32,1.99-0.38,2.99c-0.06,1.16-0.64,2.24,0.1,3.52c0.44,0.76-0.62,1.83-0.7,2.86c-0.05,0.73-0.73,1.93-0.53,2.07
		c1.37,0.97-0.45,1.76-0.02,2.76c0.34,0.8,0.1,1.96-0.15,2.89c-0.51,1.88-0.02,3.79-0.34,5.68c-0.36,2.16-0.39,4.37-0.63,6.55
		c-0.24,2.11-0.93,4.25-0.74,6.31c0.16,1.77,0.24,3.27-0.73,4.8c-0.24,0.38-0.03,1.04-0.01,1.57c0.03,0.74,0.23,1.5,0.1,2.2
		c-0.24,1.22-1.23,2.58-0.92,3.56c0.46,1.42,0.05,2.61-0.09,3.87c-0.44,3.89-1.06,7.76-1.53,11.64c-0.13,1.04-0.76,2.13,0.13,3.18
		c0.12,0.14-0.03,0.73-0.21,0.84c-0.85,0.51-0.46,1.43-0.79,2.07c-0.7,1.35,1.21,2.89-0.14,3.96c-1.27,1,0.47,2.46-0.82,3.26
		c0.78,5.26-1.12,10.28-1.44,15.44c-0.06,0.89-0.06,1.85-0.4,2.64c-0.36,0.82,0.76,1.47-0.01,2.27c-0.71,0.73-0.38,1.53,0.05,2.37
		c0.12,0.22-0.62,0.8-0.77,1.27c-0.2,0.63-0.06,1.39-0.34,1.97c-0.31,0.64,0.76,0.9,0.2,1.68c-0.29,0.42-0.24,1.3-0.65,1.89
		c0.96,0.66-0.28,1.48,0.18,2.33c0.25,0.46-0.58,1.44-0.77,2.22c-0.22,0.86-0.33,1.76-0.37,2.65c-0.04,1.05-0.74,2.11,0.17,3.18
		c0.19,0.23-0.08,1.15-0.41,1.46c-0.65,0.59-0.62,1-0.16,1.67c0.2,0.29-0.08,0.87,0.05,1.25c0.32,1.02-1.49,1.26-0.77,2.58
		c0.36,0.66-0.56,1.51-1.21,2.15c-0.66,0.64-1.05,1.57-1.71,2.21c-0.67,0.65-1.58,1.03-2.3,1.64c-1.54,1.3-3.03,2.66-4.52,4.02
		c-0.3,0.28-0.48,0.71-0.79,0.96c-4.82,3.89-9.57,7.88-14.52,11.6c-3.19,2.39-6.68,4.38-10.07,6.51c-0.41,0.26-1,0.39-1.49,0.36
		C291.4,406.82,290.3,406.61,288.95,406.43z M343.65,135.16c-0.18,2.64-1.65,5.1-2.28,7.75c-0.51,2.13-1.71,3.85-2.39,5.85
		c-0.65,1.9-2.2,3.47-3.3,5.23c-0.67,1.07-1.47,1.66-2.82,1.81c-1.17,0.13-2.28,0.26-3.48,0.17c-3.48-0.28-6.86-1.5-10.45-0.85
		c-0.92,0.17-2.19,0.2-3.09-0.78c-0.3-0.33-1.09-0.53-1.49-0.37c-2.46,0.97-4.93,0.15-7.1-0.52c-2.41-0.74-4.59-1.45-7.15-0.89
		c-0.83,0.18-1.87-0.36-2.75-0.73c-0.92-0.39-1.75-0.77-2.74-0.21c-0.25,0.14-0.8,0.23-0.89,0.11c-1.03-1.44-2.65-0.85-3.99-1.17
		c-1.3-0.31-2.65-0.39-3.98-0.57c-1.33-0.18-2.66-0.36-3.98-0.54c-1.22-0.17-2.45-0.27-3.65-0.52c-1.03-0.21-2.02-0.6-3.03-0.91
		c-1.46,1.43-2.23-0.69-3.48-0.67c-3.15,0.04-6.21-1.54-9.45-0.6c-0.48,0.14-1.33,0.05-1.58-0.27c-0.92-1.17-2.25-0.69-3.35-1.05
		c-1.1-0.36-2.18-0.8-3.29-1.11c-0.92-0.25-1.81-0.33-2.68-0.96c-0.57-0.41-1.8,0.12-2.74,0.19c-0.33,0.02-0.85,0.04-0.96-0.14
		c-0.73-1.19-1.98-0.75-2.98-1.07c-1-0.32-1.95-0.85-2.96-1.04c-2.08-0.39-4.5-0.06-6.22-1.03c-1.95-1.1-4.25-0.47-6.05-1.94
		c-0.74-0.6-2.16-0.33-3.26-0.54c-1.05-0.2-2.08-0.7-3.12-0.73c-0.97-0.03-1.69-0.65-2.6-0.73c-1.11-0.1-2.21-0.31-3.32-0.44
		c-3.53-0.42-6.77-1.69-9.92-3.26c-0.44-0.22-1.19-0.37-1.51-0.14c-0.33,0.23-0.57,1.21-0.37,1.44c0.76,0.84,0.37,1.7,0.23,2.53
		c-0.34,2.02-0.76,4-1.32,5.99c-0.87,3.08-1.83,6.14-2.66,9.23c-0.8,2.99-1.65,5.96-2.68,8.88c-0.24,0.68-0.72,1.28-0.91,1.97
		c-0.23,0.86-0.04,1.89-0.43,2.63c-1.13,2.09-1.97,4.22-2.24,6.6c-0.09,0.79-0.61,1.54-0.95,2.3c-0.3,0.66-0.54,1.37-0.96,1.95
		c-0.54,0.75,0.6,1.28-0.03,2.27c-1.1,1.73-1.7,3.81-2.38,5.78c-0.93,2.71-1.35,5.58-2.49,8.24c-0.33,0.76-0.74,1.51-0.97,2.3
		c-0.24,0.85,0.01,2.07-0.5,2.56c-1.29,1.25-0.49,3.14-1.76,4.41c-0.65,0.66-0.79,2.01-0.81,3.06c-0.01,0.88-0.48,1.51-0.69,2.27
		c-0.28,1.01-0.77,1.96-1.04,2.97c-0.24,0.9-1.01,1.74-0.4,2.77c-1.89,2.16-1.54,5.23-3.06,7.54c-0.13,3.29-1.89,6.12-2.63,9.24
		c-0.19,0.8-0.69,1.52-0.95,2.3c-0.27,0.8,0.09,1.84-0.95,2.32c-0.53,2.95-2.29,5.52-2.6,8.54c-0.06,0.59-0.51,1.14-0.71,1.73
		c-0.51,1.5-1.14,2.99-1.44,4.53c-1,5.18-1.03,10.52-2.78,15.6c-1.1,3.19-0.19,6.85-2.06,9.94c-0.1,0.17,0.24,0.56,0.27,0.86
		c0.06,0.53-0.11,1.12,0.07,1.58c0.39,1.01-1.81,1.09-0.73,2.23c1.02,1.07-0.5,1.41-0.6,2.18c-0.42,3.25-0.7,6.51-1.91,9.63
		c-0.47,1.22-0.41,2.64-0.59,3.97c-0.18,1.33-0.36,2.66-0.54,3.99c-0.17,1.22-0.33,2.44-0.5,3.66c-0.18,1.33-0.06,2.81-0.63,3.95
		c-0.6,1.21-0.14,2.34-0.39,3.48c-0.21,0.95-0.2,2.04-0.68,2.83c-0.53,0.88,0.32,1.47,0.05,2.29c-0.24,0.73-1.19,1.38-0.55,2.33
		c-1.28,0.56,0.53,1.18-0.06,1.89c-0.51,0.62-0.7,1.5-1.02,2.26c-0.04,0.1-0.03,0.22-0.05,0.33c-0.17,1.28-0.15,2.51,0.04,3.82
		c0.17,1.12-0.72,2.38-1.03,3.61c-0.12,0.48,0.02,1.05,0.14,1.55c0.28,1.21,0.34,2.41-0.59,3.33c-0.51,0.5,0.75,0.97-0.2,1.51
		c-0.43,0.24-0.71,1.65-0.41,2.08c0.71,1.03,0.26,1.94,0.14,2.87c-0.19,1.4-0.65,2.75-0.84,4.15c-0.19,1.41-0.16,2.85-0.29,4.28
		c-0.09,1-0.26,2-0.4,2.99c-0.12,0.89,0.06,2.04-0.43,2.6c-0.8,0.91-0.12,1.69-0.26,2.5c-0.17,0.99-0.34,1.99-0.4,2.99
		c-0.12,2.04-1.01,4.03-0.23,6.15c0.23,0.63,0.08,1.81-0.37,2.22c-1.38,1.28,0.02,1.43,0.62,1.74c0.93,0.47,1.93,0.85,2.94,1.08
		c1.19,0.28,2.43,0.37,3.65,0.52c3.12,0.39,6.02,1.63,9.07,2.25c0.73,0.15,1.9-0.33,2.23,0.04c1.07,1.23,2.66,0.47,3.64,1.17
		c1.27,0.9,2.62,0.92,3.99,1.15c0.44,0.08,0.96,0,1.32,0.2c2.88,1.64,6.24,1.84,9.24,3.18c1.71,0.76,3.75,0.71,5.61,1.44
		c1.76,0.69,3.83,0.46,5.6,1.48c0.72,0.41,1.74,0.29,2.63,0.41c1,0.14,1.99,0.26,2.99,0.41c0.83,0.12,1.76,0.04,2.28,0.94
		c0.99-0.97,1.59,0.38,2.44,0.47c3.02,0.33,6.06,0.49,8.97,1.73c1.73,0.73,3.74,0.85,5.61,1.4c3,0.89,6.2,0.95,9.25,1.98
		c2.75,0.93,5.86,0.45,8.6,1.87c0.93,0.49,2.23,0.21,3.28,0.55c1.1,0.36,2.06,1.22,3.3,1.07c0.98-0.12,1.7,1.35,2.77,0.4
		c2.07,1.84,4.98,0.8,7.3,2.23c1.39,0.86,3.47,0.63,5.24,0.83c1.83,0.21,3.37,1.3,5.27,1.49c2.67,0.28,5.53,0.03,7.94,1.67
		c4.43,0.15,8.58,1.79,12.91,2.46c0.84,0.13,1.43-0.1,2.11-0.57c1.13-0.77,2.29-1.63,3.57-2c1.59-0.46,2.45-1.89,3.85-2.43
		c1.54-0.61,2.81-1.42,3.69-2.84c0.16-0.27,0.49-0.54,0.79-0.6c1.1-0.22,1.56-1.23,2.35-1.82c0.8-0.6,1.85-1.08,2.28-1.89
		c0.59-1.1,1.84-0.85,2.5-1.71c2.04-2.64,5.23-3.91,7.53-6.29c1.38-1.43,3.15-2.49,4.77-3.69c1.04-0.77,1.91-1.42,0.95-2.97
		c-0.3-0.48,0.35-1.57,0.58-2.37c0.14-0.51,0.61-1.24,0.43-1.47c-0.94-1.18-0.28-2.37-0.13-3.51c1.49-11.2,3.07-22.38,4.53-33.58
		c0.32-2.46,0.24-4.97,0.38-7.46c0.08-1.49,0.94-2.76,0.72-4.45c-0.25-1.93,0.42-3.97,0.7-5.97c0.27-1.99,0.43-4.01,0.85-5.98
		c0.38-1.8-0.33-3.68,0.65-5.47c0.5-0.92,0.36-2.18,0.51-3.29c0.14-1,0.34-1.99,0.39-2.99c0.05-1.06,0.48-2.05,0.11-3.23
		c-0.25-0.8,0.59-1.88,0.7-2.87c0.15-1.29-0.25-2.59-0.13-3.92c0.56-5.81,2.13-11.51,1.78-17.43c-0.15-2.46,0.44-4.92,0.42-7.46
		c-0.05-5.04,1.88-9.97,1.25-15.1c0.88-1.27,0.57-2.69,0.61-4.1c0.03-0.91-0.1-1.95,0.88-2.72c0.39-0.3,0.58-1.44,0.32-1.86
		c-0.76-1.21-0.27-2.36-0.13-3.51c0.64-4.99,1.36-9.97,2.02-14.96c0.25-1.91,0.91-3.85-0.37-5.68c-0.15-0.22-0.1-0.62-0.07-0.93
		c0.25-2.26,0.78-4.48,0.3-6.81c-0.21-1.03,0.46-2.23,0.33-3.3c-0.12-0.98,0.03-1.95-0.14-2.94c-0.18-1.05,0.32-2.2,0.36-3.31
		c0.04-1.15-0.25-2.33-0.14-3.47c0.1-1-0.16-1.88-0.28-2.82c-0.14-1.03,0.29-2.03-0.22-3.17c-0.44-0.99-0.39-2.3-0.25-3.43
		c0.53-4.06-0.46-7.97-0.89-11.95c-0.33-3.05-0.54-6.14-0.29-9.22c0.04-0.48,0.38-1.33,0.58-1.33c0.7,0,1.01-0.15,1.06-0.87
		c0.2-2.71,0.89-5.27,2.38-7.58c0-3.56,1.78-6.76,2.12-10.27c0.13-1.35-0.04-2.82,1.12-4.02c0.36-0.37,0.04-1.43,0.01-2.17
		c-0.02-0.42-0.3-1.03-0.12-1.21c0.93-0.93,0.42-1.91,0.05-2.72c-0.37-0.82-0.37-1.41,0.15-2.09c0.13-0.17,0.1-0.46,0.19-0.68
		c0.33-0.8-1.4-1.53-0.08-2.37c-0.93-0.98-0.19-2.07-0.22-3.12c-0.03-1.22-0.83-2.09-1.97-2.3c-1.86-0.35-3.84-0.18-5.55-1.2
		c-2,0.68-3.9-0.23-5.85-0.37c-1.56-0.11-3.1-0.4-4.65-0.61c-1.66-0.23-3.32-0.45-4.98-0.68c-1.55-0.21-3.1-0.45-4.65-0.63
		c-1.6-0.18-3.2-0.78-4.79,0.02c-1.15-1.79-2.74-0.27-4.1-0.53c-1.86-0.36-3.75-0.66-5.64-0.74c-0.83-0.03-1.28-1.11-2.17-0.6
		c-1.12,0.63-1.72-0.43-2.56-0.75c-0.61-0.23-1.41-0.46-1.97-0.26c-2.45,0.88-4.77-0.14-7.13-0.41c-0.8-0.09-1.66-0.18-2.43-0.34
		c-4.88-1.01-9.87-0.55-14.77-1.22c-1.34-0.18-2.77-1.09-4.15,0.04c-0.12,0.1-0.55-0.21-0.85-0.32c-1.57-0.59-3.14-1.18-4.71-1.76
		c-1.22,1.19-2.17-0.12-3.07-0.5c-1.09-0.45-2.13-0.89-3.31-1.08c-1.58-0.25-3.14-0.28-4.67-1.18c-1.3-0.77-3.06-0.57-4.61-1.28
		c-1.49-0.68-3.27-0.94-4.91-1.38c-2.6-0.7-5.14-1.67-7.9-1.94c-1.73-0.17-3.66-0.71-5.14-1.55c-2.05-1.17-4.14-1.75-6.39-1.93
		c-1.97-0.16-3.55-1.7-5.61-1.46c-2.3-1.5-4.93-1.88-7.54-2.51c-1.18-0.28-2.39-0.79-3.64-1.06c-0.86-0.19-0.95,0.3-1.36,0.89
		c-1.78,2.55-2.98,5.44-4.77,7.99c-0.97,1.38-1.17,3.31-2.23,4.79c-0.29,0.4-0.4,1.17-0.22,1.63c0.99,2.62,0.7,5.62,2.36,8.04
		c0.23,0.33,0.43,0.8,0.38,1.16c-0.21,1.53,0.79,2.77,0.96,4.27c0.21,1.88,2.88,0.79,3.85,1.69c1.33,1.22,3.04,0.66,4.43,1.71
		c1.02,0.77,2.78,0.83,4.21,1.32c1.55,0.54,3.3,0.52,4.95,0.75c0.89,0.12,1.81,0.13,2.64,0.4c0.71,0.23,1.21,1.44,2.14,0.35
		c0.55,0.81,1.44,0.77,2.26,0.89c0.88,0.13,1.77,0.24,2.66,0.36c0.11,0.02,0.28-0.01,0.32,0.05c1.01,1.43,2.77,0.58,3.93,1.26
		c1.38,0.81,2.83,1.21,4.31,1.16c1.89-0.07,3.46,1.73,5.43,0.79c1.48,1.54,3.53,0.89,5.28,1.39c0.43,0.12,1.05-0.03,1.3,0.22
		c1.47,1.47,3.7,0.79,5.32,1.98c0.71,0.52,1.95,0.31,2.94,0.48c0.85,0.15,2.06,0.1,2.46,0.62c1.01,1.34,1.85-0.01,2.63-0.07
		c0.99-0.08,1.34,1.36,2.52,0.63c0.59-0.37,1.71,0.09,2.58,0.2c0.89,0.11,2.09-0.07,2.58,0.43c0.83,0.84,1.76-0.25,2.12,0.25
		c0.82,1.16,1.99,0.87,3.01,1.02c5.08,0.75,10.18,1.38,15.26,2.13c1.25,0.18,2.56,0.04,3.68,1.08c0.52,0.48,1.92,0.63,2.52,0.26
		c1.06-0.63,1.93-0.16,2.87-0.11c1,0.05,2.36-0.1,2.91,0.47c0.95,0.98,1.74-0.25,2.53,0.24c0.26,0.16,0.82-0.01,0.96,0.17
		c1.04,1.42,2.76,0.6,3.94,1.26c0.76,0.43,1.25-1.22,1.96,0c0.16,0.28,1.16,0.02,1.75,0.13c0.63,0.12,1.24,0.41,1.87,0.55
		c0.65,0.14,1.42,0.45,1.97,0.24c2.22-0.83,4.32,0.12,6.47,0.26c1.22,0.08,2.43,0.38,3.65,0.47c1.67,0.12,3.06-0.28,3.92-2
		c1.02-2.06,1.97-4.12,2.83-6.26c1.35-3.36,2.83-6.64,3.28-10.28c0.08-0.6,0.42-1.18,0.66-1.76c0.35-0.89,0.84-1.38,1.93-1.02
		c1.14,0.38,1.64,0.87,1.54,2.04C343.93,133.43,343.79,134.2,343.65,135.16z"/>
	<path class="st0" d="M343.65,135.16c0.13-0.96,0.27-1.73,0.33-2.51c0.09-1.17-0.4-1.66-1.54-2.04c-1.1-0.36-1.58,0.13-1.93,1.02
		c-0.23,0.58-0.58,1.16-0.66,1.76c-0.46,3.64-1.93,6.92-3.28,10.28c-0.86,2.14-1.81,4.2-2.83,6.26c-0.86,1.72-2.25,2.12-3.92,2
		c-1.22-0.08-2.43-0.39-3.65-0.47c-2.15-0.14-4.25-1.1-6.47-0.26c-0.55,0.21-1.32-0.1-1.97-0.24c-0.63-0.14-1.23-0.43-1.87-0.55
		c-0.59-0.11-1.59,0.15-1.75-0.13c-0.7-1.22-1.2,0.42-1.96,0c-1.18-0.66-2.9,0.16-3.94-1.26c-0.14-0.19-0.7-0.01-0.96-0.17
		c-0.79-0.49-1.58,0.74-2.53-0.24c-0.55-0.57-1.91-0.41-2.91-0.47c-0.94-0.05-1.82-0.52-2.87,0.11c-0.61,0.36-2,0.22-2.52-0.26
		c-1.12-1.04-2.43-0.9-3.68-1.08c-5.08-0.75-10.18-1.38-15.26-2.13c-1.02-0.15-2.19,0.14-3.01-1.02c-0.36-0.51-1.3,0.59-2.12-0.25
		c-0.5-0.5-1.7-0.32-2.58-0.43c-0.88-0.11-1.99-0.57-2.58-0.2c-1.18,0.73-1.53-0.71-2.52-0.63c-0.78,0.06-1.62,1.42-2.63,0.07
		c-0.4-0.53-1.61-0.47-2.46-0.62c-0.99-0.17-2.22,0.04-2.94-0.48c-1.62-1.18-3.85-0.5-5.32-1.98c-0.25-0.25-0.87-0.1-1.3-0.22
		c-1.75-0.5-3.8,0.15-5.28-1.39c-1.97,0.93-3.54-0.86-5.43-0.79c-1.48,0.05-2.93-0.35-4.31-1.16c-1.16-0.68-2.92,0.16-3.93-1.26
		c-0.04-0.06-0.21-0.04-0.32-0.05c-0.89-0.12-1.77-0.24-2.66-0.36c-0.82-0.12-1.71-0.09-2.26-0.89c-0.93,1.09-1.43-0.12-2.14-0.35
		c-0.84-0.27-1.76-0.28-2.64-0.4c-1.66-0.23-3.4-0.21-4.95-0.75c-1.42-0.49-3.19-0.55-4.21-1.32c-1.39-1.05-3.1-0.5-4.43-1.71
		c-0.97-0.89-3.64,0.19-3.85-1.69c-0.17-1.5-1.16-2.74-0.96-4.27c0.05-0.37-0.16-0.84-0.38-1.16c-1.66-2.42-1.37-5.42-2.36-8.04
		c-0.17-0.46-0.06-1.22,0.22-1.63c1.06-1.48,1.26-3.41,2.23-4.79c1.8-2.56,3-5.44,4.77-7.99c0.41-0.58,0.5-1.08,1.36-0.89
		c1.25,0.27,2.47,0.78,3.64,1.06c2.61,0.63,5.24,1.02,7.54,2.51c2.05-0.23,3.64,1.3,5.61,1.46c2.25,0.18,4.33,0.76,6.39,1.93
		c1.49,0.84,3.41,1.38,5.14,1.55c2.76,0.27,5.3,1.25,7.9,1.94c1.65,0.44,3.43,0.71,4.91,1.38c1.55,0.71,3.31,0.51,4.61,1.28
		c1.53,0.9,3.09,0.94,4.67,1.18c1.18,0.19,2.22,0.63,3.31,1.08c0.9,0.38,1.86,1.69,3.07,0.5c1.57,0.59,3.14,1.17,4.71,1.76
		c0.29,0.11,0.73,0.41,0.85,0.32c1.38-1.13,2.81-0.22,4.15-0.04c4.9,0.67,9.89,0.21,14.77,1.22c0.77,0.16,1.62,0.25,2.43,0.34
		c2.35,0.26,4.67,1.28,7.13,0.41c0.56-0.2,1.36,0.03,1.97,0.26c0.84,0.32,1.44,1.38,2.56,0.75c0.9-0.5,1.34,0.57,2.17,0.6
		c1.89,0.07,3.78,0.38,5.64,0.74c1.36,0.26,2.96-1.26,4.1,0.53c1.59-0.8,3.2-0.2,4.79-0.02c1.55,0.18,3.1,0.41,4.65,0.63
		c1.66,0.23,3.32,0.45,4.98,0.68c1.55,0.21,3.09,0.51,4.65,0.61c1.95,0.13,3.85,1.05,5.85,0.37c1.71,1.03,3.69,0.86,5.55,1.2
		c1.14,0.21,1.94,1.09,1.97,2.3c0.02,1.04-0.72,2.14,0.22,3.12c-1.32,0.83,0.41,1.56,0.08,2.37c-0.09,0.22-0.06,0.51-0.19,0.68
		c-0.53,0.68-0.52,1.27-0.15,2.09c0.36,0.81,0.88,1.79-0.05,2.72c-0.18,0.18,0.1,0.79,0.12,1.21c0.04,0.74,0.36,1.8-0.01,2.17
		c-1.16,1.19-0.99,2.66-1.12,4.02c-0.34,3.51-2.12,6.7-2.12,10.27c-1.48,2.31-2.18,4.87-2.38,7.58c-0.05,0.72-0.37,0.87-1.06,0.87
		c-0.2,0-0.54,0.85-0.58,1.33c-0.25,3.08-0.05,6.17,0.29,9.22c0.44,3.98,1.42,7.89,0.89,11.95c-0.15,1.13-0.19,2.44,0.25,3.43
		c0.51,1.14,0.08,2.14,0.22,3.17c0.13,0.94,0.38,1.82,0.28,2.82c-0.11,1.14,0.18,2.31,0.14,3.47c-0.04,1.11-0.53,2.26-0.36,3.31
		c0.17,0.99,0.02,1.96,0.14,2.94c0.13,1.07-0.54,2.27-0.33,3.3c0.47,2.33-0.06,4.55-0.3,6.81c-0.03,0.31-0.09,0.71,0.07,0.93
		c1.28,1.83,0.62,3.77,0.37,5.68c-0.66,4.99-1.38,9.97-2.02,14.96c-0.15,1.15-0.63,2.29,0.13,3.51c0.26,0.42,0.07,1.56-0.32,1.86
		c-0.98,0.77-0.86,1.81-0.88,2.72c-0.04,1.41,0.27,2.83-0.61,4.1c0.63,5.14-1.3,10.07-1.25,15.1c0.03,2.54-0.57,5-0.42,7.46
		c0.35,5.93-1.22,11.62-1.78,17.43c-0.13,1.33,0.27,2.62,0.13,3.92c-0.11,0.98-0.95,2.07-0.7,2.87c0.37,1.19-0.06,2.17-0.11,3.23
		c-0.05,1-0.25,2-0.39,2.99c-0.15,1.11-0.01,2.37-0.51,3.29c-0.98,1.8-0.26,3.67-0.65,5.47c-0.42,1.96-0.58,3.98-0.85,5.98
		c-0.27,1.99-0.95,4.04-0.7,5.97c0.22,1.69-0.64,2.96-0.72,4.45c-0.14,2.49-0.06,5-0.38,7.46c-1.46,11.2-3.04,22.38-4.53,33.58
		c-0.15,1.14-0.8,2.32,0.13,3.51c0.18,0.23-0.28,0.97-0.43,1.47c-0.23,0.8-0.88,1.89-0.58,2.37c0.96,1.55,0.1,2.2-0.95,2.97
		c-1.62,1.19-3.39,2.26-4.77,3.69c-2.3,2.38-5.5,3.65-7.53,6.29c-0.66,0.86-1.91,0.6-2.5,1.71c-0.43,0.81-1.48,1.29-2.28,1.89
		c-0.79,0.59-1.25,1.6-2.35,1.82c-0.3,0.06-0.63,0.33-0.79,0.6c-0.88,1.42-2.14,2.23-3.69,2.84c-1.4,0.55-2.26,1.98-3.85,2.43
		c-1.28,0.37-2.44,1.23-3.57,2c-0.68,0.46-1.27,0.7-2.11,0.57c-4.33-0.67-8.48-2.31-12.91-2.46c-2.41-1.64-5.27-1.4-7.94-1.67
		c-1.9-0.2-3.43-1.29-5.27-1.49c-1.78-0.2-3.85,0.03-5.24-0.83c-2.32-1.43-5.24-0.39-7.3-2.23c-1.07,0.95-1.79-0.52-2.77-0.4
		c-1.24,0.15-2.2-0.71-3.3-1.07c-1.04-0.34-2.35-0.06-3.28-0.55c-2.74-1.42-5.84-0.94-8.6-1.87c-3.05-1.03-6.25-1.09-9.25-1.98
		c-1.88-0.56-3.88-0.67-5.61-1.4c-2.91-1.23-5.96-1.39-8.97-1.73c-0.85-0.09-1.45-1.44-2.44-0.47c-0.52-0.9-1.44-0.81-2.28-0.94
		c-0.99-0.15-1.99-0.27-2.99-0.41c-0.89-0.12-1.91,0-2.63-0.41c-1.78-1.02-3.84-0.79-5.6-1.48c-1.86-0.73-3.9-0.68-5.61-1.44
		c-3-1.34-6.37-1.54-9.24-3.18c-0.36-0.21-0.88-0.13-1.32-0.2c-1.37-0.23-2.73-0.25-3.99-1.15c-0.99-0.7-2.58,0.06-3.64-1.17
		c-0.32-0.37-1.49,0.11-2.23-0.04c-3.05-0.62-5.96-1.86-9.07-2.25c-1.22-0.15-2.45-0.25-3.65-0.52c-1.01-0.24-2.02-0.61-2.94-1.08
		c-0.6-0.3-2-0.46-0.62-1.74c0.45-0.41,0.6-1.59,0.37-2.22c-0.78-2.12,0.11-4.11,0.23-6.15c0.06-1,0.24-2,0.4-2.99
		c0.14-0.81-0.54-1.59,0.26-2.5c0.49-0.56,0.31-1.71,0.43-2.6c0.14-1,0.31-1.99,0.4-2.99c0.12-1.42,0.09-2.87,0.29-4.28
		c0.19-1.4,0.65-2.75,0.84-4.15c0.13-0.92,0.57-1.84-0.14-2.87c-0.3-0.43-0.01-1.84,0.41-2.08c0.95-0.54-0.31-1.01,0.2-1.51
		c0.93-0.92,0.87-2.12,0.59-3.33c-0.12-0.51-0.26-1.07-0.14-1.55c0.31-1.23,1.19-2.49,1.03-3.61c-0.2-1.32-0.21-2.54-0.04-3.82
		c0.01-0.11,0.01-0.23,0.05-0.33c0.32-0.77,0.51-1.65,1.02-2.26c0.59-0.72-1.22-1.33,0.06-1.89c-0.65-0.95,0.31-1.6,0.55-2.33
		c0.27-0.82-0.59-1.42-0.05-2.29c0.48-0.79,0.48-1.87,0.68-2.83c0.25-1.13-0.21-2.26,0.39-3.48c0.56-1.14,0.44-2.62,0.63-3.95
		c0.17-1.22,0.33-2.44,0.5-3.66c0.18-1.33,0.36-2.66,0.54-3.99c0.18-1.33,0.12-2.75,0.59-3.97c1.21-3.11,1.49-6.38,1.91-9.63
		c0.1-0.77,1.62-1.12,0.6-2.18c-1.08-1.14,1.12-1.22,0.73-2.23c-0.18-0.47-0.01-1.06-0.07-1.58c-0.03-0.3-0.37-0.7-0.27-0.86
		c1.86-3.09,0.96-6.75,2.06-9.94c1.75-5.08,1.78-10.42,2.78-15.6c0.3-1.55,0.93-3.03,1.44-4.53c0.2-0.59,0.65-1.13,0.71-1.73
		c0.31-3.03,2.07-5.6,2.6-8.54c1.04-0.48,0.68-1.52,0.95-2.32c0.27-0.79,0.76-1.51,0.95-2.3c0.75-3.12,2.51-5.94,2.63-9.24
		c1.52-2.31,1.16-5.39,3.06-7.54c-0.61-1.02,0.15-1.87,0.4-2.77c0.28-1.01,0.76-1.96,1.04-2.97c0.21-0.76,0.68-1.39,0.69-2.27
		c0.02-1.04,0.16-2.4,0.81-3.06c1.27-1.27,0.47-3.17,1.76-4.41c0.51-0.49,0.26-1.71,0.5-2.56c0.22-0.79,0.64-1.54,0.97-2.3
		c1.14-2.65,1.56-5.52,2.49-8.24c0.68-1.98,1.27-4.05,2.38-5.78c0.63-0.99-0.51-1.51,0.03-2.27c0.42-0.58,0.66-1.29,0.96-1.95
		c0.34-0.76,0.86-1.5,0.95-2.3c0.27-2.38,1.11-4.51,2.24-6.6c0.4-0.74,0.2-1.77,0.43-2.63c0.18-0.69,0.67-1.29,0.91-1.97
		c1.02-2.92,1.87-5.88,2.68-8.88c0.83-3.09,1.79-6.14,2.66-9.23c0.56-1.99,0.99-3.98,1.32-5.99c0.14-0.82,0.53-1.68-0.23-2.53
		c-0.2-0.22,0.05-1.2,0.37-1.44c0.32-0.23,1.07-0.08,1.51,0.14c3.15,1.58,6.4,2.84,9.92,3.26c1.11,0.13,2.21,0.34,3.32,0.44
		c0.91,0.08,1.63,0.7,2.6,0.73c1.05,0.03,2.07,0.53,3.12,0.73c1.09,0.21,2.52-0.06,3.26,0.54c1.8,1.47,4.1,0.84,6.05,1.94
		c1.72,0.97,4.14,0.65,6.22,1.03c1.02,0.19,1.97,0.72,2.96,1.04c1,0.32,2.25-0.12,2.98,1.07c0.11,0.18,0.64,0.17,0.96,0.14
		c0.94-0.07,2.16-0.6,2.74-0.19c0.88,0.62,1.76,0.71,2.68,0.96c1.11,0.3,2.19,0.74,3.29,1.11c1.1,0.36,2.43-0.12,3.35,1.05
		c0.25,0.32,1.1,0.41,1.58,0.27c3.24-0.94,6.3,0.64,9.45,0.6c1.25-0.01,2.02,2.1,3.48,0.67c1.01,0.31,2,0.69,3.03,0.91
		c1.2,0.25,2.43,0.35,3.65,0.52c1.33,0.18,2.66,0.36,3.98,0.54c1.33,0.18,2.68,0.26,3.98,0.57c1.33,0.32,2.95-0.28,3.99,1.17
		c0.09,0.12,0.64,0.03,0.89-0.11c0.98-0.56,1.82-0.18,2.74,0.21c0.88,0.37,1.92,0.91,2.75,0.73c2.55-0.57,4.73,0.14,7.15,0.89
		c2.17,0.67,4.64,1.49,7.1,0.52c0.4-0.16,1.19,0.05,1.49,0.37c0.89,0.98,2.16,0.95,3.09,0.78c3.59-0.65,6.97,0.57,10.45,0.85
		c1.19,0.1,2.31-0.04,3.48-0.17c1.36-0.15,2.15-0.74,2.82-1.81c1.1-1.75,2.65-3.33,3.3-5.23c0.68-2,1.88-3.72,2.39-5.85
		C342,140.26,343.48,137.8,343.65,135.16z M291.19,390.28c-0.02,0.75-0.3,1.69,0.02,1.98c0.57,0.52-0.19,1.68,1.05,1.77
		c1.01,0.07,1.7-0.17,2.04-1.16c0.35-0.99,0.83-1.95,1.06-2.96c0.69-3.08,0.34-6.38,1.96-9.27c0.07-4,1.75-7.69,2.26-11.6
		c0.53-4.14,2.27-8.04,2.35-12.26c0.01-0.6,1.28-0.99,0.28-1.75c1.45-1.27,0.81-3.1,1.26-4.64c0.48-1.64,0.98-3.28,1.35-4.95
		c0.85-3.85,0.8-7.81,2.16-11.64c1.07-3.03,0.81-6.47,2.04-9.59c0.56-1.41,0.46-3.08,0.7-4.63c0.12-0.75,0.09-1.7,0.54-2.17
		c0.82-0.86-0.62-1.57,0.06-2.26c1.3-1.31,0.96-3.06,1.29-4.62c0.14-0.65-0.04-1.53,0.32-1.96c1.28-1.49,0.81-3.36,1.33-4.98
		c0.56-1.74,1.11-3.45,1.43-5.28c0.49-2.89,0.08-5.98,1.78-8.63c0.08-0.13,0-0.44-0.11-0.59c-0.85-1.19-0.38-2.64,0.11-3.47
		c1.06-1.83,1.02-3.77,1.32-5.68c0.53-3.31,0.87-6.65,1.41-9.96c0.22-1.35-0.16-2.9,1.16-3.99c0.23-0.19,0.3-1,0.1-1.25
		c-1.3-1.59,0.86-3.09,0.06-4.63c1.11-0.57,0.85-1.69,1.03-2.63c0.16-0.88,0.58-1.9,0.3-2.63c-0.44-1.12,1.56-1.46,0.57-2.51
		c0.89-0.74-0.03-1.59,0.15-2.4c0.24-1.09,0.34-2.21,0.47-3.32c0.08-0.67,0.13-1.33,0.87-1.65c-0.48-0.52-0.51-1.1-0.41-1.79
		c0.59-4.09,1.02-8.22,1.73-12.29c0.69-3.99,0.75-8.05,2.16-11.98c1.04-2.92,0.89-6.22,2-9.25c0.74-2,0.29-4.32,1.54-6.29
		c0.44-0.69,0.25-1.75,0.43-2.62c0.17-0.83,0.6-1.64,0.64-2.47c0.04-0.85,0.5-1.5,0.66-2.27c0.18-0.87,0.21-1.78,0.39-2.65
		c0.38-1.9,0.21-3.88,1.37-5.66c0.66-1.01,0.15-2.5,1.14-3.66c0.4-0.46-0.15-1.78-0.36-2.69c-0.04-0.17-0.56-0.34-0.84-0.32
		c-0.36,0.03-0.84,0.16-1.02,0.41c-0.41,0.59-0.95,1.3-0.92,1.94c0.1,1.64-1.16,2.77-1.33,4.29c-0.18,1.6-0.55,3.12-1.21,4.66
		c-0.76,1.74-0.51,3.76-1.41,5.63c-0.81,1.67-0.97,3.72-1.43,5.59c-0.85,3.44-1.67,6.86-2.81,10.22c-0.56,1.66-0.43,3.55-0.81,5.29
		c-0.39,1.77-1.31,3.4-1.39,5.29c-0.07,1.56-0.5,3.1-0.58,4.66c-0.08,1.59-1.09,3.2-0.01,4.8c-1.05,1.24-1.12,2.79-1.24,4.29
		c-0.2,2.48-1.12,4.89-0.44,7.48c0.19,0.73-0.79,1.71-0.9,2.61c-0.13,1.02,0.56,2.36,0.11,3.08c-1.19,1.9-0.97,4.01-1.39,6.01
		c-0.25,1.2-0.35,2.43-0.51,3.65c-0.18,1.33,0.04,2.96-0.66,3.9c-0.72,0.97,0.56,2.25-0.81,2.79c1.03,1.04-0.98,1.4-0.53,2.5
		c0.29,0.72-0.16,1.74-0.29,2.63c-0.14,1-0.27,1.99-0.41,2.99c-0.27,1.99-0.53,3.99-0.83,5.98c-0.09,0.64-0.16,1.33-0.47,1.87
		c-0.9,1.58-1.14,3.19-0.67,4.95c0.13,0.49,0.19,1.33-0.07,1.53c-1.09,0.82-0.8,2-0.99,3.03c-0.3,1.65-0.7,3.33-0.64,4.98
		c0.06,1.67-1.47,2.97-0.86,4.68c-1.26,1.23-0.66,2.94-1.11,4.38c-0.44,1.42-0.82,2.86-1.27,4.28c-0.29,0.91,0.01,1.89-0.76,2.8
		c-0.43,0.51,0.02,1.73,0.02,2.63c0,0.44,0.05,1.03-0.2,1.3c-1.33,1.45-0.89,3.32-1.33,4.98c-0.44,1.65-1.01,3.28-1.32,4.96
		c-0.44,2.42-0.69,4.87-1.03,7.31c-0.12,0.89,0.07,2.09-0.43,2.59c-0.84,0.83,0.14,1.54-0.23,2.17c-1.66,2.89-1.27,6.19-1.93,9.28
		c-0.09,0.43,0.01,1.03-0.25,1.28c-1.85,1.85-0.29,4.75-2.06,6.59c0.78,0.64,0.14,1.47,0.29,2.17c0.19,0.88-1.2,1.32-0.55,2.17
		c0.85,1.11-0.67,1.16-0.75,1.9c-0.27,2.48-0.73,4.9-1.55,7.31c-0.9,2.65-0.88,5.53-1.77,8.28
		C292.42,382.76,292.93,386.81,291.19,390.28z M232,224.71c0.85-3.97-0.3-7.56-0.94-11.17c-0.52-2.93-2.26-4.61-5.36-4.71
		c-0.89-0.03-1.77-0.24-2.65-0.34c-1.62-0.19-2.53,0.36-3.28,1.92c-0.18,0.37-0.44,0.7-0.62,1.07c-1.2,2.52-2.34,5.04-0.94,7.89
		c0.17,0.35,0.26,0.87,0.14,1.22c-0.42,1.24,0.25,2.29,0.44,3.42c0.07,0.41,0.34,0.82,0.28,1.2c-0.31,1.94,0.98,3.38,1.44,5.07
		c0.47,1.72,1.95,2.38,3.15,3.15c0.91,0.58,2.49,0.82,3.47,0.44c2.04-0.8,3.12-2.81,4.26-4.62
		C230.7,227.54,232.49,226.17,232,224.71z M285.11,226.31c0.08-0.3,0.19-0.6,0.24-0.91c0.31-2.24,0.07-3.16-1.85-3.87
		c-1.97-0.73-3.77-1.72-5.58-2.72c-0.25-0.14-0.62-0.2-0.88-0.12c-0.88,0.27-1.39,1.36-1.39,2.62c0,0.37-0.22,0.75-0.4,1.09
		c-1.02,1.91-1.87,3.95-3.16,5.67c-1.39,1.85-2.5,3.85-3.33,5.93c-0.6,1.5-1.57,2.68-2.33,4.03c-1.23,2.18-1.05,3.73,1.18,4.71
		c1.67,0.73,2.86,2.04,4.42,2.86c1.88,0.99,1.83,1.12,3.53-0.22c0.23-0.18,0.33-0.52,0.5-0.8c-0.64-0.85-1.18-1.71-1.88-2.41
		c-0.33-0.33-1.06-0.24-1.46-0.53c-0.76-0.56-1.71-1.14-2.02-1.94c-0.21-0.56,0.4-1.56,0.86-2.21c0.58-0.82,0.86-1.67,1.04-2.64
		c0.16-0.88,0.77-0.8,1.73-0.47c1.49,0.51,2.38,2.13,4.22,2.03c0.99-0.05,1.68-0.2,2.07-1.13c0.37-0.88-0.09-1.57-0.7-2.04
		c-1.22-0.94-2.55-1.76-3.82-2.64c-0.24-0.17-0.65-0.55-0.61-0.6c1-1.53,1.6-3.18,1.93-5c0.09-0.48,1.27-1.02,1.98-1.06
		c0.62-0.04,1.55,0.41,1.88,0.93C282.21,226.41,283.62,226.25,285.11,226.31z M288.15,245.13c0.95,0.85,2.23,1.47,2.23,2.1
		c0,1.42,1.41,1.1,1.87,2.01c0.55,1.09,2.35,0.97,3.09,0.18c0.73-0.78,0.66-1.97-0.63-2.64c-1.09-0.57-0.82-1.95-1.5-2.21
		c-1.17-0.46-1.32-1.45-2.26-2.22c1.29-0.12,2.01-0.36,2.44-1.3c0.34-0.74,0.91-1.4,1.48-1.99c0.95-0.98,2.41-0.94,2.69,0.25
		c0.47,2.02,2.03,2.94,3.29,4.19c1.1,1.09,1.42,1.1,2.74,0.21c0.43-0.29,0.8-0.66,1.42-1.17c-2.2-2.56-4.23-4.95-6.3-7.31
		c-0.26-0.29-0.76-0.36-1.04-0.65c-0.76-0.78-1.55-0.81-2.29-0.08c-1.14,1.13-3.19,1.18-3.65,3.19c-0.12,0.51-0.94,0.87-1.46,1.27
		c-1.15,0.89-2.2,1.98-3.49,2.57c-1.29,0.59-2.08,1.65-3.1,2.48c-1.33,1.09-2.53,2.34-3.84,3.47c-1.5,1.29-1.72,2.79-0.16,4.11
		c1.27,1.07,2.22,2.35,3.27,3.58c0.46,0.55,1.06,1.02,1.67,1.42c0.61,0.41,1.39,0.89,1.88-0.09c0.37-0.73,1.62-1.32,0.38-2.45
		c-1.03-0.93-1.56-2.31-2.88-3.04c-0.6-0.33-1.07-1.06-0.12-1.86C285.36,247.92,286.71,246.51,288.15,245.13z M233.68,271.08
		c0.82-0.15,1.63-0.32,2.46-0.44c1.03-0.14,2.15,0.5,3.1-0.36c0.86,0.57,1.7,1.17,2.59,1.7c0.62,0.37,1.61,1.08,1.89,0.88
		c1.41-0.99,2.9,0.02,4.39-0.44c1.51-0.47,3.57-0.35,4.51,1.68c0.54,1.18,1.96,1.32,2.54,0.97c1.17-0.71,2.14-0.16,3.19-0.14
		c0.78,0.02,1.55,0.28,2.32,0.27c0.49-0.01,1.11-0.19,1.43-0.53c1.22-1.3,0.61-3.11-1.11-3.45c-0.76-0.15-1.54-0.22-2.32-0.32
		c-2.34-0.31-3.46-0.68-4.92-1.59c-0.35-0.22-0.7-0.49-1.09-0.57c-2.55-0.53-5.13-0.65-7.67-0.03c-0.59,0.14-0.95,0.32-1.38-0.21
		c-1.18-1.43-2.42-2.71-4.54-1.65c-0.25,0.12-0.65-0.1-0.98-0.11c-1.16-0.04-2.31-0.69-3.49,0.15c-0.25,0.18-1.25-0.14-1.41-0.47
		c-0.87-1.74-2.78-1.57-4.13-2.13c-2.31-0.96-4.56,0.32-6.45,1.8c-0.65,0.5-0.68,1.29-0.11,2.04c0.46,0.6,0.82,0.87,1.61,0.41
		c0.59-0.34,1.39-0.39,2.1-0.45c1.49-0.12,3.17-0.47,4.15,1.04C231.18,270.4,232.22,270.91,233.68,271.08z M212.14,216.53
		c0.23-1.44,0.48-2.42-0.39-3.47c-0.77-0.93-1.69-0.89-2.63-1.06c-1.97-0.36-3.96-0.82-5.46,1.12c-1.74-0.02-2.08,1.52-2.88,2.56
		c-0.97,1.26-1.51,2.56-0.69,4.14c0.17,0.33,0.03,0.86-0.06,1.28c-0.28,1.36-0.25,2.72-0.09,3.98c0.42,3.44,1.96,6.53,2.99,9.78
		c0.78,2.48,2.77,3.9,5.27,4.03c2.6,0.14,4.63-1.26,6.05-3.46c0.11-0.17,0.22-0.52,0.14-0.61c-0.63-0.71-1.2-1.53-1.99-2.02
		c-0.81-0.5-1.58,0.22-1.84,0.88c-0.27,0.68-0.52,0.78-1.17,0.72c-1.49-0.15-2.81-0.38-2.93-2.29c-0.03-0.5-0.2-1.09-0.52-1.45
		c-1.46-1.61-1.05-3.83-1.88-5.6c-0.99-2.12,1-4.29-0.3-6.34c-0.05-0.09,0.17-0.35,0.27-0.53c0.84-1.45,2.07-2.38,3.69-2.8
		c0.29-0.07,0.79-0.16,0.89-0.02C209.48,216.61,210.82,216.1,212.14,216.53z M241.8,222.43c2.19,0.3,4.04,0.55,5.87,0.8
		c0.32-2.15,0.39-2.66-0.13-2.83c-1.48-0.47-2.74-2.13-4.3-1.54c-1.63,0.61-1.45-0.54-1.43-1.16c0.06-1.55,0.36-3.1,0.59-4.64
		c0.17-1.13,0.96-1.67,1.72-0.98c1.49,1.36,3.31,0.94,4.98,1.26c0.95,0.18,2.39-1.39,2.36-2.28c-0.05-1.27-0.9-1.57-1.98-1.7
		c-1.2-0.15-2.58-0.07-3.54-0.66c-2.1-1.29-4.35-1.36-5.88,0.15c-1.28,1.25-3.49,2.85-1.91,5.42c0.09,0.15-0.02,0.43-0.07,0.65
		c-0.9,4.31-0.01,8.77-1.09,13.07c-0.19,0.75-0.25,1.54-0.32,2.32c-0.07,0.81,0.87,2.28,1.61,2.61c1,0.44,2.08-0.25,2.28-1.57
		C241,228.49,241.36,225.63,241.8,222.43z M267.73,218.73c0.81-1.54,0.48-2.38-0.67-3.4c-1.17-1.03-2.67-1.28-3.77-2.13
		c-1.24-0.96-2.28-0.9-3.47-0.38c-1.38,0.6-2.08,1.74-2.29,3.22c-0.27,1.92-0.62,3.77-1.35,5.63c-0.9,2.28-1.19,4.8-1.75,7.22
		c-1.08,0.43-0.2,1.48-0.71,2.21c-0.83,1.18-0.59,2.59-0.17,3.99c0.24,0.81,0.91,0.83,1.22,0.68c0.84-0.4,1.9-0.87,2.25-1.62
		c0.68-1.41,0.96-3.03,1.37-4.57c0.22-0.84,0.1-2,0.62-2.47c0.72-0.65,1.46,0.37,2.2,0.73c0.67,0.32,1.52,0.29,2.3,0.35
		c1.24,0.1,2.06-0.47,2.02-1.5c-0.03-0.71-0.21-1.45-0.51-2.09c-0.13-0.26-0.75-0.4-1.15-0.4c-1.39-0.03-2.4-0.78-3.31-1.68
		c-0.26-0.25-0.44-1.06-0.34-1.12c1.59-1.04,0.45-2.99,1.58-4.36C263.75,217.62,265.77,218.18,267.73,218.73z M269.54,199.25
		c1.29,0.18,2.28,0.35,3.28,0.43c0.39,0.03,1.11-0.06,1.14-0.21c0.2-0.93,1.44-1.48,1.01-2.58c-0.36-0.92-1.13-1.22-2.11-1.27
		c-1.11-0.05-2.2-0.3-3.31-0.42c-0.77-0.09-1.35-0.35-1.99-0.9c-1.18-1.02-2.84-1.25-4.99-1.44c-1.59-0.14-3.15-0.36-4.63-1.23
		c-1.38-0.81-2.92-2.03-4.71-0.71c-0.76-1.24-2.17,0.4-3.2-0.9c-1.35-1.71-4.75-1.87-6.44-0.65c-0.44,0.32-0.85,1.1-0.78,1.61
		c0.06,0.5,0.66,1.12,1.17,1.34c0.69,0.3,1.54,0.2,2.29,0.39c0.33,0.08,0.65,0.4,0.86,0.69c0.37,0.49,0.54,1.32,0.99,1.5
		c0.63,0.25,1.46,0.11,2.19,0.01c2.03-0.27,4.04-1.2,6,0.47c1.66,1.42,3.8,1.49,5.82,1.19c0.73-0.11,1.04-0.17,1.63,0.33
		C265.47,198.39,267.47,199.34,269.54,199.25z M251.24,284.18c0.7-0.2,1.42,0.62,1.83-0.43c0.31-0.77,1.18-1.32,0.96-2.29
		c-0.2-0.85-3.43-3.3-3.92-2.86c-1.21,1.12-1.72-0.12-2.49-0.42c-2.28-0.89-4.48-1.94-7.09-1.02c-0.66,0.23-1.7,0.1-2.32-0.85
		c-1.39-2.14-3.52-1.97-5.64-1.52c-1.23,0.26-2.31,1.49-2.31,2.4c0,1.4,1.67,0.29,1.9,1.3c0.33-0.08,0.69-0.28,0.98-0.21
		c0.6,0.14,1.25,0.31,1.72,0.68c0.59,0.47,0.92,1.25,1.51,1.71c0.53,0.41,1.27,0.81,1.89,0.78c1.22-0.06,2.42-0.55,3.64-0.64
		c1.48-0.11,2.59,0.77,3.58,1.8c0.12,0.13,0.43,0.07,0.65,0.1C247.93,283.03,249.84,282.92,251.24,284.18z M311.09,364.75
		c-1.04-0.14-1.81-0.21-2.57-0.36c-1.12-0.22-1.02,0.63-1.01,1.22c0.02,0.82,0.49,1.3,1.34,1.57c2.09,0.66,4.1,1.6,6.22,2.12
		c1.41,0.34,2.66,0.76,3.51,1.94c0.86,1.2,2.15,0.97,3.28,0.96c1.06-0.01,1.6-1.78,0.83-2.6c-1.89-2-4.32-3.15-6.81-4.2
		C314.08,366.02,312.59,364.38,311.09,364.75z"/>
	<path d="M291.19,390.28c1.74-3.47,1.23-7.52,2.4-11.13c0.89-2.76,0.87-5.64,1.77-8.28c0.82-2.41,1.28-4.83,1.55-7.31
		c0.08-0.75,1.6-0.8,0.75-1.9c-0.65-0.84,0.74-1.29,0.55-2.17c-0.15-0.7,0.49-1.53-0.29-2.17c1.77-1.85,0.21-4.74,2.06-6.59
		c0.25-0.25,0.15-0.85,0.25-1.28c0.66-3.09,0.26-6.39,1.93-9.28c0.36-0.63-0.61-1.34,0.23-2.17c0.5-0.5,0.31-1.7,0.43-2.59
		c0.33-2.44,0.58-4.89,1.03-7.31c0.31-1.68,0.88-3.3,1.32-4.96c0.44-1.65,0-3.53,1.33-4.98c0.25-0.27,0.2-0.86,0.2-1.3
		c0-0.9-0.44-2.12-0.02-2.63c0.77-0.92,0.47-1.9,0.76-2.8c0.45-1.42,0.83-2.86,1.27-4.28c0.45-1.44-0.15-3.14,1.11-4.38
		c-0.61-1.71,0.92-3.01,0.86-4.68c-0.06-1.65,0.34-3.33,0.64-4.98c0.19-1.03-0.1-2.21,0.99-3.03c0.27-0.2,0.2-1.04,0.07-1.53
		c-0.47-1.76-0.23-3.37,0.67-4.95c0.31-0.54,0.38-1.24,0.47-1.87c0.3-1.99,0.55-3.99,0.83-5.98c0.14-1,0.27-1.99,0.41-2.99
		c0.12-0.89,0.58-1.91,0.29-2.63c-0.45-1.11,1.56-1.46,0.53-2.5c1.37-0.54,0.1-1.82,0.81-2.79c0.7-0.94,0.48-2.57,0.66-3.9
		c0.17-1.22,0.26-2.45,0.51-3.65c0.42-2,0.19-4.1,1.39-6.01c0.45-0.71-0.24-2.06-0.11-3.08c0.11-0.9,1.1-1.88,0.9-2.61
		c-0.68-2.59,0.24-5,0.44-7.48c0.12-1.5,0.19-3.05,1.24-4.29c-1.08-1.59-0.07-3.21,0.01-4.8c0.08-1.56,0.51-3.1,0.58-4.66
		c0.09-1.89,1-3.51,1.39-5.29c0.38-1.74,0.25-3.63,0.81-5.29c1.14-3.37,1.97-6.79,2.81-10.22c0.46-1.87,0.63-3.92,1.43-5.59
		c0.9-1.87,0.66-3.9,1.41-5.63c0.67-1.53,1.04-3.05,1.21-4.66c0.17-1.51,1.43-2.65,1.33-4.29c-0.04-0.63,0.51-1.35,0.92-1.94
		c0.18-0.26,0.66-0.39,1.02-0.41c0.28-0.02,0.8,0.15,0.84,0.32c0.22,0.91,0.76,2.23,0.36,2.69c-0.99,1.16-0.48,2.65-1.14,3.66
		c-1.17,1.78-0.99,3.76-1.37,5.66c-0.18,0.87-0.21,1.78-0.39,2.65c-0.16,0.77-0.62,1.42-0.66,2.27c-0.03,0.83-0.47,1.64-0.64,2.47
		c-0.18,0.87,0.01,1.94-0.43,2.62c-1.25,1.97-0.8,4.29-1.54,6.29c-1.12,3.03-0.96,6.33-2,9.25c-1.41,3.93-1.46,7.99-2.16,11.98
		c-0.71,4.07-1.13,8.19-1.73,12.29c-0.1,0.69-0.07,1.27,0.41,1.79c-0.73,0.31-0.79,0.97-0.87,1.65c-0.13,1.11-0.23,2.23-0.47,3.32
		c-0.18,0.81,0.74,1.66-0.15,2.4c0.98,1.06-1.02,1.39-0.57,2.51c0.29,0.73-0.13,1.75-0.3,2.63c-0.17,0.93,0.08,2.05-1.03,2.63
		c0.8,1.54-1.36,3.04-0.06,4.63c0.2,0.25,0.14,1.05-0.1,1.25c-1.32,1.09-0.94,2.64-1.16,3.99c-0.54,3.31-0.88,6.65-1.41,9.96
		c-0.3,1.91-0.26,3.85-1.32,5.68c-0.49,0.84-0.96,2.29-0.11,3.47c0.11,0.15,0.19,0.47,0.11,0.59c-1.71,2.64-1.29,5.74-1.78,8.63
		c-0.31,1.83-0.87,3.54-1.43,5.28c-0.52,1.63-0.05,3.49-1.33,4.98c-0.37,0.43-0.18,1.3-0.32,1.96c-0.33,1.57,0,3.32-1.29,4.62
		c-0.68,0.69,0.76,1.4-0.06,2.26c-0.45,0.47-0.43,1.43-0.54,2.17c-0.24,1.55-0.14,3.22-0.7,4.63c-1.24,3.12-0.97,6.55-2.04,9.59
		c-1.35,3.82-1.31,7.79-2.16,11.64c-0.37,1.67-0.86,3.31-1.35,4.95c-0.45,1.54,0.19,3.38-1.26,4.64c1,0.76-0.27,1.16-0.28,1.75
		c-0.09,4.22-1.82,8.13-2.35,12.26c-0.51,3.91-2.18,7.6-2.26,11.6c-1.62,2.89-1.28,6.19-1.96,9.27c-0.23,1.02-0.71,1.97-1.06,2.96
		c-0.35,0.99-1.04,1.23-2.04,1.16c-1.23-0.09-0.48-1.25-1.05-1.77C290.89,391.97,291.17,391.03,291.19,390.28z"/>
	<path d="M232,224.71c0.5,1.46-1.29,2.83-0.6,4.54c-1.14,1.81-2.22,3.81-4.26,4.62c-0.98,0.39-2.56,0.15-3.47-0.44
		c-1.2-0.77-2.68-1.43-3.15-3.15c-0.46-1.69-1.75-3.14-1.44-5.07c0.06-0.37-0.22-0.79-0.28-1.2c-0.19-1.13-0.86-2.19-0.44-3.42
		c0.12-0.36,0.03-0.87-0.14-1.22c-1.4-2.84-0.27-5.37,0.94-7.89c0.18-0.37,0.44-0.7,0.62-1.07c0.75-1.56,1.66-2.11,3.28-1.92
		c0.89,0.1,1.77,0.31,2.65,0.34c3.09,0.1,4.84,1.78,5.36,4.71C231.7,217.16,232.84,220.74,232,224.71z M228.06,223.99
		c0.2-1.43,0.5-2.65,0.48-3.85c-0.01-0.78-0.51-1.55-0.76-2.33c-0.09-0.29-0.11-0.62-0.09-0.93c0.12-2.06-0.29-3.61-2.65-4.34
		c-1.89-0.59-2.55-0.7-2.94,1.14c-0.25,1.19-0.85,2.43-0.02,3.82c0.48,0.81,0.48,2.06,0.32,3.05c-0.2,1.24,0.02,2.42,0.57,3.35
		c0.66,1.13-0.62,2.42,0.57,3.39c0.35,0.29,0.33,0.98,0.61,1.4c0.96,1.48,1.46,1.41,2.62,0.01
		C227.98,227.23,227.72,225.43,228.06,223.99z"/>
	<path d="M285.11,226.31c-1.49-0.06-2.9,0.09-3.84-1.43c-0.32-0.52-1.26-0.97-1.88-0.93c-0.71,0.04-1.89,0.58-1.98,1.06
		c-0.33,1.82-0.93,3.47-1.93,5c-0.03,0.05,0.37,0.43,0.61,0.6c1.27,0.88,2.6,1.69,3.82,2.64c0.61,0.47,1.06,1.16,0.7,2.04
		c-0.39,0.94-1.09,1.08-2.07,1.13c-1.84,0.1-2.73-1.52-4.22-2.03c-0.95-0.33-1.56-0.4-1.73,0.47c-0.18,0.97-0.45,1.82-1.04,2.64
		c-0.46,0.65-1.07,1.65-0.86,2.21c0.3,0.79,1.26,1.38,2.02,1.94c0.4,0.3,1.13,0.2,1.46,0.53c0.7,0.7,1.23,1.56,1.88,2.41
		c-0.17,0.29-0.27,0.63-0.5,0.8c-1.7,1.34-1.65,1.21-3.53,0.22c-1.56-0.82-2.75-2.13-4.42-2.86c-2.23-0.98-2.41-2.53-1.18-4.71
		c0.76-1.35,1.73-2.52,2.33-4.03c0.82-2.08,1.94-4.08,3.33-5.93c1.28-1.72,2.13-3.76,3.16-5.67c0.18-0.34,0.4-0.73,0.4-1.09
		c0-1.26,0.51-2.35,1.39-2.62c0.26-0.08,0.64-0.01,0.88,0.12c1.81,1,3.61,1.99,5.58,2.72c1.92,0.71,2.16,1.63,1.85,3.87
		C285.31,225.71,285.19,226.01,285.11,226.31z"/>
	<path d="M288.15,245.13c-1.44,1.38-2.79,2.79-4.28,4.04c-0.95,0.8-0.48,1.52,0.12,1.86c1.32,0.73,1.86,2.11,2.88,3.04
		c1.24,1.12-0.01,1.72-0.38,2.45c-0.49,0.98-1.27,0.5-1.88,0.09c-0.6-0.4-1.2-0.87-1.67-1.42c-1.04-1.24-2-2.51-3.27-3.58
		c-1.55-1.32-1.33-2.82,0.16-4.11c1.31-1.13,2.5-2.38,3.84-3.47c1.02-0.83,1.81-1.89,3.1-2.48c1.29-0.59,2.34-1.68,3.49-2.57
		c0.52-0.4,1.35-0.76,1.46-1.27c0.46-2.02,2.5-2.06,3.65-3.19c0.74-0.73,1.53-0.7,2.29,0.08c0.28,0.28,0.78,0.35,1.04,0.65
		c2.07,2.36,4.11,4.76,6.3,7.31c-0.61,0.51-0.99,0.88-1.42,1.17c-1.32,0.89-1.64,0.88-2.74-0.21c-1.26-1.25-2.82-2.17-3.29-4.19
		c-0.28-1.19-1.75-1.24-2.69-0.25c-0.57,0.59-1.14,1.25-1.48,1.99c-0.44,0.94-1.15,1.18-2.44,1.3c0.94,0.77,1.08,1.76,2.26,2.22
		c0.68,0.26,0.41,1.64,1.5,2.21c1.29,0.68,1.36,1.86,0.63,2.64c-0.74,0.79-2.55,0.91-3.09-0.18c-0.46-0.91-1.87-0.59-1.87-2.01
		C290.37,246.61,289.1,245.99,288.15,245.13z"/>
	<path d="M233.68,271.08c-1.46-0.18-2.5-0.68-3.33-1.95c-0.98-1.51-2.66-1.16-4.15-1.04c-0.71,0.06-1.51,0.11-2.1,0.45
		c-0.79,0.46-1.15,0.19-1.61-0.41c-0.57-0.75-0.53-1.54,0.11-2.04c1.9-1.48,4.15-2.75,6.45-1.8c1.35,0.56,3.27,0.4,4.13,2.13
		c0.17,0.33,1.16,0.65,1.41,0.47c1.18-0.84,2.34-0.19,3.49-0.15c0.33,0.01,0.74,0.23,0.98,0.11c2.12-1.06,3.36,0.22,4.54,1.65
		c0.43,0.53,0.8,0.35,1.38,0.21c2.54-0.61,5.12-0.5,7.67,0.03c0.39,0.08,0.74,0.35,1.09,0.57c1.45,0.91,2.57,1.28,4.92,1.59
		c0.77,0.1,1.55,0.17,2.32,0.32c1.72,0.34,2.33,2.15,1.11,3.45c-0.32,0.34-0.94,0.52-1.43,0.53c-0.77,0.01-1.54-0.25-2.32-0.27
		c-1.04-0.03-2.02-0.58-3.19,0.14c-0.57,0.35-1.99,0.2-2.54-0.97c-0.94-2.03-3-2.15-4.51-1.68c-1.49,0.46-2.99-0.55-4.39,0.44
		c-0.29,0.2-1.28-0.51-1.89-0.88c-0.88-0.53-1.73-1.13-2.59-1.7c-0.95,0.86-2.07,0.22-3.1,0.36
		C235.31,270.76,234.5,270.94,233.68,271.08z"/>
	<path d="M212.14,216.53c-1.32-0.44-2.66,0.07-3.52-1.15c-0.1-0.14-0.6-0.05-0.89,0.02c-1.61,0.41-2.85,1.35-3.69,2.8
		c-0.1,0.18-0.33,0.45-0.27,0.53c1.3,2.05-0.7,4.22,0.3,6.34c0.83,1.77,0.42,3.98,1.88,5.6c0.32,0.35,0.48,0.95,0.52,1.45
		c0.12,1.91,1.45,2.14,2.93,2.29c0.65,0.06,0.9-0.04,1.17-0.72c0.27-0.66,1.03-1.38,1.84-0.88c0.78,0.49,1.36,1.31,1.99,2.02
		c0.08,0.09-0.03,0.44-0.14,0.61c-1.42,2.2-3.45,3.6-6.05,3.46c-2.5-0.14-4.49-1.55-5.27-4.03c-1.03-3.25-2.57-6.34-2.99-9.78
		c-0.15-1.26-0.19-2.62,0.09-3.98c0.09-0.42,0.23-0.95,0.06-1.28c-0.82-1.59-0.28-2.88,0.69-4.14c0.8-1.04,1.14-2.58,2.88-2.56
		c1.5-1.94,3.49-1.49,5.46-1.12c0.94,0.17,1.85,0.13,2.63,1.06C212.63,214.12,212.37,215.09,212.14,216.53z"/>
	<path d="M241.8,222.43c-0.44,3.19-0.8,6.05-1.23,8.9c-0.2,1.33-1.29,2.02-2.28,1.57c-0.74-0.33-1.68-1.8-1.61-2.61
		c0.07-0.78,0.13-1.56,0.32-2.32c1.08-4.3,0.2-8.76,1.09-13.07c0.04-0.22,0.16-0.5,0.07-0.65c-1.58-2.57,0.63-4.17,1.91-5.42
		c1.53-1.51,3.78-1.44,5.88-0.15c0.96,0.59,2.34,0.51,3.54,0.66c1.07,0.13,1.93,0.43,1.98,1.7c0.04,0.89-1.41,2.46-2.36,2.28
		c-1.66-0.32-3.48,0.1-4.98-1.26c-0.76-0.69-1.56-0.15-1.72,0.98c-0.23,1.54-0.53,3.09-0.59,4.64c-0.02,0.62-0.2,1.77,1.43,1.16
		c1.57-0.59,2.82,1.08,4.3,1.54c0.52,0.16,0.45,0.68,0.13,2.83C245.84,222.98,243.99,222.73,241.8,222.43z"/>
	<path d="M267.73,218.73c-1.96-0.55-3.98-1.12-5.93-1.66c-1.12,1.37,0.02,3.32-1.58,4.36c-0.1,0.06,0.08,0.87,0.34,1.12
		c0.91,0.9,1.92,1.65,3.31,1.68c0.4,0.01,1.02,0.14,1.15,0.4c0.3,0.64,0.48,1.38,0.51,2.09c0.04,1.03-0.78,1.6-2.02,1.5
		c-0.78-0.06-1.62-0.03-2.3-0.35c-0.74-0.35-1.48-1.37-2.2-0.73c-0.52,0.47-0.4,1.63-0.62,2.47c-0.41,1.54-0.69,3.16-1.37,4.57
		c-0.36,0.74-1.42,1.22-2.25,1.62c-0.31,0.15-0.98,0.13-1.22-0.68c-0.42-1.4-0.65-2.81,0.17-3.99c0.52-0.74-0.36-1.78,0.71-2.21
		c0.56-2.42,0.85-4.94,1.75-7.22c0.73-1.86,1.09-3.71,1.35-5.63c0.21-1.48,0.91-2.62,2.29-3.22c1.19-0.52,2.23-0.58,3.47,0.38
		c1.1,0.85,2.6,1.09,3.77,2.13C268.21,216.35,268.55,217.2,267.73,218.73z"/>
	<path d="M269.54,199.25c-2.06,0.09-4.07-0.86-5.8-2.35c-0.59-0.5-0.9-0.45-1.63-0.33c-2.02,0.31-4.16,0.23-5.82-1.19
		c-1.95-1.67-3.96-0.74-6-0.47c-0.73,0.1-1.56,0.24-2.19-0.01c-0.46-0.18-0.63-1.01-0.99-1.5c-0.22-0.29-0.53-0.6-0.86-0.69
		c-0.75-0.19-1.6-0.09-2.29-0.39c-0.51-0.22-1.11-0.84-1.17-1.34c-0.06-0.51,0.34-1.29,0.78-1.61c1.69-1.23,5.09-1.06,6.44,0.65
		c1.03,1.3,2.44-0.34,3.2,0.9c1.8-1.32,3.33-0.09,4.71,0.71c1.48,0.87,3.04,1.08,4.63,1.23c2.15,0.19,3.81,0.42,4.99,1.44
		c0.64,0.55,1.22,0.81,1.99,0.9c1.11,0.12,2.2,0.37,3.31,0.42c0.98,0.05,1.75,0.36,2.11,1.27c0.43,1.1-0.81,1.65-1.01,2.58
		c-0.03,0.15-0.75,0.24-1.14,0.21C271.82,199.59,270.83,199.42,269.54,199.25z"/>
	<path d="M251.24,284.18c-1.4-1.27-3.3-1.15-5.1-1.44c-0.22-0.03-0.53,0.02-0.65-0.1c-0.99-1.02-2.1-1.9-3.58-1.8
		c-1.22,0.09-2.42,0.58-3.64,0.64c-0.62,0.03-1.36-0.37-1.89-0.78c-0.59-0.46-0.93-1.24-1.51-1.71c-0.46-0.37-1.12-0.54-1.72-0.68
		c-0.29-0.07-0.65,0.13-0.98,0.21c-0.24-1.01-1.91,0.09-1.9-1.3c0-0.91,1.08-2.14,2.31-2.4c2.12-0.45,4.25-0.63,5.64,1.52
		c0.61,0.95,1.66,1.08,2.32,0.85c2.6-0.92,4.8,0.13,7.09,1.02c0.77,0.3,1.28,1.54,2.49,0.42c0.48-0.45,3.72,2,3.92,2.86
		c0.23,0.97-0.65,1.52-0.96,2.29C252.65,284.8,251.94,283.99,251.24,284.18z"/>
	<path d="M311.09,364.75c1.5-0.37,2.99,1.27,4.79,0.65c2.48,1.05,4.92,2.2,6.81,4.2c0.77,0.82,0.23,2.59-0.83,2.6
		c-1.13,0.01-2.42,0.24-3.28-0.96c-0.85-1.19-2.1-1.6-3.51-1.94c-2.12-0.52-4.13-1.46-6.22-2.12c-0.85-0.27-1.33-0.75-1.34-1.57
		c-0.01-0.59-0.11-1.44,1.01-1.22C309.28,364.54,310.05,364.61,311.09,364.75z"/>
	<path class="st0" d="M228.06,223.99c-0.34,1.44-0.08,3.24-1.3,4.71c-1.16,1.4-1.66,1.47-2.62-0.01c-0.28-0.42-0.26-1.12-0.61-1.4
		c-1.2-0.98,0.09-2.27-0.57-3.39c-0.55-0.93-0.77-2.11-0.57-3.35c0.16-0.99,0.16-2.25-0.32-3.05c-0.83-1.38-0.22-2.63,0.02-3.82
		c0.38-1.84,1.05-1.73,2.94-1.14c2.36,0.74,2.77,2.28,2.65,4.34c-0.02,0.31,0,0.64,0.09,0.93c0.24,0.79,0.75,1.55,0.76,2.33
		C228.56,221.35,228.26,222.56,228.06,223.99z"/>
</g>
</svg>
