<?xml version="1.0" encoding="utf-8"?>
<!-- Generator: Adobe Illustrator 27.5.0, SVG Export Plug-In . SVG Version: 6.00 Build 0)  -->
<svg version="1.1" id="Layer_1" xmlns="http://www.w3.org/2000/svg" xmlns:xlink="http://www.w3.org/1999/xlink" x="0px" y="0px"
	 viewBox="0 0 500 500" style="enable-background:new 0 0 500 500;" xml:space="preserve">
<style type="text/css">
	.st0{fill:#BF856B;}
	.st1{fill:#FFFFFF;}
</style>
<g>
	<path d="M210.7,370.17c0.14-1-0.67-0.8-1.19-0.92c-3.72-0.83-7.58-1.25-11.11-2.59c-3.09-1.17-6.28-1.34-9.39-2.09
		c-1.1-0.26-2.12-0.86-3.21-1.19c-1.1-0.34-2.17-0.55-3.26-1.13c-1.59-0.84-3.76-0.34-5.31-1.69c-2.7,0.03-4.66-1.94-7.08-2.74
		c-2.5-0.82-5.01-2.06-7.31-3.52c-2.28-1.45-4.61-2.85-6.78-4.44c-2.02-1.48-3.9-3.16-5.76-4.84c-0.69-0.62-1.03-1.6-2.23-1.6
		c-0.32,0-0.82-0.57-0.94-0.97c-1.09-3.69-3.37-7.11-2.29-11.3c0.3-1.17-0.1-2.51-0.09-3.77c0.01-1.15,0.31-2.2-0.12-3.46
		c-0.46-1.36,0.76-2.79,0.66-4.43c-0.24-3.93,0.32-7.84,0.94-11.75c0.27-1.73-0.87-3.67,0.86-5.18c-1.45-2.86,1.33-5.8-0.14-8.67
		c-0.04-0.09,0.01-0.24,0.05-0.36c0.87-2.79,0.37-5.66,0.55-8.49c0.14-2.22,0.99-4.3,0.43-6.71c-0.49-2.08,0.95-4.32,0.25-6.68
		c-0.31-1.06,0.72-2.54,0.35-3.55c-0.37-1.05,0.58-1.9-0.12-2.91c-0.47-0.68,1.57-1.03,0.7-2.38c-0.41-0.65-0.05-1.83,0.05-2.76
		c0.1-0.97,0.53-1.96,0.39-2.89c-0.59-4.02,1.05-7.84,1-11.75c-0.03-2.89,0.94-5.78,0.51-8.46c-0.48-3.02,1.28-5.83,0.18-8.73
		c1.65-1.18,0.22-2.72,0.47-4.06c0.26-1.44,0.55-2.88,0.65-4.34c0.14-1.86,0.34-3.76,0.06-5.58c-0.18-1.19,1.55-1.67,0.64-3.09
		c-0.43-0.68,0.32-1.96-0.3-3.04c-0.28-0.5,0.22-1.4,0.26-2.13c0.2-3.57,1.84-7.01,1.02-10.68c1.69-2.12,1-4.81,1.77-7.15
		c0.26-0.78-1.1-1.71,0.29-2.3c-0.94-0.81-0.38-1.8-0.28-2.71c0.1-0.97,0.29-1.93,0.44-2.89s0.3-1.93,0.45-2.89
		c0.13-0.84,0.26-1.69,0.39-2.53c0.15-0.96,0.3-1.93,0.45-2.89c0.15-0.96,0.3-1.93,0.45-2.89c0.15-0.96,0.29-1.93,0.45-2.89
		c0.16-0.95,0.02-2.43,0.57-2.76c1.86-1.12,1.79-3.56,3.52-4.64c2.49-1.56,4.46-3.89,7.61-4.47c1.42-0.26,2.63-1.47,4.01-2.09
		c1.27-0.57,3.07,0,3.96-0.59c1.21-0.8,2.52-1.05,3.6-1.01c1.31,0.05,2.35-0.03,3.48-0.69c0.64-0.37,1.54-0.29,2.3-0.47
		c3.51-0.85,7.02-1.67,10.63-2.05c2.46-0.26,4.89-0.83,7.3-1.41c0.88-0.21,1.89,0.2,2.83,0.19c0.9-0.01,1.8-0.25,2.7-0.29
		c3.43-0.14,6.9,0.35,10.28-0.64c3.13,0.92,6.23-0.73,9.39-0.09c1.2,0.24,2.52-0.12,3.78-0.09c1.16,0.03,2.23,0.21,3.46-0.11
		c1.01-0.26,2.3,0.85,3.48,0.86c1.07,0.01,2.08-1.03,3.29-0.67c1.56,0.46,3.3,0.02,4.73,1.36c0.5,0.47,2.29-0.44,2.83,0.03
		c0.86,0.76,1.75,0.72,2.64,0.89c1.05,0.2,2.13,0.24,3.21,0.34c0.18,0.02,8.53,1.68,8.69,1.79c0.28,0.19,0.6,0.61,0.81,0.56
		c1.1-0.26,2.1-0.95,3.14,0.35c0.62,0.77,2.04,0.1,2.85,1.2c0.37,0.5,1.58,0.38,2.41,0.52c0.96,0.16,1.94,0.24,2.89,0.47
		c0.95,0.23,2.02,1.07,2.75,0.82c1.16-0.39,1.41,0.92,2.4,0.75c0.87-0.15,1.75,0.25,2.53,0.99c0.51,0.48,1.62,0.35,2.47,0.45
		c2.81,0.35,5.45,1.19,7.9,2.61c0.29,0.17,0.68,0.19,1.03,0.25c2.64,0.46,5.37,0.54,7.55,2.58c0.59,0.55,1.88,0.32,2.83,0.52
		c1.01,0.21,1.68-0.33,1.97-1.12c0.25-0.68,0.33-1.31,1.03-1.77c1.26-0.84,2.76-1.53,2.89-3.37c1.5-0.09,1.68-1.56,2.51-2.34
		c3.35-3.17,5.89-7.06,9.25-10.25c2.62-2.48,4.63-5.59,6.9-8.43c0.56-0.71,1-1.53,1.64-2.16c0.71-0.71,1.32-0.98,2.54-0.31
		c1.75,0.95,3.86,0.03,5.81-0.1c1.8-0.12,3.56-0.45,5.34-0.91c1.22-0.32,2.69-0.91,4.13-0.26c0.48,0.22,1.25,0.25,1.71,0.01
		c1.92-0.99,4.04-0.88,6.03-0.91c2.08-0.03,4.04-0.67,6.12-0.75c2.65-0.1,5.31-0.13,7.93-0.28c3.53-0.2,7.06-0.51,10.6-0.68
		c3.98-0.19,7.96-0.69,11.93-1.04c2.94-0.26,5.96,0.17,8.86-0.65c0.21-0.06,0.56-0.05,0.7,0.08c0.92,0.88,2.04,1.68,2.63,2.76
		c0.52,0.93,1.02,2.06,0.6,3.33c-0.31,0.91-0.32,1.92-0.48,2.88c-0.42,2.6-0.86,3.07-3.52,3.48c-2.24,0.34-4.45,0.94-6.76,0.82
		c-2.19-0.11-4.39,0.18-6.58,0.21c-1.38,0.02-2.85-0.16-4.13,0.1c-1.31,0.27-2.53,0.99-3.97,0.84c-0.18-0.02-0.42,0.42-0.58,0.39
		c-2.9-0.51-5.76,0.17-8.63,0.22c-2.66,0.04-5.29,0.42-7.92,0.55c-2.8,0.14-5.67,0.36-8.49,0.67c-4.4,0.49-8.81,0.87-13.2,1.45
		c-2.42,0.32-4.6,0.61-6.41,2.29c-0.67,0.62-1.33,1.29-1.87,2.03c-0.39,0.54-0.42,1.59-0.87,1.78c-0.64,0.27-0.98,0.7-1.45,1.04
		c-4.39,3.19-7.01,8.05-11.08,11.52c-0.91,0.78-1.45,2-2.13,3.04c-0.37,0.56-1.09,1.34-0.93,1.72c0.34,0.83,1.01,1.86,1.78,2.12
		c2.5,0.86,4.17,2.79,6.02,4.42c1.91,1.69,3.99,3.2,5.45,5.44c0.98,1.5,2.56,2.49,3.24,4.38c0.45,1.27,0.99,2.54,1.49,3.81
		c1.14,2.89,1.07,5.68,0.48,8.6c-0.48,2.39-0.7,4.83-1.16,7.22c-0.24,1.23,0.11,2.65-1.2,3.65c-0.3,0.23,0.44,1.57,0.19,2.2
		c-0.22,0.57-0.68,0.83-0.62,1.73c0.13,1.85,0.01,3.85-0.59,5.58c-1.06,3.05-1.62,4.91-1.07,8.54c0.14,0.93-1.26,0.87-0.68,2.05
		c0.35,0.71-0.56,2.03-0.89,3.09c-0.27,0.88,1.33,1.95-0.32,2.74c-0.26,0.13-0.32,0.89-0.3,1.36c0.13,3.66,0.15,3.67-1.04,6.63
		c-0.3,0.74,0.78,1.53-0.29,2.37c-0.49,0.38-0.69,1.79-0.38,2.41c0.63,1.27-0.7,2.28-0.01,3.65c0.46,0.92-0.09,2.52-1.13,3.54
		c-0.22,0.22-0.01,0.88,0.04,1.34c0.04,0.43,0.32,1.14,0.16,1.25c-1.34,0.94-0.96,2.42-1.17,3.65c-0.98,5.89-1.78,11.82-2.8,17.7
		c-0.49,2.83-1.42,5.58-1.97,8.4c-0.59,2.99-0.44,6.23-1.55,8.98c-1.52,3.78-1.46,7.75-2.4,11.57c-0.62,2.52-0.11,5.32-1.89,7.55
		c0.53,1.48-0.34,2.76-0.67,4.09c-0.81,3.24-0.15,6.79-2.14,9.76c1.52,2.75-1.45,4.68-1.32,7.32c0.13,2.62-0.61,5.31-1.14,7.94
		c-0.37,1.82-1.11,3.57-1.51,5.39c-0.4,1.78-0.33,3.7-0.93,5.39c-0.75,2.12-1.81,4.26-3.54,5.72c-2.8,2.36-5.8,4.49-9.36,5.68
		c-2.47,0.83-4.82,2.22-7.35,2.63c-1.47,0.24-2.83,0.81-4.29,1.01c-1.34,0.19-2.66,0.66-3.99,0.7c-3.21,0.11-6.18,1.31-9.3,1.86
		c-3.79,0.66-7.72,0.4-11.4,1.74c-0.4,0.15-0.95-0.12-1.43-0.19c-0.72-0.11-1.56-0.52-2.15-0.29c-3.57,1.39-7.34-0.01-10.92,0.91
		c-0.22,0.06-0.47,0.27-0.63,0.21c-2.32-0.87-4.7-0.03-7.05-0.28c-1.72-0.19-3.46-1.3-5.22-0.13c-1.19-2.23-2.98-0.05-4.5-0.59
		c-1.69-0.6-3.59-0.63-5.4-0.91c-1.69-0.26-3.37-0.52-5.06-0.78c-1.81-0.28-3.61-0.59-5.43-0.8c-0.32-0.04-0.69,0.35-1.04,0.55
		C211.66,370.32,211.18,370.24,210.7,370.17z M284.85,275.1c-0.86,0.62-1.24,0.88-1.6,1.16c-1.04,0.83-1.89,0.73-2.75-0.34
		c-1.38-1.73-1.35-2.45,0.49-3.76c0.66-0.47,1.44-0.75,2.14-1.16c2.17-1.25,4.94-1.61,6.18-4.28c0.23-0.48,0.9-0.94,1.44-1.06
		c2.88-0.64,4.47-3.52,7.34-4.14c0.39-1.63,2.4-1.28,3.22-2.73c0.64-1.14,2.62-1.44,3.72-2.44c0.92-0.84,2.3-0.68,3.04-2.02
		c0.64-1.17,2.05-1.91,3.12-2.85c0.89-0.78,2.43-0.66,2.82-2.2c0.09-0.34,1.01-0.42,1.5-0.7c0.72-0.42,1.53-0.79,2.08-1.39
		c2.31-2.51,5.19-4.36,7.61-6.76c2.21-2.19,3.52-7.06,2.19-9.97c-0.28-0.6-0.68-1.35-1.65-0.77c-1.7,1.02-3.6,1.28-5.54,1.56
		c-2.02,0.29-3.86,1.57-6.07,0.88c-0.55-0.17-1.44,0.1-1.92,0.49c-1.41,1.13-3.01,0.4-4.5,0.64c-0.78,0.13-1.78,0.4-2.31,0.31
		c-1.87-0.34-3.24,1.27-5.08,0.88c-1.61-0.34-3.2,0.43-4.93,0.33c-2.8-0.17-5.65,0.66-8.53,0.53c-1.14-0.05-2.34,0.36-3.41,0.13
		c-1.24-0.27-2.3,0.29-3.44,0.25c-0.63-0.02-1.24-0.2-1.28,0.71c-0.03,0.53-0.18,0.91,0.44,1.48c1.4,1.28,2.85,2.76,3.55,4.46
		c0.62,1.49,1.45,2.76,2.43,3.88c0.98,1.11,1.21,2.58,2.44,3.61c1.53,1.3,1.36,2.9,0.2,4.53c-0.75,1.06-2.71,1.19-2.9,0.12
		c-0.26-1.47-1.59-2.13-1.96-3.36c-0.42-1.4-1.69-2.05-2.39-3.18c-0.45-0.72-1.05-1.35-1.49-2.08c-0.66-1.1-1.18-2.28-1.86-3.36
		c-0.65-1.03-1.66-1.89-2.08-2.98c-0.47-1.24-1.64-1.82-2.16-2.89c-0.86-1.76-2.64-2.13-3.96-1.71c-1.29,0.41-2.35,0.18-3.47,0.02
		c-6.51-0.96-13.03-1.9-19.51-3.06c-1.28-0.23-2.5,0.15-3.84-0.32c-2.42-0.85-5.05-1.03-7.93-1.33c0.64,0.87,1.09,1.32,1.34,1.86
		c1.67,3.61,3.14,7.33,5.74,10.42c0.9,1.07,1.99,1.99,2.85,3.09c1.01,1.29,2.21,2.51,2.51,4.24c1.81,0.77,2,2.86,3.11,3.96
		c1.38,1.37,2.41,2.93,3.61,4.38c2.6,3.14,5.06,6.4,7.69,9.52c0.87,1.03,2.13,1.71,3.13,2.63c1.83,1.68,3.88,2.8,6.36,3.22
		c1.16,0.2,1.54,1.11,1.3,2.47c-0.23,1.33-0.89,1.91-2.12,1.81c-2.49-0.21-4.74-1.21-6.73-2.57c-1.68-1.14-2.45-3.5-4.89-3.69
		c-0.11-0.01-0.15-0.41-0.28-0.6c-0.43-0.62-0.83-1.27-1.33-1.84c-1.55-1.77-3.38-3.36-4.6-5.33c-0.66-1.06-1.18-2.27-1.94-3.31
		c-1.1-1.51-0.99-1.38-2.43,0.11c-0.85,0.88-2.11,1.51-3.3,1.86c-2.48,0.73-5.02,1.31-7.57,1.73c-4.58,0.76-9.08,1.88-13.78,2.11
		c-2.11,0.1-4.44,0.1-6.41,0.69c-3.19,0.96-6.46,1.37-9.67,1.63c-2.38,0.2-4.78,1.34-7.16,0.57c-1.45-0.47-1.48,0.7-2.11,1.24
		c-1.08,0.92-0.11,1.52,0.34,2.1c1.86,2.38,3.99,4.53,6.51,6.2c1.27,0.85,2.5,1.63,3.38,2.91c0.25,0.36,0.67,0.61,1.05,0.86
		c1.4,0.96,2.81,1.89,4.2,2.84c1.4,0.96,2.77,1.95,4.18,2.89c0.56,0.37,1.35,0.48,1.79,0.94c1.35,1.43,3.28,2.23,4.48,3.64
		c1.49,1.74,3.73,1.74,5.27,3.12c0.32,0.28,1.11,0.15,1.28,0.44c1.53,2.63,4.98,2.34,6.76,4.53c2.45,0.05,4.11,1.96,6.2,2.85
		c1.98,0.85,3.87,2.26,5.78,3.46c2.87,1.79,5.45,1.81,8.12-0.06c4.53-3.17,8.09-7.31,11.48-11.62c0.49-0.63,1.04-1.22,1.58-1.81
		c1.97-2.1,4.01-4.14,5.92-6.3c1.8-2.03,2.87-4.63,4.87-6.53c1.58-1.51,2.97-3.15,4.29-5.82c-0.16,0.09-0.32,0.18-0.47,0.28
		c0.09,0.12,0.18,0.25,0.27,0.37c0.13-0.13,0.28-0.24,0.39-0.39C285.23,275.3,285.09,275.16,284.85,275.1z M313.1,315.01
		c0.62-1.97,0.47-3.79,1.61-5.32c0.45-0.6-0.01-1.82,0.12-2.73c0.12-0.82,0.55-1.59,0.74-2.4c0.22-0.95,0.31-1.92,0.46-2.89
		c0.13-0.84,0.02-1.85,0.45-2.49c0.55-0.82,0.44-1.46,0.38-2.34c-0.05-0.8,0.8-1.61,1-2.48c0.35-1.54,0.51-3.13,0.76-4.69
		c0.22-1.45,0.63-2.89,0.62-4.34c-0.02-1.53,1.09-2.64,1.1-4.18c0.01-1.4,0.73-2.79,0.97-4.21c0.83-5.05,1.71-10.1,2.27-15.19
		c0.15-1.4,2.14-2.47,0.72-4.09c0.43-1.19,1.37-2.47,1.17-3.54c-0.27-1.46-0.22-2.8,0.06-4.17c0.1-0.51,0.77-0.9,0.88-1.41
		c0.13-0.65,0.03-1.38-0.13-2.04c-0.07-0.28-0.3-0.99-0.95-0.44c-0.37,0.32-0.9,0.5-1.15,0.88c-0.93,1.42-2.08,2.47-3.81,2.76
		c-0.67,1.9-2.52,2.57-3.99,3.47c-2.48,1.52-4.52,3.43-6.56,5.46c-1.04,1.04-2.68,1.45-3.9,2.35c-1.32,0.97-2.45,2.18-3.68,3.28
		c-0.07,0.06-0.24-0.02-0.33,0.03c-3.89,1.85-7.26,4.22-8.85,8.5c-0.26,0.71-0.96,1.26-1.48,1.86c-2.29,2.68-4.76,5.22-6.71,8.18
		c-0.93,1.41-1.94,2.8-3.04,4.08c-1.13,1.3-2.07,2.72-3.36,3.94c-1.22,1.16-1.98,2.83-3.55,3.74c-0.31,0.18-0.66,0.39-0.82,0.68
		c-1.93,3.56-5.47,5.78-7.6,9.22c-0.89,1.44-2.53,2.43-3.88,3.57c-0.84,0.71-2.22,1.13-2.55,1.99c-0.74,1.94-2.51,2.05-3.91,2.65
		c-1.22,0.52-2.74,0.63-4.08,0.5c-1.62-0.16-3.19-0.75-4.77-1.22c-0.3-0.09-0.52-0.45-0.76-0.69c-1.88-1.91-4.44-2.68-6.69-3.95
		c-2.94-1.66-5.68-3.76-9.02-4.67c-3.15-2.82-7.35-4-10.56-6.67c-0.87-0.73-1.25-0.41-1.6,0.07c-1.95,2.63-4.25,5.13-5.57,8.06
		c-1.12,2.5-3.22,3.86-4.75,5.83c-1.18,1.51-2.84,1.89-4.86,1.46c-1.2-0.26-2.02-1.3-3.18-1.28c-1.54,0.03-2.27-1.04-2.65-2.09
		c-0.38-1.06-0.6-2.59-0.11-3.47c1.8-3.24,2.92-6.88,5.77-9.56c1.8-1.68,3.11-3.89,4.62-5.87c0.63-0.83,0.45-2.3-0.3-2.25
		c-1.73,0.1-2.1-1.44-3.12-2.12c-2.15-1.45-3.44-4.07-6.27-4.66c-1.68-2-3.44-3.95-5-6.05c-0.49-0.66-0.61-1.73-0.6-2.6
		c0.01-0.99-0.19-1.24-1.19-1.06c-1.56,0.28-3.17,0.65-4.72,0.53c-2.67-0.21-5.34-0.6-7.94-1.22c-2.51-0.6-4.97-2-5.87-4.37
		c-1.72-4.53-3.96-8.91-4.69-13.8c-0.1-0.64-0.34-1.28-0.42-1.99c-0.41-3.7-0.55-7.46-1.92-11c-0.2-0.53-0.63-1.17-0.48-1.59
		c0.85-2.4-1.06-4.44-0.7-6.86c0.23-1.53-1.1-3.22-1.16-4.87c-0.07-1.74,0.06-3.49-0.82-5.03c-0.95-1.66,0.38-3.45-0.51-5.11
		c-0.48-0.89,0.52-1.98-0.27-3.09c-0.4-0.56-0.96-1.84,0.25-2.58c-0.07-1.99-1.92-4.32-3.9-4.8c-0.15-0.04-0.63,0.5-0.62,0.76
		c0.03,0.67,0.41,1.33,0.36,1.98c-0.06,0.78,0.02,1.64-0.79,2.3c-0.25,0.2,0.24,1.19,0.18,1.8c-0.15,1.45-0.52,2.89-0.62,4.34
		c-0.09,1.37,0.04,2.76,0.07,4.15c-2.03,0.96-0.14,2.48-0.5,3.76c-1.25,4.4-0.24,9.08-1.42,13.53c-0.06,0.23-0.2,0.56-0.1,0.71
		c1.36,2.09-0.33,4.27,0.27,6.55c0.54,2.05-0.55,4.53-0.86,6.82c-0.27,1.97-0.98,3.94-0.19,5.96c-1.14,3.72-0.29,7.6-0.95,11.39
		c-0.53,3.02-0.52,6.13-0.74,9.2c1.16,0.84-0.51,1.38-0.26,1.91c0.86,1.81,0.16,3.54-0.14,5.25c-0.62,3.53,0.21,7.17-0.86,10.67
		c-0.06,0.21-0.08,0.55,0.04,0.67c0.4,0.37,0.43,1.52,1.49,0.64c0.59-0.49,1.54-0.55,2.15-1.03c1.15-0.88,2.53-1.04,3.83-1.47
		c0.23-0.08,0.62-0.1,0.76,0.03c0.72,0.67,2.02,0.89,1.91,2.24c-0.1,1.28-0.83,1.75-2.12,1.86c-0.86,0.07-1.66,0.75-2.52,1.02
		c-1.85,0.58-3.6,1.28-5.18,2.74c1.33,1.4,2.46,2.78,3.79,3.92c1.8,1.55,3.81,2.85,5.62,4.4c1.49,1.27,3.78,1.16,4.93,2.96
		c2.99-0.16,4.83,2.86,7.77,2.82c2.06,2.12,5.09,1.94,7.58,3.11c1.39,0.65,3.03,1.14,4.6,1.55c1.69,0.45,3.37,0.88,5.04,1.42
		c3.87,1.26,7.98,1.78,11.95,2.75c1.57,0.38,3.47-0.25,4.69,1.4c0.1,0.14,0.72,0.05,0.97-0.12c0.84-0.55,1.5-0.35,2.27,0.19
		c0.54,0.38,1.25,0.61,1.92,0.73c1.92,0.35,3.85,0.61,5.78,0.91c1.81,0.28,3.61,0.56,5.42,0.84c1.45,2.08,3.48,0.38,5.18,0.81
		c0.66,0.17,1.29,0.47,1.92,0.73c1.43,0.6,2.83,1.03,4.43,0.53c0.56-0.18,1.3,0.13,1.93,0.3c0.41,0.11,0.94,0.65,1.15,0.53
		c1.82-1.04,3.6-0.14,5.25,0.25c2.61,0.62,5.22-0.23,7.78,0.38c1.36-1,2.76-0.14,4.15-0.11c1.38,0.02,2.8-0.26,4.14-0.04
		c2.23,0.36,4.37-0.07,6.55-0.28c3.29-0.31,6.62-0.12,9.86-0.94c0.11-0.03,0.25,0.01,0.36,0.05c1.18,0.49,2.29-0.15,3.43-0.23
		c1.12-0.08,2.24-0.31,3.36-0.48c1.12-0.17,2.27-0.22,3.34-0.55c4.11-1.28,8.39-1.72,12.57-2.65c3.73-0.82,7.26-2.11,10.32-4.48
		c1.74-1.35,2.05-3.79,0.34-5.22c-3.67-3.08-7.33-6.27-12.28-7.21c-0.34-0.07-0.64-0.36-0.98-0.45c-1.12-0.29-1.88-1.29-3.17-1.36
		c-0.84-0.04-1.64-0.73-2.49-1.05c-0.86-0.32-1.82-0.07-2.64-0.91c-0.56-0.58-1.25-0.77-1.01-1.84c0.21-0.91,0.36-1.53,1.49-1.44
		c0.54,0.04,1.51-0.44,1.58-0.3c0.59,1.08,1.66,0.31,2.47,0.78c2.59,1.53,5.54,2.25,8.42,3.03c1.73,0.47,3.25,1.1,4.48,2.41
		c0.3,0.32,0.75,0.49,1.14,0.72C309.09,311.48,311.26,312.76,313.1,315.01z M311.31,327.89c-1.06,0.36-1.85,0.5-2.5,0.86
		c-3.73,2.11-7.75,3.13-11.98,3.68c-2.66,0.35-5.24,1.31-7.89,1.84c-2.88,0.58-5.78,1.06-8.69,1.43c-3.49,0.45-7,0.9-10.51,1.07
		c-3.34,0.17-6.66,0.72-10.04,0.26c-2.32-0.32-4.81-0.76-6.99-0.23c-1.75,0.43-3.33-0.55-4.84,0.07c-1.76,0.72-3.29-0.3-4.94-0.24
		c-0.68,0.02-1.38,0.24-2.04,0.13c-0.71-0.11-1.55-0.91-2.03-0.7c-1.45,0.64-2.82,0.31-4.17,0c-2.17-0.51-4.61,0.02-6.49-1.68
		c-0.14-0.13-0.63,0.22-0.96,0.21c-1.3-0.05-2.95,0.31-3.8-0.36c-1.3-1.01-2.67-0.9-4.01-1.22c-1.18-0.28-2.41-0.36-3.61-0.59
		c-1.17-0.22-2.56-0.19-3.43-0.84c-0.93-0.69-2.28,0.88-2.77-0.76c-1,1.04-1.39-0.67-2.33-0.52c-0.91,0.15-1.92-0.23-2.88-0.38
		c-2.41-0.37-4.94-0.41-7.18-1.24c-1.44-0.53-2.84-1.24-4.33-1.22c-1.67,0.02-2.79-1.18-4.29-1.47c-1.72-0.33-3.41-0.48-5.07-1.4
		c-1.45-0.81-3.53-0.31-4.95-1.61c-4.84-0.81-9.03-3.4-13.46-5.22c-4.32-1.77-8.38-4.47-11.76-7.91c-0.73-0.74-1.47-1.47-2.24-2.17
		c-0.15-0.14-0.55-0.22-0.67-0.13c-0.15,0.12-0.18,0.46-0.17,0.69c0.02,0.33,0.22,0.67,0.18,0.99c-0.12,1.09-0.32,2.17-0.49,3.25
		c-0.15,0.96-0.31,1.93-0.44,2.89c-0.15,1.04-0.29,2,0.19,3.1c0.33,0.77-0.5,2.34-0.08,2.72c1.29,1.13-1.13,1.78-0.12,2.66
		c-0.79,1.28,0.18,2.74-0.42,4.06c-0.68,1.49,0.1,3.01,0.02,4.5c-0.2,3.5,0.36,6.62,3.49,8.86c1.3,0.93,2.2,2.42,3.5,3.36
		c1.37,0.99,2.76,1.97,4.18,2.87c2.95,1.86,6.04,3.51,9.13,5.13c1.41,0.74,3.19,0.92,4.38,1.88c1.99,1.59,4.44,1.81,6.63,2.75
		c1.69,0.73,3.59,0.72,5.4,1.49c2.9,1.23,6.17,1.61,9.29,2.31c0.95,0.21,2.18-0.01,2.84,0.52c1.54,1.26,3.37,1,5.06,1.46
		c1.8,0.49,3.55,1.22,5.38,1.53c5.89,1,11.8,1.87,17.7,2.75c0.91,0.14,1.87,0.12,2.79,0.04c0.87-0.08,1.68,1.55,2.57,0.07
		c0.55,1.51,1.52-0.04,2.31,0.31c0.86,0.38,2,0.18,2.78,0.64c0.55,0.33,0.72,0.35,1.34,0.21c0.88-0.21,1.89,0.24,2.85,0.25
		c0.9,0.01,1.89-0.48,2.69-0.24c2.24,0.68,4.56,0.47,6.67,0.1c2.11-0.37,4.45,0.58,6.38-0.95c0.21-0.17,0.72-0.09,1.03,0.02
		c2.69,1,5.29-0.44,7.94-0.27c1.25-1.32,2.74,0.18,4.09-0.35c1.91-0.76,3.95-0.93,5.93-1.34c2.97-0.61,5.93-1.38,8.93-1.84
		c1.48-0.23,2.92-0.32,4.24-1.19c1.34-0.88,3.38,0.32,4.52-1.37c2.6,0.22,4.26-2.2,6.71-2.41c3.33-2.36,6.05-5.13,6.55-9.47
		c0.06-0.54,0.48-1.04,0.62-1.58c0.11-0.41-0.13-1.13,0.07-1.25c1.13-0.69-0.85-1.51,0.12-2.06c1.2-0.68,1.05-1.92,1.05-2.9
		c0.02-3.25,1.94-6.13,1.71-9.41C311.27,331.1,310.76,329.47,311.31,327.89z M286.53,181.93c4.93,0.76,4.94,0.77,7.72-2.28
		c0.37-0.41,0.75-0.95,0.81-1.46c0.1-0.94,0.58-1.48,1.28-2.02c0.62-0.48,0.98-1.32,1.62-1.75c2.94-2,4.18-5.49,6.89-7.7
		c0.47-0.38,0.37-0.89-0.4-1.32c-1.71-0.95-3.3-2.1-5.34-2.27c-0.85-0.07-1.78-0.05-2.51-0.41c-3.29-1.63-6.76-2.6-10.39-3.05
		c-0.6-0.07-1.48,0.04-1.76-0.31c-1.18-1.47-3.19-0.55-4.26-1.45c-1.48-1.23-3.16-0.9-4.72-1.36c-0.69-0.21-1.51-0.09-2.15-0.39
		c-0.83-0.38-1.44-1.07-2.49-1.13c-0.89-0.05-1.82-0.02-2.65-0.84c-0.41-0.41-1.66,0.06-2.53,0.08c-0.36,0.01-0.89,0.03-1.06-0.18
		c-1.15-1.42-2.87-0.97-4.31-1.38c-2.96-0.84-6.28-0.15-8.99-2.11c-0.13-0.09-0.45,0.02-0.65,0.1c-1.43,0.58-2.68,0.31-3.94-0.57
		c-0.54-0.38-1.49-0.73-1.99-0.51c-1.83,0.82-3.52-0.01-5.26-0.13c-0.6-0.04-1.44-0.41-1.74-0.14c-1.04,0.93-2.28-0.25-3.05,0.33
		c-0.82,0.62-1.36-0.73-2.29,0.1c-0.52,0.47-2.06-0.23-3.15-0.38c-0.92-0.12-1.81,0.09-2.72,0.2c-3.63,0.46-7.31,0.52-10.98,0.62
		c-1.98,0.06-4.2-0.68-5.88,0.01c-1.61,0.66-3.05-0.63-4.47,0.37c-0.95,0.67-2.19-0.5-3.4,0.47c-0.86,0.69-2.35,0.73-3.57,0.8
		c-2.06,0.11-4.07,0.39-5.96,1.21c-2.01,0.87-4.25,0.28-6.33,1.25c-0.95,0.44-2.25,1.03-3.16,1.04c-1.77,0.04-3.35,0.26-5.07,0.75
		c-1.46,0.42-2.88,0.72-4.12,1.63c-0.37,0.27-0.83,0.62-1.23,0.59c-3.78-0.23-5.28,2.89-7.45,5c-2.35,2.28-0.68,5.09-0.94,7.65
		c-0.03,0.27,0.37,0.62,0.62,0.88c2.29,2.29,4.77,4.38,6.94,6.8c0.88,0.98,2.01,1.59,3.57,0.91c1.43-0.62,3.01-0.97,4.56-1.21
		c2.14-0.33,4.12-1.22,6.22-1.57c2.35-0.39,4.91,0.01,7.12-0.72c1.49-0.49,2.75,0.08,4.14-0.12c2.57-0.38,5.26,0.23,7.85-0.67
		c0.41-0.14,0.95,0.13,1.43,0.19c0.48,0.06,1.01,0.28,1.42,0.13c1.71-0.6,3.34-0.7,5.03,0.09c0.49,0.23,1.24,0.28,1.73,0.08
		c2.3-0.95,4.59-0.61,6.91-0.21c0.78,0.13,1.53,0.19,2.41-0.05c1.51-0.41,3.21-0.45,4.79-0.26c5.35,0.65,10.66,1.43,16.06,1.83
		c6.9,0.51,13.75,1.91,20.59,3.08c2.29,0.39,4.56,1.08,6.71,1.94c2.12,0.86,4.06,1.92,6.27,0.28c0.3-0.22,0.93-0.15,1.36-0.03
		c0.8,0.24,1.34-0.12,1.99-0.49c0.56-0.31,1.31-0.4,1.97-0.38C284.6,181.55,285.56,181.78,286.53,181.93z M165.57,209.3
		c0.38,0.86,0.83,1.4,0.77,1.86c-0.22,1.77,0.92,3.44,0.64,5.03c-0.36,2,0.36,3.63,0.61,5.44c0.15,1.12,0.41,2.24,0.6,3.35
		c0.44,2.55,1.13,5.06,1.51,7.62c0.35,2.35,0.17,4.77,1.15,7.02c0.26,0.61,0.42,1.31,0.43,1.97c0.06,2.97,0.87,5.84,1.45,8.69
		c0.85,4.19,1.57,8.56,4.24,12.17c0.2,2.2,1.87,2.73,3.61,3.09c1.43,0.3,2.88,0.56,4.33,0.66c1.49,0.1,3.05-0.23,4.49,0.05
		c1.36,0.27,2.58,0.02,3.77-0.35c3.31-1.03,6.65-1.61,10.11-1.26c0.77,0.08,1.36,0.04,2-0.47c0.4-0.32,1.11-0.55,1.59-0.44
		c1.67,0.39,3.19-0.26,4.78-0.45c1.12-0.13,2.22-0.49,3.34-0.55c4.2-0.23,8.34-1.01,12.51-1.48c2.33-0.26,4.66-1.12,6.95-1.31
		c2.54-0.22,4.91-0.84,7.32-1.43c1.64-0.4,3.21-1.07,4.8-1.61c-3.4-5.67-8.17-10.37-11.67-16.03c-1.24-2-2.19-4.09-3.18-6.19
		c-0.73-1.56-1.4-3.14-2.18-4.67c-0.18-0.35-0.69-0.65-1.1-0.74c-1.43-0.29-2.98-0.23-4.3-0.76c-1.27-0.52-2.36-0.9-3.78-0.58
		c-0.7,0.16-1.56-0.54-2.38-0.68c-0.89-0.15-2.25,0.24-2.62-0.23c-0.64-0.81-1.64,0.41-2.17-0.78c-0.22-0.49-1.8-0.36-2.76-0.51
		c-0.96-0.15-2.41,0.04-2.79-0.51c-0.95-1.38-1.99,0.49-2.74-0.35c-1.07-1.2-2.74-0.76-3.88-1.42c-1.4-0.81-2.84-1.02-4.33-1.34
		c-0.55-0.12-1.17-0.3-1.56-0.66c-1.58-1.47-3.48-1.73-5.52-1.78c0.25,1.54,0.38,2.98,0.74,4.36c0.27,1.03,0.5,2.01,0.25,3.07
		c-0.2,0.83-0.62,1.84-0.34,2.5c0.73,1.67,0.25,3.41,0.61,5.08c0.35,1.66,0.3,3.41,0.78,5.02c0.55,1.86,0.45,3.8,0.91,5.69
		c0.47,1.94,0.83,3.96,1.27,5.95c0.27,1.22,0,2.59-0.21,3.86c-0.11,0.68-2.52,1-2.96,0.44c-0.45-0.56-1.16-1.18-1.17-1.78
		c-0.05-2.2-1.09-4.24-1.2-6.3c-0.25-4.56-1.22-9-1.8-13.49c-0.33-2.55-0.25-5.08-0.14-7.58c0.1-2.13-0.33-4.1-0.62-6.13
		c-0.33-2.38-1.98-3.47-3.93-4.2C176.42,214.13,171.16,211.89,165.57,209.3z M259.23,229.56c2.47,0.38,4.39,0.74,6.33,0.94
		c0.73,0.07,1.82,0.95,2.16-0.23c0.16-0.57-0.5-1.6-1.07-2.09c-0.84-0.72-1.68-1.53-2.94-1.67c-1-0.12-2.27,0.17-2.87-1.1
		c-1.09,1.01-2.28,0.31-3.4,0.16c-3.74-0.52-7.47-1.16-11.21-1.69c-0.83-0.12-1.7,0.12-2.52-0.01c-0.91-0.15-1.77-0.53-2.66-0.81
		c-1.06-0.33-1.57-1.11-1.4-2.11c0.17-0.98,1-1.74,2.02-1.46c3.75,1.04,7.62,0.29,11.39,0.97c2.28,0.41,4.57,0.78,6.87,1.04
		c0.99,0.11,2.47-0.57,2.94-0.1c0.93,0.94,1.96,0.85,2.97,1.01c1.36,0.22,2.38,0.88,3.19,1.93c1.16,1.49,2.17,3.09,3.72,4.28
		c0.83,0.64,1.17,2.06,2.04,2.5c0.78,0.39,1.99-0.17,3.01-0.15c2.35,0.06,4.81,0.71,7.01,0.2c2.73-0.63,5.5-0.67,8.14-0.68
		c4.17-0.02,8.17-1.14,12.26-1.13c1.34,0,2.53-1.95,3.91-0.27l14.87-3.2c0.32-0.35,1.27-0.45,0.44-1.26
		c-0.43-0.42-0.63-1.22-1.11-1.42c-1.74-0.72-2.15-2.52-3.29-3.7c-1.14-1.18-2.3-2.36-3.29-3.67c-0.69-0.91-0.87-2.33-1.7-3
		c-1.81-1.47-3.09-3.33-4.3-5.22c-1.03-1.6-2.6-2.04-4.02-1.7c-3.43,0.82-6.92,1.09-10.36,1.75c-3.45,0.66-6.97,0.71-10.42,1.46
		c-1.02,0.22-2.26,0.39-3.4,0.32c-3.07-0.2-6.14-0.44-9.21-0.67c-0.24-0.02-0.54-0.18-0.71-0.09c-1.64,0.89-3.31,0.3-4.87-0.08
		c-1.68-0.41-3.26,0.06-4.89,0.04c-2.35-0.02-4.63-1.48-7.05-0.37c-0.14,0.07-0.5-0.09-0.62-0.24c-0.83-1.09-1.69-1-2.79-0.34
		c-0.34,0.2-1.27-0.09-1.59-0.46c-0.63-0.71-1.07-0.37-1.81-0.28c-1.35,0.16-2.44,0.55-3.51,1.37c-2.71,2.07-5.54,4-8.23,6.1
		c-1.37,1.07-2.57,2.38-3.82,3.6c-1.2,1.18-1.33,2.79-1.34,4.29c-0.01,0.96,0.49,2.02,1.06,2.83c0.32,0.46,1.24,0.56,1.92,0.68
		c2.76,0.46,5.53,1.03,8.31,1.25c2.71,0.22,5.33,1.73,8.13,0.6C253.94,229.7,257.1,228.64,259.23,229.56z M180.29,210.77
		c0.12-0.24,0.24-0.48,0.36-0.71c-1.86-1.28-3.68-2.63-5.6-3.83c-1.48-0.93-2.84-1.95-3.88-3.38c-0.3-0.42-0.54-0.67,0.07-1.07
		c0.34-0.23,0.48-1.06,0.72-1.07c0.95-0.03,2.2-0.18,2.81,0.34c2.01,1.7,4.53,2.59,6.51,4.25c2.73,2.3,2.68,2.27,6.67,2.94
		c1.91,0.32,3.69,0.01,5.52-0.26c0.45-0.07,0.95-0.32,1.33-0.18c1.77,0.63,3.53,0.12,5.18-0.23c0.76-0.16,1.51,0.98,2.23-0.11
		c0.14-0.21,1.16,0.29,1.74,0.21c1.77-0.24,1.41,1.38,1.75,2.14c0.43,0.96-0.68,1.48-1.44,1.6c-2.69,0.42-5.41,1-8.09,0.91
		c-2.45-0.08-4.8,0.53-7.21,0.49c-0.23,0-0.62,0.35-0.66,0.59c-0.04,0.24,0.18,0.71,0.4,0.8c2.24,0.88,4.46,1.85,6.77,2.48
		c0.95,0.26,1.65,0.76,2.47,1.17c0.71,0.35,1.57,0.12,2.29,0.83c0.43,0.42,1.29-0.43,2.28,0.38c1.25,1.03,3.16,1.34,4.84,1.71
		c2.14,0.48,4.33,0.7,6.49,1.04c2.09,0.33,3.9,2.36,6.28,1c0.11-0.06,0.49,0.44,0.79,0.59c0.41,0.2,1.04,0.56,1.28,0.4
		c1.23-0.82,2.05,0.07,3.06,0.46c0.84,0.32,1.82,0.25,2.81,0.36c-0.58-3.59-0.48-6.75,2.09-9.38c1.53-1.56,2.76-3.39,4.51-4.78
		c0.85-0.68,2.04-0.61,2.73-1.82c0.59-1.03,2.01-1.58,3.1-2.37c-0.33-0.21-0.51-0.43-0.71-0.43c-1.14-0.03-2.18-0.57-3.47,0.1
		c-1.15,0.59-2.35-0.69-3.52-1.18c-0.21-0.09-0.54-0.14-0.69-0.04c-1.53,1.09-3.03-0.11-4.53-0.03c-1.42,0.07-2.6-1.3-4.1-0.64
		c-1.21-1.55-3.1-0.97-4.64-1.46c-1.55-0.49-3.07-1.22-4.65-1.4c-2.62-0.3-4.82-2.11-7.53-1.96c-1.15-1.31-2.82-1.02-4.28-1.42
		c-1.45-0.4-2.83-1.14-4.3-1.33c-1.68-0.22-3.45-0.55-4.56-1.6c-1.36-1.29-3.06-0.93-4.51-1.72c-3.85-2.11-8.02-2.89-12.43-1.7
		c-1.19,0.32-2.53,0.48-3.73,0.28c-2-0.34-3.55,0.36-5.33,1.13c-1.96,0.85-2.73,2.27-2.49,3.92c0.13,0.92,0.14,1.81,0.23,2.72
		c0.09,0.9,0.43,1.71,0.35,2.71c-0.16,1.82,0.98,3,2.73,3.7c2.21,0.88,4.36,1.93,6.57,2.84
		C176.67,209.49,178.49,210.1,180.29,210.77z M305.27,201.66c-0.82-1-1.66-2.1-2.56-3.13c-1-1.14-2.09-2.21-3.08-3.36
		c-1.78-2.07-3.49-4.2-5.27-6.27c-0.28-0.33-0.77-0.74-1.12-0.7c-1.57,0.19-2.5-1.24-3.92-1.4c-1.45-0.16-2.9-0.36-4.32-0.67
		c-1.74-0.38-3.22,0.12-4.59,1.13c-0.98,0.72-1.95,1.46-2.95,2.15c-0.37,0.25-0.93,0.65-1.22,0.53c-1.71-0.7-2.64,0.64-3.89,1.26
		c-1.36,0.67-2.45,1.7-3.85,2.33c-1.52,0.69-2.77,1.95-4.16,2.94c-0.27,0.19-0.63,0.26-0.93,0.42c-3.14,1.68-6.61,2.88-9.12,6
		c1.6,0.25,3.02,0.47,4.44,0.68c1.31,0.19,2.84,0.87,3.9,0.43c1.57-0.65,2.82,0.06,4.2,0.11c1.32,0.05,2.81,0.79,3.9,0.38
		c1.56-0.59,2.84-0.03,4.2,0.16c1.31,0.18,2.7-0.41,3.74-0.08c1.3,0.42,2.71-0.97,3.78,0.43c1.21-1.14,2.66,0.24,3.73-0.25
		c1.33-0.6,2.55-1.09,3.99-0.77c1.35,0.3,2.43-0.38,3.63-0.77c1.26-0.41,2.64,0.32,4.13-0.13c1.16-0.35,2.43-0.94,3.55-0.93
		C302.89,202.14,304.21,202.07,305.27,201.66z M334.78,190.58c-0.07-0.78,0.06-1.45-0.2-1.91c-1.04-1.85-2.06-3.75-3.35-5.42
		c-1.12-1.45-2.81-2.47-3.86-3.96c-1.19-1.69-2.96-2.55-4.4-3.86c-1.42-1.29-3.15-2.27-4.47-3.64c-0.89-0.93-1.44-0.65-2.07-0.02
		c-1.78,1.78-3.33,3.81-4.79,5.79c-1.19,1.62-2.72,3.05-3.65,4.87c-0.95,1.87-2.56,3.19-3.87,4.75c-0.52,0.61-1.06,1.2-1.58,1.81
		c-0.45,0.53-0.62,1.08,0.22,1.35c2.29,0.74,4.18,2.55,6.75,2.55c0.31,0,0.63,0.24,0.93,0.4c3.23,1.84,6.77,3.1,9.76,5.38
		c0.82,0.63,1.84,0.86,2.97,0.25c1.19-0.64,2.48-1.18,3.79-1.5c2.69-0.66,4.54-2.57,6.49-4.26
		C334.16,192.56,334.39,191.38,334.78,190.58z M229.81,179.85c0-0.03,0.01-0.05,0.01-0.08c-1.43-0.14-2.9-0.53-4.29-0.35
		c-2.44,0.33-4.82,0.67-7.27,0.14c-2.32-0.5-4.73,0.54-7.04-0.35c-0.1-0.04-0.27-0.06-0.34,0c-1.56,1.22-3.34-0.14-5.11,0.51
		c-1.63,0.6-3.68,0.1-5.54-0.01c-0.73-0.04-1.31,0-2.02,0.36c-1.14,0.58-2.45,0.61-3.76,0.27c-0.65-0.17-1.39,0.05-2.03,0.09
		c-2.29,0.12-4.35,1.4-6.82,0.86c-1.52-0.33-3.31,0.47-4.95,0.86c-0.34,0.08-0.71,0.54-0.8,0.9c-0.06,0.23,0.33,0.76,0.61,0.84
		c1.56,0.46,3.14,0.8,4.22,2.22c0.13,0.17,0.82-0.11,1.25-0.16c3.16-0.34,6.28-0.97,9.48-1.14c2.16-0.12,4.37,0.11,6.48-0.43
		c0.67-0.17,1.23-0.56,2-0.4c1.85,0.39,3.65-0.4,5.45-0.37c2.21,0.03,4.28-0.69,6.45-0.72c1.98-0.02,4.04,0.44,5.94,0.07
		c2.03-0.4,4.01-0.74,6.07-0.78c2.07-0.04,4.11-0.72,6.21-0.22c0.78,0.19,1.54,0.02,2.38-0.16c2.4-0.53,5.48,1.41,6.52,3.69
		c0.24,0.52,0.48,1.04,0.74,1.56c1.88,3.73,2.41,6.09,2.61,10.5c0.04,0.99,0.49,1.96,0.82,2.92c0.17,0.51,0.45,0.64,1.02,0.26
		c0.85-0.58,1.91-0.87,2.75-1.46c0.78-0.55,2.14-0.31,2.33-1.66c3.07-1.01,5.36-3.37,8.21-4.79c2.32-1.16,4.45-2.71,6.67-4.09
		c1.55,0.42,1.01-1.82,2.29-1.79c0.51,0.01,1.31,0.25,1.3-0.7c-0.01-1.17-1.04-0.73-1.63-0.89c-1.8-0.51-3.81-0.14-5.4-1.55
		c-0.53-0.47-1.35-0.16-1.93,0.36c-0.42-0.95-1.37-1.21-2.1-0.89c-1.37,0.6-2.41,0.48-3.51-0.54c-0.34-0.31-1.3-0.42-1.64-0.17
		c-0.98,0.72-1.88,0.17-2.78,0.07c-1.45-0.15-2.89-0.43-4.34-0.65c-1.33-0.2-2.65-0.52-3.98-0.58c-1.38-0.06-2.79-1.15-4.15,0.07
		c-0.96-2.04-2.5-0.42-3.74-0.52c-1.04-0.08-1.7-1.16-3.05-0.63C232.4,180.68,231.02,180.03,229.81,179.85z M242.73,201.83
		c-0.33-2.02-0.54-3.59-0.84-5.14c-0.62-3.11-0.88-6.32-2.88-9.03c-0.96-1.3-1.94-1.76-3.59-1.5c-3.17,0.5-6.38,0.75-9.61,0.47
		c-0.46-0.04-1.05-0.22-1.38-0.02c-1.64,1.01-3.33,0.69-5.1,0.56c-1.43-0.1-2.9,0.37-4.36,0.55c-1.24,0.15-2.52,0.49-3.72,0.31
		c-2-0.31-3.9,0.23-5.85,0.3c-3.98,0.14-7.86,1.48-11.99,1.04c0.55,0.63,1.17,1.35,1.81,1.37c4.23,0.12,7.51,3.52,11.8,3.35
		c0.87,1.29,2.34,0.94,3.55,1.3c0.65,0.19,1.25,0.61,1.91,0.73c0.57,0.1,1.29-0.29,1.78-0.08c0.99,0.43,1.98,1.71,2.77,1.56
		c1.23-0.23,1.99,1.28,3.38,0.42c0.61-0.38,2.01,0.53,3.05,0.83c1.22,0.35,2.65,0,3.59,1.26c0.21,0.28,0.95,0.31,1.4,0.23
		c1.55-0.29,3.09-0.81,4.42,0.56c1.67-1.02,3.27,0.11,4.89,0.19C239.32,201.18,240.86,201.55,242.73,201.83z M314.53,205.59
		c0.89,1.01,1.69,1.82,2.39,2.72c3.7,4.73,7.38,9.47,11.06,14.21c0.15,0.19,0.27,0.41,0.44,0.58c0.42,0.43,1.16,0.15,1.28-0.51
		c0.2-1.07,0.59-2.2,0.44-3.23c-0.17-1.14,1.59-1.82,0.53-3.01c0.44-2.71,0.49-2.75-0.61-4.12c-1.26-1.55-2.47-3.2-3.98-4.48
		c-1.61-1.37-3.53-2.37-5.35-3.49c-0.29-0.18-0.74-0.25-1.06-0.16C317.92,204.56,316.2,205.09,314.53,205.59z M161.55,175.31
		c-0.58,3.73-1.16,7.4-1.69,11.08c-0.06,0.39,0.19,0.82,0.3,1.22c0.43-0.14,0.91-0.19,1.27-0.43c1.99-1.34,3.59-3.18,5.79-4.27
		c0.98-0.48,0.93-1.17,0.11-1.98C165.46,179.1,163.58,177.29,161.55,175.31z M334.09,198.9c-1.45,0.69-2.61,1.22-3.76,1.79
		c-1.04,0.52-2.08,1.04-3.07,1.63c-0.25,0.15-0.48,0.59-0.45,0.86c0.02,0.23,0.44,0.58,0.69,0.58c1.35,0.03,2.2,0.7,2.87,1.83
		c0.46,0.78,1.16,1.41,1.77,2.13c0.37-0.38,0.64-0.52,0.67-0.71C333.25,204.4,333.65,201.77,334.09,198.9z M306.9,197.38
		c0.77,0.46,1.85,0.74,2.24,1.41c1.27,2.2,3.33,1.86,5.3,1.99C312.43,198.59,309.72,197.87,306.9,197.38z M160.81,200.09
		c-0.08-1.89-0.17-3.77-0.27-6.04C159.09,196.31,160.25,198.21,160.81,200.09z"/>
	<path class="st0" d="M313.1,315.01c-1.84-2.25-4-3.53-6.18-4.79c-0.39-0.23-0.84-0.4-1.14-0.72c-1.23-1.31-2.75-1.95-4.48-2.41
		c-2.88-0.78-5.83-1.5-8.42-3.03c-0.81-0.48-1.88,0.3-2.47-0.78c-0.08-0.14-1.04,0.34-1.58,0.3c-1.13-0.09-1.28,0.53-1.49,1.44
		c-0.25,1.07,0.45,1.26,1.01,1.84c0.81,0.84,1.78,0.59,2.64,0.91c0.85,0.32,1.64,1,2.49,1.05c1.29,0.07,2.05,1.06,3.17,1.36
		c0.34,0.09,0.64,0.38,0.98,0.45c4.95,0.94,8.61,4.13,12.28,7.21c1.71,1.43,1.4,3.87-0.34,5.22c-3.06,2.37-6.59,3.66-10.32,4.48
		c-4.18,0.92-8.46,1.37-12.57,2.65c-1.07,0.33-2.22,0.38-3.34,0.55c-1.12,0.17-2.23,0.4-3.36,0.48c-1.14,0.08-2.25,0.73-3.43,0.23
		c-0.11-0.05-0.25-0.08-0.36-0.05c-3.24,0.81-6.57,0.63-9.86,0.94c-2.19,0.21-4.32,0.63-6.55,0.28c-1.34-0.22-2.76,0.07-4.14,0.04
		c-1.39-0.02-2.79-0.88-4.15,0.11c-2.56-0.61-5.17,0.24-7.78-0.38c-1.65-0.39-3.43-1.29-5.25-0.25c-0.21,0.12-0.74-0.42-1.15-0.53
		c-0.63-0.17-1.37-0.47-1.93-0.3c-1.6,0.5-3,0.07-4.43-0.53c-0.63-0.27-1.26-0.57-1.92-0.73c-1.7-0.43-3.73,1.27-5.18-0.81
		c-1.81-0.28-3.61-0.56-5.42-0.84c-1.93-0.3-3.86-0.56-5.78-0.91c-0.67-0.12-1.37-0.35-1.92-0.73c-0.77-0.54-1.43-0.74-2.27-0.19
		c-0.25,0.17-0.87,0.25-0.97,0.12c-1.22-1.65-3.12-1.02-4.69-1.4c-3.97-0.97-8.08-1.49-11.95-2.75c-1.67-0.54-3.35-0.97-5.04-1.42
		c-1.56-0.42-3.21-0.9-4.6-1.55c-2.49-1.16-5.52-0.99-7.58-3.11c-2.94,0.03-4.78-2.98-7.77-2.82c-1.15-1.8-3.44-1.68-4.93-2.96
		c-1.81-1.54-3.82-2.84-5.62-4.4c-1.33-1.15-2.46-2.53-3.79-3.92c1.58-1.46,3.34-2.16,5.18-2.74c0.87-0.27,1.66-0.95,2.52-1.02
		c1.29-0.11,2.01-0.58,2.12-1.86c0.11-1.35-1.18-1.57-1.91-2.24c-0.14-0.13-0.53-0.11-0.76-0.03c-1.29,0.43-2.68,0.58-3.83,1.47
		c-0.62,0.47-1.56,0.54-2.15,1.03c-1.06,0.87-1.09-0.27-1.49-0.64c-0.12-0.11-0.11-0.46-0.04-0.67c1.07-3.49,0.24-7.13,0.86-10.67
		c0.3-1.71,1-3.44,0.14-5.25c-0.25-0.53,1.42-1.07,0.26-1.91c0.23-3.07,0.21-6.18,0.74-9.2c0.67-3.79-0.18-7.67,0.95-11.39
		c-0.79-2.01-0.08-3.98,0.19-5.96c0.32-2.29,1.4-4.77,0.86-6.82c-0.6-2.29,1.08-4.46-0.27-6.55c-0.1-0.15,0.03-0.48,0.1-0.71
		c1.18-4.44,0.18-9.13,1.42-13.53c0.36-1.28-1.53-2.8,0.5-3.76c-0.03-1.38-0.17-2.77-0.07-4.15c0.1-1.45,0.47-2.89,0.62-4.34
		c0.06-0.61-0.43-1.6-0.18-1.8c0.81-0.66,0.73-1.51,0.79-2.3c0.05-0.65-0.33-1.31-0.36-1.98c-0.01-0.25,0.47-0.79,0.62-0.76
		c1.97,0.48,3.83,2.81,3.9,4.8c-1.21,0.74-0.65,2.02-0.25,2.58c0.79,1.11-0.2,2.2,0.27,3.09c0.9,1.67-0.43,3.45,0.51,5.11
		c0.87,1.53,0.75,3.28,0.82,5.03c0.06,1.64,1.39,3.34,1.16,4.87c-0.36,2.43,1.54,4.47,0.7,6.86c-0.15,0.42,0.28,1.07,0.48,1.59
		c1.37,3.54,1.51,7.3,1.92,11c0.08,0.71,0.32,1.35,0.42,1.99c0.74,4.89,2.97,9.28,4.69,13.8c0.9,2.37,3.36,3.77,5.87,4.37
		c2.6,0.62,5.28,1.01,7.94,1.22c1.55,0.12,3.16-0.25,4.72-0.53c1-0.18,1.21,0.07,1.19,1.06c-0.01,0.88,0.11,1.94,0.6,2.6
		c1.56,2.1,3.32,4.04,5,6.05c2.82,0.59,4.12,3.21,6.27,4.66c1.01,0.69,1.39,2.23,3.12,2.12c0.75-0.04,0.93,1.42,0.3,2.25
		c-1.51,1.99-2.83,4.19-4.62,5.87c-2.86,2.68-3.97,6.32-5.77,9.56c-0.49,0.89-0.27,2.42,0.11,3.47c0.38,1.05,1.11,2.11,2.65,2.09
		c1.16-0.02,1.98,1.03,3.18,1.28c2.02,0.43,3.69,0.04,4.86-1.46c1.53-1.97,3.63-3.33,4.75-5.83c1.32-2.93,3.63-5.42,5.57-8.06
		c0.35-0.48,0.72-0.8,1.6-0.07c3.21,2.68,7.41,3.85,10.56,6.67c3.34,0.92,6.08,3.01,9.02,4.67c2.25,1.27,4.81,2.04,6.69,3.95
		c0.24,0.25,0.46,0.6,0.76,0.69c1.58,0.46,3.15,1.06,4.77,1.22c1.34,0.14,2.86,0.02,4.08-0.5c1.4-0.6,3.17-0.71,3.91-2.65
		c0.33-0.86,1.72-1.29,2.55-1.99c1.35-1.14,3-2.13,3.88-3.57c2.12-3.44,5.66-5.66,7.6-9.22c0.16-0.29,0.51-0.51,0.82-0.68
		c1.57-0.91,2.34-2.58,3.55-3.74c1.28-1.22,2.23-2.64,3.36-3.94c1.11-1.28,2.11-2.66,3.04-4.08c1.96-2.96,4.42-5.5,6.71-8.18
		c0.52-0.6,1.21-1.16,1.48-1.86c1.59-4.28,4.96-6.65,8.85-8.5c0.1-0.05,0.27,0.03,0.33-0.03c1.23-1.1,2.36-2.31,3.68-3.28
		c1.22-0.9,2.85-1.31,3.9-2.35c2.04-2.03,4.08-3.93,6.56-5.46c1.46-0.9,3.32-1.56,3.99-3.47c1.73-0.29,2.88-1.34,3.81-2.76
		c0.25-0.38,0.78-0.57,1.15-0.88c0.65-0.56,0.88,0.16,0.95,0.44c0.16,0.66,0.26,1.39,0.13,2.04c-0.1,0.51-0.77,0.9-0.88,1.41
		c-0.28,1.37-0.33,2.71-0.06,4.17c0.2,1.07-0.74,2.35-1.17,3.54c1.42,1.62-0.57,2.69-0.72,4.09c-0.56,5.09-1.45,10.14-2.27,15.19
		c-0.23,1.42-0.96,2.8-0.97,4.21c-0.01,1.54-1.12,2.65-1.1,4.18c0.01,1.44-0.4,2.89-0.62,4.34c-0.24,1.57-0.4,3.15-0.76,4.69
		c-0.2,0.87-1.06,1.68-1,2.48c0.06,0.88,0.16,1.51-0.38,2.34c-0.43,0.65-0.32,1.65-0.45,2.49c-0.15,0.96-0.25,1.94-0.46,2.89
		c-0.19,0.82-0.61,1.59-0.74,2.4c-0.13,0.91,0.33,2.13-0.12,2.73C313.56,311.22,313.72,313.04,313.1,315.01z M182.76,287.16
		c0.82-3.5-0.16-5.99-2.97-7.79c-1.16-0.74-1.76-0.71-2.89,0.42c-0.83,0.83-0.96,2.02,0.15,2.71c0.91,0.57,1.26,1.28,1.38,2.09
		c0.2,1.37,0.44,2.83-1.02,3.83c-0.99,0.68-3.99,1.15-4.69,0.29c-0.62-0.78-1.2-1.95-0.79-3.17c0.04-0.11,0.02-0.25,0.06-0.36
		c0.47-1.18-0.87-0.84-1.16-1.39c-0.54-1.03-0.97-0.09-1.31,0.15c-1.44,1.03-1.69,2.95-1.37,5.04c0.45,2.92,3.1,3.09,4.9,4.21
		c1.04,0.65,2.88,1.05,3.83,0.55c1.65-0.87,3.36-1.81,4.76-3.22C182.78,289.39,182.36,288.05,182.76,287.16z M270.69,317.16
		c-0.01,0.19-0.45,1.37-0.05,2.04c0.84,1.38,2.05,2.57,3.28,3.64c0.35,0.31,1.46,0.15,1.96-0.18c1.9-1.26,1.87-2.21-0.25-3.12
		c-1.24-0.53-0.47-1.73-1.25-2.25c0.46-0.5,0.87-1.07,1.4-1.48c0.33-0.25,0.84-0.3,1.29-0.37c0.69-0.11,1.66-0.48,2.02-0.17
		c0.65,0.56,1.54,1.27,1.16,2.45c-0.11,0.34-0.21,0.73-0.16,1.08c0.18,1.22,1.37,1.74,2.82,1.86c1.2,0.09,1.39-0.3,1.55-1.3
		c0.22-1.41,0.16-2.75-0.11-4.15c-0.61-3.21-3.86-5.32-6.99-4.48c-1.33,0.36-2.57,0.92-3.83,1.42c-1.62,0.64-2.33,1.62-2.55,3.19
		C270.93,315.69,270.87,316.05,270.69,317.16z"/>
	<path class="st1" d="M311.31,327.89c-0.55,1.58-0.04,3.21-1.3,4.45c0.23,3.27-1.69,6.15-1.71,9.41c-0.01,0.98,0.15,2.21-1.05,2.9
		c-0.97,0.55,1.01,1.37-0.12,2.06c-0.2,0.12,0.03,0.85-0.07,1.25c-0.14,0.54-0.56,1.04-0.62,1.58c-0.5,4.34-3.22,7.11-6.55,9.47
		c-2.45,0.21-4.11,2.63-6.71,2.41c-1.15,1.69-3.18,0.5-4.52,1.37c-1.33,0.87-2.76,0.96-4.24,1.19c-3,0.46-5.96,1.23-8.93,1.84
		c-1.98,0.41-4.03,0.58-5.93,1.34c-1.35,0.54-2.84-0.97-4.09,0.35c-2.65-0.17-5.25,1.27-7.94,0.27c-0.31-0.12-0.82-0.19-1.03-0.02
		c-1.93,1.53-4.27,0.58-6.38,0.95c-2.11,0.37-4.43,0.58-6.67-0.1c-0.8-0.24-1.79,0.25-2.69,0.24c-0.96-0.01-1.97-0.46-2.85-0.25
		c-0.62,0.15-0.79,0.13-1.34-0.21c-0.77-0.46-1.92-0.27-2.78-0.64c-0.79-0.35-1.76,1.21-2.31-0.31c-0.88,1.48-1.7-0.15-2.57-0.07
		c-0.92,0.09-1.87,0.1-2.79-0.04c-5.91-0.88-11.82-1.75-17.7-2.75c-1.83-0.31-3.58-1.04-5.38-1.53c-1.69-0.46-3.51-0.2-5.06-1.46
		c-0.65-0.53-1.89-0.31-2.84-0.52c-3.12-0.7-6.39-1.08-9.29-2.31c-1.81-0.77-3.71-0.77-5.4-1.49c-2.19-0.94-4.64-1.15-6.63-2.75
		c-1.19-0.96-2.97-1.14-4.38-1.88c-3.09-1.63-6.18-3.28-9.13-5.13c-1.42-0.89-2.82-1.88-4.18-2.87c-1.3-0.94-2.2-2.43-3.5-3.36
		c-3.14-2.24-3.69-5.35-3.49-8.86c0.08-1.5-0.7-3.02-0.02-4.5c0.61-1.32-0.37-2.78,0.42-4.06c-1.01-0.87,1.41-1.52,0.12-2.66
		c-0.42-0.37,0.41-1.95,0.08-2.72c-0.47-1.1-0.33-2.06-0.19-3.1c0.14-0.97,0.3-1.93,0.44-2.89c0.17-1.08,0.36-2.17,0.49-3.25
		c0.04-0.32-0.16-0.66-0.18-0.99c-0.01-0.24,0.02-0.57,0.17-0.69c0.11-0.1,0.51-0.01,0.67,0.13c0.77,0.7,1.52,1.42,2.24,2.17
		c3.38,3.44,7.44,6.14,11.76,7.91c4.43,1.82,8.63,4.41,13.46,5.22c1.43,1.31,3.5,0.81,4.95,1.61c1.66,0.92,3.35,1.08,5.07,1.4
		c1.49,0.28,2.61,1.48,4.29,1.47c1.49-0.02,2.89,0.69,4.33,1.22c2.24,0.83,4.77,0.86,7.18,1.24c0.96,0.15,1.97,0.53,2.88,0.38
		c0.94-0.15,1.32,1.55,2.33,0.52c0.48,1.63,1.83,0.06,2.77,0.76c0.87,0.65,2.26,0.62,3.43,0.84c1.2,0.22,2.43,0.3,3.61,0.59
		c1.34,0.32,2.72,0.21,4.01,1.22c0.85,0.66,2.51,0.3,3.8,0.36c0.32,0.01,0.82-0.33,0.96-0.21c1.88,1.7,4.32,1.17,6.49,1.68
		c1.35,0.32,2.72,0.65,4.17,0c0.47-0.21,1.32,0.58,2.03,0.7c0.65,0.11,1.36-0.11,2.04-0.13c1.64-0.06,3.18,0.96,4.94,0.24
		c1.51-0.62,3.09,0.36,4.84-0.07c2.19-0.54,4.68-0.09,6.99,0.23c3.38,0.47,6.71-0.09,10.04-0.26c3.51-0.18,7.02-0.62,10.51-1.07
		c2.91-0.38,5.81-0.85,8.69-1.43c2.65-0.53,5.22-1.5,7.89-1.84c4.23-0.55,8.25-1.57,11.98-3.68
		C309.47,328.38,310.25,328.25,311.31,327.89z"/>
	<path class="st1" d="M284.85,275.1c-1.15,2.63-2.54,4.28-4.12,5.79c-1.99,1.9-3.07,4.49-4.87,6.53c-1.91,2.16-3.95,4.2-5.92,6.3
		c-0.55,0.58-1.09,1.18-1.58,1.81c-3.39,4.3-6.94,8.44-11.48,11.62c-2.67,1.87-5.25,1.85-8.12,0.06c-1.91-1.19-3.8-2.61-5.78-3.46
		c-2.09-0.9-3.75-2.8-6.2-2.85c-1.79-2.19-5.24-1.9-6.76-4.53c-0.17-0.29-0.97-0.16-1.28-0.44c-1.55-1.37-3.79-1.38-5.27-3.12
		c-1.2-1.4-3.13-2.21-4.48-3.64c-0.44-0.46-1.23-0.57-1.79-0.94c-1.41-0.93-2.78-1.93-4.18-2.89c-1.4-0.96-2.81-1.89-4.2-2.84
		c-0.37-0.26-0.8-0.5-1.05-0.86c-0.88-1.28-2.1-2.07-3.38-2.91c-2.51-1.67-4.64-3.82-6.51-6.2c-0.45-0.57-1.42-1.17-0.34-2.1
		c0.63-0.54,0.66-1.7,2.11-1.24c2.38,0.77,4.78-0.38,7.16-0.57c3.21-0.26,6.48-0.67,9.67-1.63c1.97-0.59,4.29-0.59,6.41-0.69
		c4.69-0.23,9.2-1.35,13.78-2.11c2.55-0.42,5.09-1,7.57-1.73c1.19-0.35,2.45-0.99,3.3-1.86c1.44-1.49,1.33-1.62,2.43-0.11
		c0.76,1.04,1.28,2.25,1.94,3.31c1.22,1.97,3.05,3.56,4.6,5.33c0.49,0.57,0.9,1.21,1.33,1.84c0.13,0.19,0.17,0.59,0.28,0.6
		c2.45,0.19,3.22,2.55,4.89,3.69c2,1.36,4.25,2.36,6.73,2.57c1.23,0.1,1.89-0.48,2.12-1.81c0.24-1.36-0.14-2.28-1.3-2.47
		c-2.48-0.42-4.53-1.54-6.36-3.22c-1-0.92-2.26-1.6-3.13-2.63c-2.63-3.11-5.09-6.37-7.69-9.52c-1.2-1.45-2.23-3.01-3.61-4.38
		c-1.11-1.11-1.3-3.2-3.11-3.96c-0.3-1.73-1.5-2.95-2.51-4.24c-0.86-1.1-1.95-2.02-2.85-3.09c-2.6-3.09-4.07-6.81-5.74-10.42
		c-0.25-0.54-0.71-0.99-1.34-1.86c2.88,0.3,5.51,0.48,7.93,1.33c1.34,0.47,2.56,0.09,3.84,0.32c6.48,1.17,13,2.11,19.51,3.06
		c1.12,0.16,2.18,0.39,3.47-0.02c1.32-0.42,3.1-0.05,3.96,1.71c0.52,1.07,1.69,1.65,2.16,2.89c0.42,1.1,1.43,1.96,2.08,2.98
		c0.68,1.08,1.2,2.26,1.86,3.36c0.44,0.73,1.04,1.36,1.49,2.08c0.7,1.13,1.96,1.78,2.39,3.18c0.37,1.22,1.7,1.89,1.96,3.36
		c0.19,1.07,2.14,0.94,2.9-0.12c1.16-1.63,1.34-3.23-0.2-4.53c-1.23-1.04-1.46-2.51-2.44-3.61c-0.99-1.12-1.82-2.39-2.43-3.88
		c-0.7-1.7-2.15-3.18-3.55-4.46c-0.63-0.57-0.47-0.95-0.44-1.48c0.05-0.91,0.66-0.73,1.28-0.71c1.14,0.04,2.2-0.52,3.44-0.25
		c1.08,0.23,2.28-0.18,3.41-0.13c2.88,0.13,5.73-0.7,8.53-0.53c1.74,0.1,3.33-0.67,4.93-0.33c1.84,0.39,3.21-1.22,5.08-0.88
		c0.53,0.1,1.53-0.18,2.31-0.31c1.49-0.24,3.09,0.49,4.5-0.64c0.48-0.39,1.37-0.66,1.92-0.49c2.21,0.69,4.05-0.59,6.07-0.88
		c1.94-0.28,3.84-0.54,5.54-1.56c0.97-0.58,1.38,0.17,1.65,0.77c1.33,2.9,0.02,7.77-2.19,9.97c-2.42,2.4-5.3,4.25-7.61,6.76
		c-0.55,0.6-1.36,0.97-2.08,1.39c-0.49,0.28-1.42,0.36-1.5,0.7c-0.39,1.54-1.93,1.42-2.82,2.2c-1.07,0.93-2.48,1.68-3.12,2.85
		c-0.73,1.34-2.12,1.19-3.04,2.02c-1.09,0.99-3.07,1.3-3.72,2.44c-0.82,1.45-2.82,1.1-3.22,2.73c-2.87,0.62-4.46,3.5-7.34,4.14
		c-0.54,0.12-1.22,0.58-1.44,1.06c-1.24,2.66-4.01,3.02-6.18,4.28c-0.7,0.41-1.49,0.69-2.14,1.16c-1.84,1.31-1.87,2.04-0.49,3.76
		c0.86,1.07,1.71,1.16,2.75,0.34C283.61,275.98,283.99,275.72,284.85,275.1z M235.26,289c0.03,1.97,1.27,3.3,2.66,3.8
		c1.96,0.69,3.75,1.74,5.67,2.38c2.46,0.82,5.11,0.84,7.35-1.02c1-0.83,2.13-1.57,2.92-2.58c0.69-0.87,1.94-1.19,2.07-2.75
		c0.09-1.18,2.28-1.18,2.57-2.74c0.09-0.51,0.78-0.9,0.87-1.41c0.1-0.58,0.75-1.78-0.31-1.73c-1.01,0.05-1.5-1.81-2.67-0.51
		c-0.93,1.04-2.06,1.9-2.98,2.94c-0.74,0.84-1.28,1.85-1.93,2.77c-1.54,2.16-3.57,3.48-6.26,2.85c-0.94-0.22-1.77-0.95-2.85-1.15
		c-0.99-0.18-2.11-0.52-2.81-1.18C237.75,286.99,236.43,287.8,235.26,289z"/>
	<path class="st1" d="M286.53,181.93c-0.96-0.15-1.92-0.38-2.89-0.42c-0.66-0.03-1.41,0.06-1.97,0.38
		c-0.65,0.37-1.19,0.73-1.99,0.49c-0.42-0.13-1.06-0.19-1.36,0.03c-2.2,1.64-4.15,0.58-6.27-0.28c-2.15-0.87-4.43-1.55-6.71-1.94
		c-6.84-1.17-13.69-2.57-20.59-3.08c-5.4-0.4-10.71-1.18-16.06-1.83c-1.57-0.19-3.27-0.15-4.79,0.26c-0.89,0.24-1.63,0.19-2.41,0.05
		c-2.33-0.4-4.61-0.74-6.91,0.21c-0.49,0.2-1.24,0.15-1.73-0.08c-1.69-0.79-3.33-0.7-5.03-0.09c-0.41,0.14-0.94-0.07-1.42-0.13
		c-0.48-0.06-1.03-0.33-1.43-0.19c-2.59,0.91-5.28,0.3-7.85,0.67c-1.39,0.2-2.65-0.37-4.14,0.12c-2.21,0.73-4.76,0.33-7.12,0.72
		c-2.1,0.35-4.08,1.24-6.22,1.57c-1.55,0.24-3.13,0.59-4.56,1.21c-1.56,0.68-2.69,0.07-3.57-0.91c-2.18-2.42-4.66-4.51-6.94-6.8
		c-0.26-0.26-0.65-0.61-0.62-0.88c0.26-2.56-1.41-5.38,0.94-7.65c2.18-2.11,3.68-5.23,7.45-5c0.4,0.02,0.86-0.32,1.23-0.59
		c1.24-0.91,2.65-1.22,4.12-1.63c1.72-0.49,3.3-0.71,5.07-0.75c0.91-0.02,2.21-0.6,3.16-1.04c2.07-0.97,4.32-0.38,6.33-1.25
		c1.89-0.83,3.9-1.1,5.96-1.21c1.22-0.07,2.71-0.11,3.57-0.8c1.21-0.97,2.44,0.2,3.4-0.47c1.42-1,2.86,0.28,4.47-0.37
		c1.68-0.68,3.9,0.05,5.88-0.01c3.67-0.1,7.35-0.16,10.98-0.62c0.91-0.11,1.79-0.33,2.72-0.2c1.09,0.15,2.63,0.84,3.15,0.38
		c0.92-0.83,1.46,0.52,2.29-0.1c0.77-0.58,2.01,0.6,3.05-0.33c0.3-0.27,1.14,0.1,1.74,0.14c1.74,0.12,3.43,0.95,5.26,0.13
		c0.5-0.22,1.45,0.13,1.99,0.51c1.26,0.88,2.51,1.15,3.94,0.57c0.2-0.08,0.52-0.19,0.65-0.1c2.71,1.96,6.03,1.27,8.99,2.11
		c1.45,0.41,3.16-0.04,4.31,1.38c0.17,0.21,0.7,0.19,1.06,0.18c0.87-0.02,2.12-0.49,2.53-0.08c0.83,0.82,1.77,0.79,2.65,0.84
		c1.05,0.06,1.67,0.76,2.49,1.13c0.64,0.29,1.45,0.18,2.15,0.39c1.56,0.46,3.23,0.13,4.72,1.36c1.08,0.89,3.08-0.02,4.26,1.45
		c0.28,0.35,1.15,0.24,1.76,0.31c3.63,0.45,7.1,1.42,10.39,3.05c0.73,0.36,1.66,0.34,2.51,0.41c2.04,0.17,3.63,1.32,5.34,2.27
		c0.77,0.43,0.86,0.94,0.4,1.32c-2.71,2.2-3.95,5.7-6.89,7.7c-0.64,0.44-1,1.28-1.62,1.75c-0.71,0.54-1.18,1.08-1.28,2.02
		c-0.06,0.51-0.44,1.05-0.81,1.46C291.47,182.7,291.46,182.69,286.53,181.93z"/>
	<path class="st1" d="M165.57,209.3c5.59,2.59,10.86,4.84,16.22,6.85c1.95,0.73,3.6,1.82,3.93,4.2c0.28,2.04,0.71,4,0.62,6.13
		c-0.11,2.49-0.19,5.03,0.14,7.58c0.58,4.5,1.55,8.93,1.8,13.49c0.11,2.07,1.15,4.1,1.2,6.3c0.01,0.6,0.72,1.22,1.17,1.78
		c0.44,0.55,2.85,0.23,2.96-0.44c0.21-1.27,0.48-2.64,0.21-3.86c-0.44-1.99-0.8-4.01-1.27-5.95c-0.46-1.89-0.36-3.83-0.91-5.69
		c-0.47-1.61-0.42-3.37-0.78-5.02c-0.36-1.67,0.12-3.4-0.61-5.08c-0.29-0.66,0.14-1.67,0.34-2.5c0.26-1.07,0.02-2.04-0.25-3.07
		c-0.36-1.38-0.49-2.82-0.74-4.36c2.04,0.06,3.94,0.32,5.52,1.78c0.39,0.36,1.01,0.54,1.56,0.66c1.48,0.31,2.93,0.52,4.33,1.34
		c1.14,0.66,2.81,0.22,3.88,1.42c0.75,0.84,1.79-1.03,2.74,0.35c0.38,0.55,1.83,0.36,2.79,0.51c0.96,0.15,2.54,0.03,2.76,0.51
		c0.53,1.19,1.53-0.03,2.17,0.78c0.37,0.47,1.73,0.08,2.62,0.23c0.82,0.14,1.68,0.84,2.38,0.68c1.42-0.32,2.5,0.06,3.78,0.58
		c1.32,0.53,2.87,0.47,4.3,0.76c0.41,0.08,0.92,0.39,1.1,0.74c0.78,1.53,1.45,3.12,2.18,4.67c0.99,2.1,1.94,4.19,3.18,6.19
		c3.49,5.66,8.27,10.36,11.67,16.03c-1.59,0.54-3.16,1.21-4.8,1.61c-2.41,0.59-4.79,1.21-7.32,1.43c-2.28,0.2-4.61,1.05-6.95,1.31
		c-4.17,0.47-8.31,1.25-12.51,1.48c-1.12,0.06-2.22,0.42-3.34,0.55c-1.58,0.18-3.11,0.84-4.78,0.45c-0.48-0.11-1.19,0.12-1.59,0.44
		c-0.64,0.51-1.23,0.55-2,0.47c-3.46-0.35-6.81,0.23-10.11,1.26c-1.19,0.37-2.41,0.61-3.77,0.35c-1.44-0.28-3,0.06-4.49-0.05
		c-1.45-0.1-2.9-0.36-4.33-0.66c-1.74-0.36-3.41-0.88-3.61-3.09c-2.67-3.61-3.38-7.98-4.24-12.17c-0.58-2.85-1.38-5.73-1.45-8.69
		c-0.01-0.66-0.17-1.36-0.43-1.97c-0.98-2.26-0.81-4.68-1.15-7.02c-0.38-2.56-1.07-5.07-1.51-7.62c-0.19-1.11-0.45-2.23-0.6-3.35
		c-0.25-1.81-0.97-3.44-0.61-5.44c0.28-1.59-0.86-3.26-0.64-5.03C166.4,210.69,165.94,210.16,165.57,209.3z M210.53,238.98
		c-1,0.88-2.33,1.55-2.87,2.63c-1.25,2.48,0.32,5.12,3.07,5.64c0.48,0.09,0.96,0.16,1.44,0.22c2.62,0.34,4.71-1.14,6.24-3.46
		c0.86-1.3,0.61-2.28,0.3-3.4c-0.36-1.3-1.6-1.41-2.66-1.39c-1.05,0.02-1.71,0.71-1.74,1.86c-0.01,0.48-0.03,1.02-0.25,1.43
		c-0.16,0.3-0.63,0.62-0.96,0.62c-0.51-0.01-1.44,0.08-1.15-0.87C212.41,240.75,211.09,240.13,210.53,238.98z"/>
	<path class="st1" d="M259.23,229.56c-2.13-0.91-5.29,0.14-7.71-1.89c-2.8,1.13-5.43-0.38-8.13-0.6c-2.79-0.23-5.55-0.79-8.31-1.25
		c-0.68-0.11-1.6-0.22-1.92-0.68c-0.57-0.8-1.06-1.87-1.06-2.83c0.01-1.5,0.13-3.11,1.34-4.29c1.25-1.22,2.45-2.53,3.82-3.6
		c2.69-2.1,5.52-4.02,8.23-6.1c1.07-0.82,2.16-1.2,3.51-1.37c0.73-0.09,1.18-0.44,1.81,0.28c0.32,0.37,1.26,0.66,1.59,0.46
		c1.1-0.67,1.96-0.75,2.79,0.34c0.12,0.16,0.47,0.31,0.62,0.24c2.42-1.12,4.7,0.34,7.05,0.37c1.62,0.02,3.21-0.46,4.89-0.04
		c1.56,0.38,3.23,0.98,4.87,0.08c0.17-0.09,0.47,0.07,0.71,0.09c3.07,0.23,6.14,0.47,9.21,0.67c1.14,0.08,2.38-0.09,3.4-0.32
		c3.45-0.75,6.97-0.8,10.42-1.46c3.44-0.66,6.93-0.93,10.36-1.75c1.42-0.34,2.98,0.1,4.02,1.7c1.21,1.88,2.49,3.74,4.3,5.22
		c0.83,0.67,1,2.09,1.7,3c0.99,1.31,2.15,2.48,3.29,3.67c1.14,1.19,1.55,2.99,3.29,3.7c0.48,0.2,0.68,1,1.11,1.42
		c0.83,0.81-0.12,0.9-0.44,1.26l-14.87,3.2c-1.37-1.68-2.57,0.28-3.91,0.27c-4.09-0.01-8.09,1.11-12.26,1.13
		c-2.64,0.01-5.41,0.05-8.14,0.68c-2.2,0.51-4.66-0.14-7.01-0.2c-1.02-0.02-2.23,0.54-3.01,0.15c-0.87-0.44-1.2-1.85-2.04-2.5
		c-1.55-1.2-2.56-2.79-3.72-4.28c-0.81-1.05-1.82-1.71-3.19-1.93c-1.01-0.16-2.04-0.07-2.97-1.01c-0.47-0.47-1.95,0.21-2.94,0.1
		c-2.3-0.26-4.59-0.63-6.87-1.04c-3.77-0.68-7.64,0.07-11.39-0.97c-1.02-0.28-1.85,0.49-2.02,1.46c-0.17,1,0.34,1.78,1.4,2.11
		c0.88,0.28,1.75,0.66,2.66,0.81c0.82,0.13,1.7-0.11,2.52,0.01c3.74,0.53,7.47,1.17,11.21,1.69c1.12,0.16,2.32,0.86,3.4-0.16
		c0.6,1.27,1.86,0.99,2.87,1.1c1.27,0.15,2.1,0.96,2.94,1.67c0.57,0.49,1.24,1.52,1.07,2.09c-0.34,1.18-1.44,0.31-2.16,0.23
		C263.62,230.3,261.7,229.94,259.23,229.56z"/>
	<path class="st1" d="M180.29,210.77c-1.8-0.66-3.62-1.28-5.39-2.01c-2.21-0.9-4.35-1.95-6.57-2.84c-1.75-0.7-2.88-1.88-2.73-3.7
		c0.09-1-0.26-1.81-0.35-2.71c-0.09-0.91-0.1-1.8-0.23-2.72c-0.24-1.65,0.53-3.07,2.49-3.92c1.78-0.77,3.33-1.47,5.33-1.13
		c1.2,0.2,2.54,0.04,3.73-0.28c4.41-1.19,8.58-0.41,12.43,1.7c1.45,0.79,3.15,0.43,4.51,1.72c1.1,1.05,2.88,1.38,4.56,1.6
		c1.46,0.19,2.85,0.93,4.3,1.33c1.45,0.4,3.13,0.11,4.28,1.42c2.71-0.15,4.9,1.66,7.53,1.96c1.58,0.18,3.1,0.91,4.65,1.4
		c1.55,0.49,3.43-0.09,4.64,1.46c1.5-0.67,2.68,0.71,4.1,0.64c1.51-0.07,3,1.13,4.53,0.03c0.15-0.11,0.48-0.05,0.69,0.04
		c1.17,0.49,2.37,1.77,3.52,1.18c1.3-0.67,2.33-0.13,3.47-0.1c0.19,0.01,0.38,0.23,0.71,0.43c-1.1,0.79-2.51,1.35-3.1,2.37
		c-0.69,1.2-1.88,1.14-2.73,1.82c-1.75,1.39-2.98,3.22-4.51,4.78c-2.57,2.63-2.67,5.78-2.09,9.38c-0.99-0.11-1.98-0.04-2.81-0.36
		c-1.01-0.39-1.83-1.29-3.06-0.46c-0.24,0.16-0.87-0.2-1.28-0.4c-0.3-0.14-0.68-0.65-0.79-0.59c-2.38,1.36-4.2-0.67-6.28-1
		c-2.17-0.34-4.36-0.56-6.49-1.04c-1.68-0.37-3.6-0.69-4.84-1.71c-0.98-0.81-1.85,0.05-2.28-0.38c-0.72-0.71-1.58-0.48-2.29-0.83
		c-0.82-0.4-1.52-0.91-2.47-1.17c-2.31-0.63-4.53-1.6-6.77-2.48c-0.22-0.09-0.45-0.55-0.4-0.8c0.04-0.24,0.43-0.59,0.66-0.59
		c2.41,0.04,4.76-0.57,7.21-0.49c2.69,0.08,5.41-0.5,8.09-0.91c0.77-0.12,1.87-0.64,1.44-1.6c-0.34-0.76,0.01-2.38-1.75-2.14
		c-0.58,0.08-1.59-0.42-1.74-0.21c-0.72,1.08-1.47-0.06-2.23,0.11c-1.65,0.35-3.41,0.86-5.18,0.23c-0.37-0.13-0.88,0.12-1.33,0.18
		c-1.83,0.27-3.61,0.58-5.52,0.26c-4-0.67-3.94-0.65-6.67-2.94c-1.98-1.66-4.5-2.55-6.51-4.25c-0.61-0.52-1.86-0.37-2.81-0.34
		c-0.24,0.01-0.38,0.84-0.72,1.07c-0.6,0.4-0.37,0.65-0.07,1.07c1.04,1.43,2.4,2.45,3.88,3.38c1.91,1.2,3.74,2.55,5.6,3.83
		C180.54,210.29,180.41,210.53,180.29,210.77z"/>
	<path class="st1" d="M305.27,201.66c-1.06,0.41-2.37,0.48-3.8,0.47c-1.12-0.01-2.39,0.58-3.55,0.93c-1.49,0.45-2.87-0.28-4.13,0.13
		c-1.21,0.4-2.29,1.07-3.63,0.77c-1.44-0.32-2.66,0.16-3.99,0.77c-1.07,0.48-2.52-0.89-3.73,0.25c-1.06-1.4-2.47-0.01-3.78-0.43
		c-1.04-0.33-2.43,0.26-3.74,0.08c-1.35-0.19-2.64-0.75-4.2-0.16c-1.09,0.41-2.58-0.33-3.9-0.38c-1.38-0.05-2.64-0.77-4.2-0.11
		c-1.06,0.44-2.58-0.24-3.9-0.43c-1.42-0.21-2.84-0.44-4.44-0.68c2.51-3.12,5.98-4.31,9.12-6c0.3-0.16,0.66-0.23,0.93-0.42
		c1.39-0.99,2.64-2.25,4.16-2.94c1.4-0.64,2.49-1.67,3.85-2.33c1.25-0.61,2.18-1.96,3.89-1.26c0.29,0.12,0.85-0.28,1.22-0.53
		c1-0.69,1.97-1.43,2.95-2.15c1.37-1.01,2.85-1.51,4.59-1.13c1.42,0.31,2.87,0.51,4.32,0.67c1.42,0.16,2.35,1.59,3.92,1.4
		c0.34-0.04,0.84,0.37,1.12,0.7c1.78,2.07,3.49,4.2,5.27,6.27c0.99,1.15,2.08,2.22,3.08,3.36
		C303.61,199.56,304.45,200.65,305.27,201.66z"/>
	<path class="st1" d="M334.78,190.58c-0.39,0.8-0.62,1.98-1.33,2.59c-1.96,1.69-3.81,3.6-6.49,4.26c-1.31,0.32-2.6,0.86-3.79,1.5
		c-1.12,0.61-2.15,0.38-2.97-0.25c-3-2.28-6.53-3.55-9.76-5.38c-0.29-0.17-0.62-0.4-0.93-0.4c-2.58,0-4.46-1.81-6.75-2.55
		c-0.84-0.27-0.67-0.82-0.22-1.35c0.52-0.61,1.06-1.19,1.58-1.81c1.32-1.56,2.92-2.89,3.87-4.75c0.93-1.82,2.45-3.25,3.65-4.87
		c1.46-1.98,3.01-4.01,4.79-5.79c0.63-0.63,1.18-0.91,2.07,0.02c1.32,1.37,3.05,2.35,4.47,3.64c1.44,1.31,3.21,2.18,4.4,3.86
		c1.05,1.49,2.74,2.51,3.86,3.96c1.29,1.67,2.31,3.57,3.35,5.42C334.84,189.13,334.71,189.8,334.78,190.58z"/>
	<path class="st0" d="M229.81,179.85c1.2,0.19,2.59,0.83,3.57,0.45c1.35-0.52,2.02,0.55,3.05,0.63c1.24,0.1,2.78-1.52,3.74,0.52
		c1.35-1.22,2.77-0.13,4.15-0.07c1.33,0.06,2.65,0.38,3.98,0.58c1.45,0.22,2.89,0.5,4.34,0.65c0.91,0.09,1.8,0.65,2.78-0.07
		c0.34-0.25,1.3-0.14,1.64,0.17c1.1,1.02,2.13,1.14,3.51,0.54c0.73-0.32,1.67-0.06,2.1,0.89c0.57-0.52,1.4-0.83,1.93-0.36
		c1.59,1.41,3.6,1.05,5.4,1.55c0.59,0.17,1.62-0.28,1.63,0.89c0.01,0.95-0.79,0.71-1.3,0.7c-1.28-0.02-0.74,2.21-2.29,1.79
		c-2.21,1.38-4.34,2.93-6.67,4.09c-2.85,1.42-5.14,3.78-8.21,4.79c-0.19,1.36-1.55,1.12-2.33,1.66c-0.84,0.59-1.89,0.88-2.75,1.46
		c-0.57,0.39-0.85,0.25-1.02-0.26c-0.33-0.96-0.78-1.94-0.82-2.92c-0.2-4.41-0.73-6.77-2.61-10.5c-0.26-0.51-0.5-1.04-0.74-1.56
		c-1.04-2.27-4.12-4.22-6.52-3.69c-0.84,0.19-1.6,0.35-2.38,0.16c-2.1-0.5-4.14,0.17-6.21,0.22c-2.07,0.04-4.05,0.38-6.07,0.78
		c-1.9,0.37-3.95-0.09-5.94-0.07c-2.16,0.03-4.24,0.75-6.45,0.72c-1.8-0.03-3.6,0.76-5.45,0.37c-0.77-0.16-1.33,0.23-2,0.4
		c-2.11,0.54-4.33,0.31-6.48,0.43c-3.2,0.17-6.32,0.8-9.48,1.14c-0.43,0.05-1.12,0.33-1.25,0.16c-1.08-1.41-2.67-1.75-4.22-2.22
		c-0.28-0.08-0.66-0.62-0.61-0.84c0.09-0.35,0.47-0.82,0.8-0.9c1.65-0.39,3.43-1.19,4.95-0.86c2.47,0.53,4.54-0.74,6.82-0.86
		c0.64-0.03,1.38-0.26,2.03-0.09c1.31,0.34,2.62,0.31,3.76-0.27c0.71-0.36,1.29-0.41,2.02-0.36c1.86,0.1,3.91,0.61,5.54,0.01
		c1.77-0.65,3.55,0.71,5.11-0.51c0.07-0.06,0.24-0.04,0.34,0c2.31,0.89,4.72-0.15,7.04,0.35c2.45,0.53,4.84,0.19,7.27-0.14
		c1.39-0.19,2.86,0.21,4.29,0.35C229.82,179.8,229.81,179.82,229.81,179.85z"/>
	<path class="st1" d="M242.73,201.83c-1.88-0.29-3.41-0.65-4.96-0.73c-1.63-0.08-3.23-1.21-4.89-0.19
		c-1.32-1.38-2.87-0.86-4.42-0.56c-0.45,0.09-1.19,0.05-1.4-0.23c-0.95-1.27-2.38-0.91-3.59-1.26c-1.05-0.3-2.45-1.21-3.05-0.83
		c-1.39,0.86-2.15-0.65-3.38-0.42c-0.79,0.15-1.78-1.13-2.77-1.56c-0.49-0.21-1.21,0.18-1.78,0.08c-0.66-0.12-1.26-0.54-1.91-0.73
		c-1.21-0.36-2.68-0.01-3.55-1.3c-4.29,0.17-7.56-3.24-11.8-3.35c-0.64-0.02-1.26-0.74-1.81-1.37c4.13,0.44,8.01-0.9,11.99-1.04
		c1.95-0.07,3.85-0.61,5.85-0.3c1.2,0.18,2.48-0.16,3.72-0.31c1.46-0.18,2.93-0.65,4.36-0.55c1.77,0.13,3.46,0.45,5.1-0.56
		c0.33-0.2,0.92-0.02,1.38,0.02c3.22,0.28,6.44,0.03,9.61-0.47c1.66-0.26,2.63,0.2,3.59,1.5c2.01,2.71,2.27,5.91,2.88,9.03
		C242.2,198.24,242.41,199.81,242.73,201.83z"/>
	<path class="st0" d="M314.53,205.59c1.67-0.49,3.39-1.02,5.13-1.49c0.32-0.09,0.78-0.01,1.06,0.16c1.81,1.12,3.74,2.12,5.35,3.49
		c1.51,1.28,2.72,2.93,3.98,4.48c1.1,1.37,1.05,1.41,0.61,4.12c1.06,1.19-0.7,1.87-0.53,3.01c0.15,1.03-0.24,2.15-0.44,3.23
		c-0.12,0.66-0.85,0.94-1.28,0.51c-0.17-0.17-0.29-0.39-0.44-0.58c-3.68-4.74-7.36-9.48-11.06-14.21
		C316.22,207.41,315.42,206.59,314.53,205.59z"/>
	<path class="st1" d="M161.55,175.31c2.04,1.98,3.91,3.79,5.78,5.63c0.82,0.81,0.87,1.5-0.11,1.98c-2.2,1.09-3.81,2.93-5.79,4.27
		c-0.36,0.24-0.84,0.29-1.27,0.43c-0.11-0.41-0.35-0.84-0.3-1.22C160.39,182.71,160.97,179.04,161.55,175.31z"/>
	<path class="st1" d="M334.09,198.9c-0.44,2.86-0.84,5.5-1.27,8.13c-0.03,0.18-0.3,0.33-0.67,0.71c-0.61-0.72-1.3-1.36-1.77-2.13
		c-0.68-1.13-1.52-1.8-2.87-1.83c-0.25-0.01-0.67-0.36-0.69-0.58c-0.03-0.28,0.2-0.71,0.45-0.86c1-0.59,2.03-1.12,3.07-1.63
		C331.48,200.13,332.65,199.59,334.09,198.9z"/>
	<path class="st0" d="M167.45,188.11c1.41-0.84,2.36-1.48,3.37-1.99c1.11-0.56,2.28-1.19,3.56-0.72c0.6,0.22,1.14,0.73,1.55,1.24
		c0.13,0.16-0.17,0.99-0.42,1.08c-0.61,0.22-1.32,0.22-1.98,0.24C171.59,188.02,169.66,188.06,167.45,188.11z"/>
	<path class="st0" d="M306.9,197.38c2.82,0.49,5.52,1.21,7.54,3.4c-1.97-0.13-4.03,0.21-5.3-1.99
		C308.76,198.12,307.67,197.84,306.9,197.38z"/>
	<path class="st0" d="M160.81,200.09c-0.56-1.88-1.73-3.79-0.27-6.04C160.65,196.32,160.73,198.21,160.81,200.09z"/>
	<path class="st1" d="M285.02,275.06c0.07,0.1,0.21,0.24,0.19,0.26c-0.11,0.14-0.25,0.26-0.39,0.39c-0.09-0.12-0.18-0.25-0.27-0.37
		C284.71,275.25,284.86,275.16,285.02,275.06z"/>
	<path d="M182.76,287.16c-0.4,0.89,0.02,2.23-1.11,3.35c-1.41,1.41-3.11,2.36-4.76,3.22c-0.95,0.5-2.79,0.1-3.83-0.55
		c-1.8-1.12-4.45-1.28-4.9-4.21c-0.32-2.08-0.07-4.01,1.37-5.04c0.34-0.24,0.76-1.18,1.31-0.15c0.29,0.55,1.63,0.21,1.16,1.39
		c-0.04,0.11-0.02,0.24-0.06,0.36c-0.41,1.22,0.17,2.39,0.79,3.17c0.69,0.87,3.7,0.39,4.69-0.29c1.46-1.01,1.22-2.47,1.02-3.83
		c-0.12-0.81-0.47-1.52-1.38-2.09c-1.1-0.69-0.97-1.89-0.15-2.71c1.13-1.13,1.73-1.17,2.89-0.42
		C182.6,281.16,183.59,283.66,182.76,287.16z"/>
	<path d="M270.69,317.16c0.17-1.11,0.23-1.47,0.28-1.83c0.22-1.57,0.93-2.55,2.55-3.19c1.27-0.5,2.5-1.07,3.83-1.42
		c3.13-0.84,6.38,1.27,6.99,4.48c0.27,1.4,0.33,2.74,0.11,4.15c-0.16,1-0.36,1.4-1.55,1.3c-1.45-0.11-2.64-0.64-2.82-1.86
		c-0.05-0.35,0.05-0.74,0.16-1.08c0.39-1.18-0.51-1.88-1.16-2.45c-0.36-0.31-1.33,0.06-2.02,0.17c-0.44,0.07-0.95,0.11-1.29,0.37
		c-0.53,0.41-0.94,0.98-1.4,1.48c0.78,0.52,0.02,1.72,1.25,2.25c2.13,0.91,2.15,1.86,0.25,3.12c-0.5,0.33-1.6,0.49-1.96,0.18
		c-1.23-1.07-2.44-2.26-3.28-3.64C270.24,318.53,270.68,317.35,270.69,317.16z"/>
	<path d="M235.26,289c1.16-1.21,2.49-2.02,4.29-0.33c0.7,0.65,1.82,1,2.81,1.18c1.07,0.2,1.91,0.93,2.85,1.15
		c2.69,0.63,4.72-0.69,6.26-2.85c0.65-0.92,1.2-1.93,1.93-2.77c0.92-1.05,2.05-1.9,2.98-2.94c1.16-1.3,1.66,0.56,2.67,0.51
		c1.06-0.06,0.42,1.15,0.31,1.73c-0.09,0.51-0.78,0.9-0.87,1.41c-0.29,1.56-2.47,1.56-2.57,2.74c-0.12,1.55-1.38,1.87-2.07,2.75
		c-0.79,1.01-1.92,1.75-2.92,2.58c-2.23,1.86-4.88,1.84-7.35,1.02c-1.92-0.64-3.71-1.68-5.67-2.38
		C236.53,292.31,235.29,290.98,235.26,289z"/>
	<path d="M210.53,238.98c0.56,1.15,1.88,1.77,1.42,3.28c-0.29,0.95,0.64,0.87,1.15,0.87c0.33,0,0.8-0.32,0.96-0.62
		c0.21-0.41,0.23-0.94,0.25-1.43c0.03-1.15,0.69-1.84,1.74-1.86c1.06-0.02,2.3,0.09,2.66,1.39c0.31,1.12,0.56,2.1-0.3,3.4
		c-1.53,2.32-3.62,3.8-6.24,3.46c-0.48-0.06-0.96-0.13-1.44-0.22c-2.75-0.52-4.32-3.16-3.07-5.64
		C208.2,240.54,209.53,239.86,210.53,238.98z"/>
</g>
</svg>
