<?xml version="1.0" encoding="utf-8"?>
<!-- Generator: Adobe Illustrator 27.5.0, SVG Export Plug-In . SVG Version: 6.00 Build 0)  -->
<svg version="1.1" id="Layer_1" xmlns="http://www.w3.org/2000/svg" xmlns:xlink="http://www.w3.org/1999/xlink" x="0px" y="0px"
	 viewBox="0 0 500 500" style="enable-background:new 0 0 500 500;" xml:space="preserve">
<style type="text/css">
	.st0{fill:#F4DCDC;}
	.st1{fill:#FFFFFF;}
	.st2{fill:#010101;}
</style>
<g>
	<path d="M271.77,381.51c-0.59,0.27-2.44-0.6-3.49,1.06c-1.65-0.04-3.24,1-4.94,0.2c-0.38-0.18-1.03-0.22-1.36-0.01
		c-1.98,1.29-4.22,0.36-6.31,0.8c-1.56,0.33-3.23-0.64-4.86,0.01c-2.48-1.08-5.17-0.29-7.76-1c-2.46-0.67-5.14-0.77-7.7-1.25
		c-3.22-0.6-6.34-1.51-9.45-2.62c-1.88-0.67-3.84-1.32-5.75-1.97c-1.3-0.45-2.64-1.15-3.61-2.1c-1.33-1.3-3.76-1.03-4.38-3.21
		c-2.46-1.31-2.74-3.87-3.57-6.14c-0.86-2.36-1.85-4.67-2.73-7.02c-1.09-2.9-2.23-5.78-3.14-8.73c-0.51-1.66-0.45-3.42-1.85-4.84
		c-0.64-0.64-0.64-1.99-0.77-3.04c-0.2-1.6-0.38-3.04-2.49-3.23c-0.73-0.07-1.3-0.79-2.17-1.02c-3.29-0.9-4.86-3.9-5.77-6.66
		c-1.32-4.03-2.51-8.1-4.41-11.92c-0.83-1.66-0.59-3.62-1.64-5.32c-0.68-1.1-0.61-2.62-1.29-3.94c-0.84-1.61-0.2-3.73-1.55-5.38
		c-1.08-1.3-0.84-3.34-2.17-4.6c-0.13-3.11-1.81-5.75-2.6-8.64c-0.68-2.49-1.5-4.96-2.05-7.51c-0.81-3.74-2.04-7.42-3.06-11.14
		c-0.82-3-1.96-5.92-2.73-8.98c-0.78-3.13-1.63-6.34-2.84-9.3c-0.87-2.14-0.61-4.51-1.73-6.41c-1.19-2-0.81-4.2-1.4-6.25
		c-0.19-0.65-0.35-1.4-0.77-1.89c-1.04-1.2,0.92-1.83,0.42-2.86c1.02,0.26,1.29-1.97,2.73-0.71c0.73,0.64,1.24,0.12,1.18-0.9
		c-0.13-2.4-1.27-4.49-2.01-6.69c-0.61-1.84-1.48-3.65-1.88-5.52c-0.58-2.67-2.31-4.9-2.69-7.63c-0.05-0.37-0.89-0.72-1.43-0.93
		c-2.85-1.1-5.83-1.93-8.55-3.29c-2.9-1.45-6.25-2.53-7.35-6.25c-0.16-0.55-0.6-0.9-0.17-1.51c1.48-2.1,1.88-4.63,2.62-7
		c0.61-1.96-0.1-3.9-0.69-5.85c-0.38-1.26-1.08-2.5-0.99-3.89c-1.63-1.06-1-2.85-1.31-4.31c-0.51-2.41,0.22-4.49,1.64-6.57
		c1.97-2.88,4.55-5.13,7.08-7.38c1.02-0.91,0.94-1.88,1.44-2.78c0.51-0.92-1.29-0.98-0.64-2.05c0.31-0.51-0.01-1.37,0.05-2.06
		c0.07-0.79,0.26-1.56,0.39-2.34c0.02-0.11,0.01-0.27-0.05-0.36c-1.29-1.74-0.24-3.67-0.49-5.45c-0.23-1.61,0.1-3.17-0.18-4.76
		c-0.49-2.76,0.36-3.68,2.88-5.31c1.6-1.04,3.5-1.62,4.83-3.17c0.6-0.69,1.8-0.91,2.78-1.22c1.76-0.55,3.39-1.4,5.2-1.86
		c2.75-0.7,5.36-1.96,8.07-2.9c3.04-1.05,5.7-3.13,9.12-3.21c0.84-0.02,1.65-0.72,2.5-1.03c0.86-0.31,1.8-0.1,2.65-0.86
		c0.62-0.55,1.79-0.56,2.73-0.64c1.67-0.13,3.31-0.5,4.63-1.47c1.24-0.92,2.59-1.07,3.97-1.24c3.67-0.45,7.05-2.29,10.81-2.28
		c2.42-1.57,5.25-1.41,7.93-1.82c1-0.15,1.71-1.98,2.97-0.53c0.77-1.29,2.14-0.86,3.26-1.11c1.07-0.24,2.18-0.26,3.25-0.5
		c1.12-0.26,2.49,0.18,3.28-1.08c1.22,0.84,2.49,0.26,3.73,0.09c5.07-0.68,10.16-1.28,15.19-2.21c2.39-0.44,4.71,0.28,7.06-0.17
		c2.27-0.44,4.63-1.14,6.86-0.9c3.79,0.42,7.61-0.52,11.37,0.46c0.76,0.2,1.68-0.17,2.52-0.32c2.33-0.41,4.76-0.26,6.78,0.65
		c1.33,0.6,2.66-0.47,3.71,0.59c2.47-0.26,4.54,1.26,6.93,1.61c2.2,0.32,3.43,2.74,4.1,4.79c1.01,3.05,1.99,6.07,3.47,8.95
		c0.49,0.96,1.8,1.79,1.02,3.48c-0.39,0.84,0.58,2.26,0.76,3.44c0.15,0.97,0.31,1.36,1.51,1.36c1.67,0,3.17,1.08,5.05,0.81
		c0.91-0.13,2,1.06,3.01,1.66c1.82,1.08,3.7,2.07,5.41,3.29c0.8,0.56,1.61,1.5,1.83,2.4c0.52,2.12,1.2,4.42,0.84,6.48
		c-0.35,2,0.16,3.76,0.2,5.62c0.02,0.92,0.6,1.81-0.17,2.77c-0.37,0.45,0.01,0.82,0.73,1.16c2.03,0.94,3.93,2.13,5.18,4.14
		c1.11,1.79,1.21,2.3,0.15,3.77c-1.36,1.87-2.67,3.81-4.2,5.53c-1.29,1.45-2.68,3.34-4.36,3.8c-2.74,0.74-3.73,3.92-6.66,4.15
		c-0.33,0.03-0.81,1.18-0.79,1.8c0.06,1.75,0.72,3.49-0.04,5.24c-0.04,0.1,0,0.25,0.05,0.36c1.38,3.4,0.9,6.91,0.8,10.43
		c-0.05,1.92,0.46,3.87,0.79,5.79c0.08,0.49-1.19,0.91-0.11,1.27c0.44,0.14,1.13-0.22,1.6-0.52c0.38-0.25,0.61-1.09,0.89-1.08
		c1.02,0.03,1.34-2,2.68-0.85c0.97,0.83,2.41,1.4,1.41,3.12c-0.16,0.27-0.24,0.69-0.16,0.99c1.09,4.1,0.27,8.36,1.03,12.48
		c0.71,3.89-0.18,7.9,0.92,11.76c-0.87,2.76,0.27,5.42,0.4,8.13c0.07,1.5-0.1,3.01-0.06,4.51c0.04,1.51,0.7,2.98-0.06,4.54
		c-0.26,0.55,0.2,1.42,0.24,2.15c0.1,1.98,1.18,3.95,0.12,5.96c1.24,0.97,0.12,2.26,0.44,3.4c0.39,1.4,0.55,2.88,0.63,4.34
		c0.07,1.17-0.23,2.37-0.18,3.55c0.06,1.4,0.66,2.79-0.17,4.16c-0.05,0.08,0.01,0.24,0.04,0.36c1.18,4.45,0.32,9.08,1.14,13.58
		c0.24,1.33,0.97,2.73-0.05,4.18c-0.41,0.58,1.46,1.31,0.28,2.26c0.14,2.71,0.47,5.43,0.35,8.13c-0.09,2.01,0.05,3.98,0.05,5.96
		c0,1.1-0.16,2.67-1.89,3.37c-1.41,0.57-2.73,1.56-3.93,2.64c-0.81,0.74-1.26,1.87-2.76,2.06c-0.79,0.1-1.83,1.44-1.57,2.88
		c0.28,1.56,0.17,3.26,0.76,4.67c0.55,1.31-0.62,2.49,0.3,3.88c0.52,0.78-0.53,2.4-0.09,3.69l0.18,3.33
		c0.65,1.42,1.07,2.86,0.48,4.41c-0.08,0.21-0.18,0.44-0.17,0.65c0.11,2.59-0.16,5.28,0.46,7.75c0.74,2.92-0.95,4.52-2.36,6.42
		c-2.94,0.86-3.77,4.02-6.09,5.62c-1.99,1.38-3.85,3.02-5.24,5.11c-0.36,0.54-0.98,1.09-1.59,1.25c-2.01,0.55-3.08,2.88-5.53,2.72
		c-0.65-0.04-1.31,1.24-2.1,1.64c-1.12,0.56-2.39,0.8-3.55,1.3c-1.07,0.46-2.04,1.42-3.13,1.55c-1.13,0.14-1.95,0.71-2.88,1.12
		c-1.14,0.5-2.2,1.24-3.38,1.56C278.61,379.98,275.6,380.61,271.77,381.51z M321.52,302.95c-0.19-3-1.2-5.56-0.35-8.13
		c-1.04-4.1-0.6-8.33-1.03-12.48c-0.21-2.1-0.88-4.15-0.24-6.34c0.25-0.84,0.25-2.1-1.69-1.93c-1.01,0.09-2.17-1.28-3.21-2.06
		c-0.13-0.1,0.07-0.64,0.13-0.97c0.08-0.44,0.25-0.89,0.24-1.33c-0.08-2.83-1.47-5.6-0.45-8.5c-1.26-0.85-0.03-2.01-0.37-3.04
		c-0.42-1.25-0.38-2.65-0.64-3.96c-0.25-1.25,0.42-2.23,0.81-3.29c0.39-1.04,1.43-0.69,2.2-0.91c0.45-0.13,0.97-0.15,1.32-0.41
		c0.32-0.23,0.44-0.73,0.65-1.1c-1.94-0.96,0.07-2.25-0.24-3.48c-0.64-2.6-1.32-5.32-0.59-8.11c0.2-0.76,0.04-1.82-0.37-2.49
		c-0.54-0.89,1.07-1.6-0.05-2.5c-0.32-0.26,0.22-1.43,0.16-2.17c-0.27-3.92-0.54-7.84-0.95-11.75c-0.12-1.12,0.19-2.43-0.89-3.32
		c-0.91,0.67-1.83,1.34-2.73,2.03c-0.19,0.14-0.34,0.36-0.44,0.58c-0.79,1.71-2.73,2.1-3.87,3.42c-1.21,1.4-2.63,2.47-4.33,3.3
		c-1.29,0.63-2.43,1.72-3.43,2.8c-2.04,2.2-5.28,2.91-6.89,5.64c-0.08,0.14-0.45,0.1-0.66,0.2c-1.54,0.7-3.05,1.51-4.63,2.1
		c-1.63,0.6-3.34,0.99-5.01,1.48c-0.44,0.13-0.91,0.24-1.27,0.5c-1.67,1.16-3.5,1.76-5.52,1.98c-0.63,0.07-1.18,0.7-1.82,0.85
		c-1.59,0.36-2.9,1.85-4.6,1.45c-1.27-0.3-1.49,1.71-2.81,0.94c-1.07-0.63-1.61,1.07-2.67,0.72c-1.66,1.78-4.48,0.41-6.13,2.24
		c-0.13,0.14-0.47,0.13-0.71,0.11c-0.45-0.05-0.88-0.2-1.33-0.23c-0.69-0.04-1.42,0.1-2.08-0.04c-0.69-0.15-0.63,1.41-1.69,0.54
		c-0.48-0.39-2.08,0.32-2.32-0.04c-1.03-1.57-2.07,1.02-2.94-0.15c-1.04,1.26-2.58,0.96-3.92,1.2c-1.92,0.35-3.91,0.37-5.77,0.89
		c-2.04,0.58-3.98-0.16-5.97,0.02c-3.79,0.35-7.46,1.47-11.39,1.03c-2.46-0.28-5.04,0.7-7.59,0.93c-2.58,0.24-5.23-0.04-7.75,0.45
		c-4.93,0.97-9.69,0.1-14.49-0.71c-0.67-0.11-1.55,0.08-2-0.28c-2.09-1.7-4.76-1.57-7.12-2.24c-1.63-0.46-3.23-0.99-4.83-1.53
		c-1.72-0.57-3.39-1.26-5.1-1.87c-1.59-0.57-3.46-0.32-4.82-1.66c-0.21-0.2-0.87-0.32-0.93-0.22c-0.22,0.34-0.4,0.8-0.36,1.19
		c0.24,2.36,1.72,4.38,1.81,6.84c0.02,0.5,0.3,1.39,0.59,2.07c0.66,1.59,1.45,3.19,1.7,4.86c0.46,3.07,2.18,5.83,2.08,9.01
		c-0.01,0.23,0.01,0.58,0.15,0.68c2.41,1.65,1.98,4.59,2.99,6.86c1.4,3.15,2.15,6.66,2.91,10.03c1.09,4.8,2.66,9.39,4.36,13.96
		c0.62,1.66,1.37,3.24,1.42,5.04c2.08,2.34,2.26,5.5,3.23,8.26c1.07,3.03,1.87,6.22,2.99,9.27c0.61,1.66,0.9,3.43,1.53,5
		c0.81,2.02,1.66,4,2.34,6.08c0.34,1.05,0.56,2.38,1.22,3.15c0.64,0.74,2.02,0.93,3.11,1.17c3.52,0.8,6.69,2.8,10.46,2.78
		c1.16,0,2.66,0.51,3.42,1.33c1.26,1.35,2.96-0.43,4,0.94c3.04,0.33,5.86,1.76,8.97,1.72c1.32,1.34,2.93-0.2,4.41,0.52
		c3.59,1.74,7.49,0.64,11.25,0.92c1.07,0.08,2.19-0.18,3.25-0.45c1.1-0.28,2.12-0.88,3.23-1.15c2.17-0.51,4.35-0.68,6.52-1.56
		c2.35-0.95,5.02-1.22,7.54-1.79c4.17-0.95,8.23-2.6,12.59-2.69c0.48-0.01,1.06,0.02,1.43-0.23c2.29-1.55,5.04-1.64,7.56-2.44
		c2.34-0.74,4.9-0.63,7.18-1.81c2.12-1.1,4.34-1.98,6.62-2.78c2.08-0.73,3.46-2.93,5.78-3.45c1.22-2.11,4.05-2.13,5.38-4.25
		c0.6-0.96,1.9-1.69,3.03-2.06c2.56-0.85,4.17-3.08,6.58-4.18c0.99-0.45,1.8-1.71,2.88-2.4c0.26-0.16,0.66-0.46,0.64-0.65
		c-0.3-2.46,0.9-5.07-0.64-7.46c-1.08,1.35-2.55,1.61-3.99,2.12c-1.43,0.51-2.6,1.76-3.89,2.67c-0.09,0.06-0.24,0.06-0.36,0.05
		c-1.51-0.07-2.6,0.8-3.77,1.59c-0.93,0.63-1.93,1.35-2.99,1.53c-2.81,0.47-5.04,2.1-7.46,3.35c-1.08,0.56-4.32,1.63-5.51,1.46
		c-0.62-0.09-1.45-0.5-1.68-1c-0.23-0.51-0.08-1.57,0.32-1.91c0.83-0.72,1.61-1.59,2.9-1.73c2.33-0.25,4.23-1.66,6.16-2.81
		c1.6-0.96,3.39-2.22,4.85-2.39c2.47-0.29,4.1-2.71,6.72-2.61c0.14,0.01,0.3-0.36,0.44-0.56c1.67-2.39,4.34-2.11,6.76-2.47
		c0.24-0.04,0.55,0.53,0.84,0.8C320.32,301.92,320.74,302.27,321.52,302.95z M307.11,144.27c0.51,1.39,0.06,2.81,1.33,3.99
		c0.6,0.56-0.49,3.18-1.4,3.3c-0.82,0.1-2.09-0.14-2.51-0.72c-0.71-0.97-0.96-2.31-1.33-3.52c-0.58-1.89-0.82-3.96-1.75-5.65
		c-0.48-0.88-0.84-1.7-0.87-2.6c-0.07-1.95-1.05-3.56-1.7-5.3c-0.2-0.52-0.62-0.97-0.75-1.51c-0.21-0.82,0.01-2.18-0.44-2.43
		c-1.04-0.58,0.01-1.52-0.72-2.16c-0.5-0.44-0.27-1.62-0.62-2.35c-0.56-1.14-0.81-2.48-1.44-3.46c-0.48-0.75-1.99-1.03-3.09-1.15
		c-4.41-0.5-8.81-1.2-13.27-1.28c-0.56-0.01-1.13-0.31-1.66-0.25c-0.58,0.07-1.15,0.65-1.69,0.59c-1.2-0.13-2.18-0.71-3.64-0.29
		c-1.25,0.36-2.93-0.17-4.44,0.07c-0.65,0.1-1.35-0.22-2.02-0.19c-0.67,0.03-1.32,0.4-1.98,0.39c-0.78-0.01-1.56-0.41-2.32-0.38
		c-0.69,0.03-1.35,0.5-2.05,0.64c-1.31,0.25-2.8,0.85-3.94,0.47c-1.53-0.5-2.66-0.66-3.76,0.58c-1.76-1.14-3.5,0-5.24,0.1
		c-1.82,0.1-3.62,0.48-5.43,0.74c-1.57,0.22-3.13,0.44-4.7,0.67c-1.69,0.24-3.38,0.43-5.06,0.73c-1.45,0.26-3.06,0.03-4.27,1.19
		c-1.79-1.45-2.98,0.62-4.5,0.79c-1.81,0.2-3.64,0.41-5.42,0.78c-1.7,0.36-3.34,1.28-5.03,1.36c-3.76,0.18-7.08,2.15-10.81,2.34
		c-1.41,1.33-3.67,0.61-4.88,1.64c-1.25,1.07-2.7,0.58-3.94,1.34c-0.77,0.47-1.98,1.07-3.11,0.91c-1.57-0.22-2.52,1.16-3.94,1.33
		c-4.08,0.49-7.6,2.49-11.21,4.23c-0.8,0.39-2.14,0.7-3.58,0.82c-0.6,0.05-1.34-0.01-1.76,0.32c-2.7,2.11-6.77,1.73-8.89,4.88
		c-2.2-0.11-3.47,1.63-5.17,2.54c0.16,1.11,0.31,2.19,0.47,3.28c0.15,1.09,0.07,2.29,0.52,3.23c0.59,1.21-1.19,2.39-0.02,3.25
		c1.44,1.07-0.14,1.88,0,2.87c0.57,4.25,0.81,8.55,1.17,12.83c0.02,0.24,0.08,0.48,0.1,0.72c0.06,0.88-0.94,2.72-1.6,2.97
		c-0.61,0.23-2.29-0.97-2.67-2c-0.23-0.64-0.29-1.34-0.45-2.2c-0.43,0.52-0.63,0.84-0.9,1.06c-0.97,0.78-2.11,1.41-2.93,2.32
		c-2.76,3.12-2.83,4.92-1.15,9.44c0.56,1.5,1.32,2.97,1.62,4.52c1,5.25,0.94,5.27-0.73,10.26c-0.29,0.86-0.85,1.65-1.04,2.52
		c-0.11,0.5,0.08,1.31,0.45,1.62c1.08,0.94,2.81,0.99,3.48,2.61c0.14,0.34,1.01,0.4,1.55,0.53c5.13,1.26,10.01,3.42,15.37,4.01
		c1.82,0.2,3.7,1.1,5.61,1.09c1.98-0.01,3.68,1.62,5.73,0.82c1.19,1.11,2.53-0.1,3.77,0.24c2.51,0.69,5.04,0.79,7.6,0.28
		c0.68-0.14,1.66-0.37,2.06-0.03c1.03,0.88,1.02-0.85,1.68-0.51c2.01,1.05,3.97-0.02,5.95-0.12c2.71-0.14,5.35-1.34,8.13-0.43
		c0.31,0.1,0.82,0.05,1.06-0.15c1.49-1.25,3.11-1.33,4.84-0.66c3.97-1.13,8.1-0.17,12.1-0.96c2.15-0.42,4.34-0.64,6.51-0.94
		c1.21-0.17,2.41-0.34,3.62-0.51c1.33-0.19,2.66-0.32,3.97-0.58c1.06-0.21,2.4-1.13,3.08-0.76c1.68,0.92,2.34-0.72,3.51-0.94
		c3.55-0.66,6.98-1.82,10.45-2.81c2.7-0.77,5.41-1.62,8.22-2.17c3.14-0.62,6-2.55,9.35-2.66c2.99-1.92,6.48-2.7,9.6-4.32
		c0.7-0.36,1.39-0.77,2.13-1.03c0.88-0.31,2.07-0.2,2.68-0.76c1.51-1.38,3.49-1.63,5.18-2.54c1.79-0.96,3.4-2.22,5.66-2.49
		c1.48-0.18,2.78-1.8,4.17-2.78c0.37-0.26,0.71-0.65,1.12-0.75c2.49-0.6,4.47-2.2,6.55-3.52c3.05-1.93,5.95-4.11,8.78-6.38
		c1.69-1.36,2.99-2.91,3.98-4.96c-1.42-1.02-2.66-2.01-4-2.84c-1.88-1.16-2.11-1.45-1.85-3.54c0.08-0.63-0.92-1.24-0.01-1.87
		c0.04-0.03-0.03-0.23-0.04-0.35c-0.03-0.24,0.02-0.62-0.12-0.7c-1.25-0.76-0.14-1.8-0.34-2.68c-0.25-1.07-0.77-2.37-0.39-3.21
		c0.75-1.63,0.16-3.07-0.05-4.54c-0.12-0.83-0.72-2.18-1.28-2.27C313,147.74,310.72,144.87,307.11,144.27z M308.81,188.4
		c-1.39,0.9-2.77,1.94-4.28,2.72c-1.71,0.88-3.72,1.27-5.28,2.34c-1.6,1.1-3.24,2.09-5,2.82c-2.95,1.22-6.04,2.2-8.84,3.64
		c-2.57,1.32-5.34,1.95-7.93,3.14c-2.82,1.3-6.03,1.6-8.93,2.82c-1.05,0.44-2.12,0.9-3.22,1.18c-2.62,0.68-5.27,1.26-7.91,1.89
		c-0.22,0.05-0.43,0.16-0.63,0.26c-1.21,0.6-2.37,1.37-3.65,1.77c-1.26,0.4-2.65,0.63-3.96,0.56c-1.57-0.08-2.58,1.05-3.92,1.43
		c-0.86,0.25-1.48-0.88-2.46,0.05c-0.66,0.62-2.04,0.55-3.11,0.65c-7.18,0.69-14.2,2.78-21.5,2.35c-1.85-0.11-3.69,1.01-5.61,0.08
		c-0.33-0.16-0.99,0.49-1.53,0.62c-0.88,0.2-1.78,0.34-2.68,0.39c-0.55,0.03-1.14-0.08-1.67-0.24c-0.97-0.29-1.42,1.16-2.72,0.51
		c-0.89-0.45-2.35,0.27-3.56,0.38c-0.91,0.09-1.89,0.68-2.72-0.25c-0.71,0.98-1.9,1.21-2.81,0.98c-2.67-0.65-5.19,0.21-7.78,0.41
		c-0.55,0.04-1.11-0.19-1.67-0.25c-2.26-0.26-4.52-0.72-6.78-0.68c-1.88,0.04-3.68,0.13-5.41-0.72c-1.23-0.61-2.69-0.71-3.94-0.83
		c-1.51-0.15-2.96-0.14-4.34-0.85c-0.24-0.12-0.64,0.06-0.97,0.1c0.07,0.41,0.09,0.84,0.22,1.23c0.11,0.31,0.52,0.55,0.54,0.84
		c0.26,4.65,4.12,8.17,4.08,12.91c0,0.09,0.13,0.2,0.22,0.25c1.03,0.61,0.62,1.73,0.93,2.6c0.31,0.85,0.94,1.64,1.03,2.5
		c0.21,1.95,1.27,2.63,3.05,3.33c4.01,1.59,8.16,2.64,12.26,3.87c1.83,0.55,3.95,0.09,5.51,1.61c1.81-0.56,3.44,0.22,5,0.87
		c1.08,0.45,2.04,0.33,3.08,0.25c4.04-0.31,7.94-1.61,12.11-1.09c2.1,0.26,4.32-0.61,6.5-0.8c2.21-0.19,4.45-0.16,6.67-0.24
		c1.98-0.06,3.94-1.15,5.96-0.13c0.27,0.13,0.93,0.05,1.04-0.15c0.98-1.73,3.14,0.39,4.1-1.3c1.35,0.88,2.76,0.31,4.14,0.14
		c1.33-0.16,2.76-0.12,3.95-0.63c1.17-0.49,2.24-0.48,3.41-0.43c0.44,0.02,0.91-0.19,1.33-0.38c2.67-1.24,2.66-1.17,5.47-0.72
		c1.95,0.32,4.13,0.99,5.85-0.05c1.22-0.74,2.84-0.45,3.54-1.23c1.17-1.31,2.87-0.42,3.88-1.46c1.08-1.12,2.52-0.56,3.73-1
		c0.43-0.15,1.01-0.2,1.26-0.5c1.27-1.54,3.08-1.54,4.81-1.85c0.9-0.16,2.01,0.12,2.54-0.99c2.99-0.5,5.43-2.65,8.55-2.81
		c0.4-0.02,0.75-0.52,1.17-0.64c1.31-0.36,2.12-1.25,3.04-2.21c0.98-1.03,2.48-1.54,3.63-2.43c1.99-1.53,3.88-3.18,5.82-4.76
		c2.2-1.8,4.42-3.58,6.61-5.39c0.29-0.24,0.68-0.69,0.63-0.97c-0.54-2.94,0.43-5.95-0.47-8.86c-0.14-0.46-0.37-1.1-0.18-1.42
		c1.1-1.79-0.28-3.55,0.01-5.25c0.31-1.79,0.18-3.49-0.03-5.25C308.8,191.66,308.87,190.16,308.81,188.4z M311.64,323.15
		c-2.49,2.06-5.27,3.37-7.76,5.11c-4.61,3.21-9.2,6.46-15.04,7.05c-0.24,0.02-0.58,0.01-0.68,0.15c-1.13,1.54-2.91,0.82-4.34,1.29
		c-1.43,0.47-2.85,0.96-4.3,1.33c-0.94,0.24-1.95,0.19-2.88,0.46c-0.77,0.22-1.41,1.08-2.3,0.29c-2.38,2.01-5.84,0.68-8.23,2.65
		c-3.82,0.3-7.29,2.28-11.17,2.33c-0.48,0.01-1.12-0.04-1.42,0.23c-1.68,1.51-3.97,0.77-5.74,1.6c-1.99,0.94-4.04,1.31-6.14,1.5
		c-1.73,0.16-3.55-0.27-5.2,0.12c-1.72,0.41-3.4,0.11-4.85-0.26c-2.86-0.72-5.86-0.64-8.64-1.63c-2.16-0.77-4.6-0.48-6.6-1.37
		c-2.64-1.17-5.66-0.75-8.15-2.37c-0.43-0.28-1.27-0.2-1.95-0.46c-1.17-0.44-1.8,0.3-1.58,1.5c0.06,0.36-0.03,0.91,0.18,1.05
		c1.03,0.74,0.86,1.87,1.14,2.88c0.3,1.1,0.86,2.13,1.16,3.23c0.74,2.78,2.03,5.32,3.18,7.93c1.38,3.13,2.74,6.3,3.65,9.58
		c0.4,1.43,0.93,2.4,2.1,3.1c0.89,0.53,1.81,1.02,2.77,1.43c2.19,0.94,4.39,2.45,6.62,2.53c1.98,0.07,3.52,1,5.26,1.4
		c2.54,0.59,4.9,1.9,7.66,1.41c0.28-0.05,0.65,0.38,0.94,0.34c2-0.28,3.68,0.97,5.69,1.03c2.76,0.09,5.5,0.83,8.29,0.18
		c0.12-0.03,0.3-0.09,0.35-0.04c0.81,0.86,1.78,0.46,2.7,0.34c0.97-0.12,1.94-0.41,2.89-0.36c0.74,0.04,1.44,0.18,2.21,0.02
		c0.89-0.18,1.85-0.08,2.78-0.03c1.97,0.1,3.56-1.25,5.39-1.46c4.36-0.5,8.51-1.69,12.56-3.32c0.73-0.29,1.4-0.76,2.14-1.01
		c0.89-0.3,1.96-0.25,2.71-0.73c2.19-1.42,4.91-1.73,6.93-3.56c0.87-0.79,2.48-0.78,3.34-1.58c0.92-0.86,2.45-0.87,2.9-2.57
		c0.25-0.93,2.07-1.05,2.88-2.25c0.87-1.28,2.37-2.12,3.56-3.19c0.86-0.78,1.69-1.59,2.47-2.44c0.57-0.63,0.9-1.73,1.57-1.97
		c2.88-1.04,2.51-3.13,2.01-5.35c-0.08-0.36-0.27-0.81-0.13-1.07c1.2-2.21-0.52-4.42,0.07-6.61c0.66-2.44-0.46-4.74-0.58-7.12
		c-0.12-2.46,0.33-4.93-0.18-7.37C312.9,325.85,311.79,324.63,311.64,323.15z"/>
	<path class="st0" d="M321.52,302.95c-0.78-0.68-1.2-1.03-1.61-1.4c-0.29-0.27-0.61-0.84-0.84-0.8c-2.41,0.36-5.08,0.09-6.76,2.47
		c-0.14,0.2-0.3,0.56-0.44,0.56c-2.62-0.1-4.25,2.32-6.72,2.61c-1.47,0.17-3.25,1.43-4.85,2.39c-1.93,1.16-3.83,2.56-6.16,2.81
		c-1.29,0.14-2.07,1.01-2.9,1.73c-0.4,0.34-0.55,1.41-0.32,1.91c0.23,0.5,1.06,0.92,1.68,1c1.19,0.17,4.43-0.9,5.51-1.46
		c2.42-1.25,4.65-2.88,7.46-3.35c1.06-0.18,2.07-0.9,2.99-1.53c1.16-0.79,2.26-1.66,3.77-1.59c0.12,0.01,0.27,0.01,0.36-0.05
		c1.29-0.91,2.46-2.16,3.89-2.67c1.44-0.51,2.91-0.77,3.99-2.12c1.54,2.39,0.33,5,0.64,7.46c0.02,0.19-0.38,0.48-0.64,0.65
		c-1.08,0.69-1.89,1.95-2.88,2.4c-2.41,1.11-4.02,3.33-6.58,4.18c-1.13,0.38-2.43,1.1-3.03,2.06c-1.33,2.12-4.16,2.14-5.38,4.25
		c-2.32,0.52-3.71,2.72-5.78,3.45c-2.28,0.8-4.5,1.68-6.62,2.78c-2.29,1.18-4.85,1.07-7.18,1.81c-2.52,0.79-5.28,0.89-7.56,2.44
		c-0.36,0.25-0.94,0.22-1.43,0.23c-4.36,0.09-8.42,1.74-12.59,2.69c-2.52,0.57-5.19,0.84-7.54,1.79c-2.16,0.87-4.35,1.04-6.52,1.56
		c-1.1,0.26-2.13,0.86-3.23,1.15c-1.05,0.27-2.18,0.53-3.25,0.45c-3.76-0.28-7.66,0.82-11.25-0.92c-1.48-0.72-3.09,0.82-4.41-0.52
		c-3.11,0.04-5.93-1.39-8.97-1.72c-1.04-1.37-2.74,0.41-4-0.94c-0.76-0.82-2.26-1.34-3.42-1.33c-3.77,0.01-6.94-1.99-10.46-2.78
		c-1.09-0.25-2.48-0.43-3.11-1.17c-0.66-0.77-0.88-2.1-1.22-3.15c-0.68-2.09-1.53-4.06-2.34-6.08c-0.63-1.57-0.92-3.34-1.53-5
		c-1.12-3.05-1.92-6.23-2.99-9.27c-0.98-2.76-1.15-5.92-3.23-8.26c-0.05-1.8-0.8-3.39-1.42-5.04c-1.7-4.57-3.28-9.16-4.36-13.96
		c-0.76-3.37-1.51-6.88-2.91-10.03c-1.01-2.27-0.58-5.21-2.99-6.86c-0.14-0.1-0.16-0.45-0.15-0.68c0.1-3.18-1.62-5.94-2.08-9.01
		c-0.25-1.67-1.04-3.28-1.7-4.86c-0.28-0.68-0.57-1.57-0.59-2.07c-0.09-2.46-1.57-4.48-1.81-6.84c-0.04-0.39,0.14-0.86,0.36-1.19
		c0.06-0.1,0.72,0.02,0.93,0.22c1.35,1.33,3.22,1.08,4.82,1.66c1.7,0.61,3.38,1.3,5.1,1.87c1.6,0.54,3.21,1.07,4.83,1.53
		c2.36,0.66,5.03,0.54,7.12,2.24c0.45,0.36,1.33,0.17,2,0.28c4.8,0.81,9.56,1.68,14.49,0.71c2.51-0.49,5.17-0.21,7.75-0.45
		c2.54-0.24,5.13-1.21,7.59-0.93c3.93,0.45,7.6-0.67,11.39-1.03c1.99-0.19,3.93,0.55,5.97-0.02c1.86-0.53,3.85-0.54,5.77-0.89
		c1.34-0.25,2.88,0.06,3.92-1.2c0.87,1.17,1.91-1.42,2.94,0.15c0.23,0.36,1.84-0.35,2.32,0.04c1.06,0.86,1-0.69,1.69-0.54
		c0.67,0.14,1.39,0,2.08,0.04c0.45,0.03,0.88,0.18,1.33,0.23c0.23,0.03,0.58,0.03,0.71-0.11c1.66-1.83,4.47-0.46,6.13-2.24
		c1.06,0.35,1.6-1.35,2.67-0.72c1.31,0.77,1.53-1.25,2.81-0.94c1.69,0.4,3.01-1.09,4.6-1.45c0.64-0.14,1.19-0.78,1.82-0.85
		c2.02-0.22,3.85-0.82,5.52-1.98c0.36-0.25,0.84-0.37,1.27-0.5c1.67-0.5,3.38-0.88,5.01-1.48c1.59-0.59,3.09-1.4,4.63-2.1
		c0.21-0.1,0.57-0.06,0.66-0.2c1.6-2.73,4.85-3.44,6.89-5.64c1-1.08,2.13-2.17,3.43-2.8c1.7-0.83,3.12-1.9,4.33-3.3
		c1.14-1.31,3.08-1.7,3.87-3.42c0.1-0.22,0.25-0.44,0.44-0.58c0.9-0.69,1.81-1.35,2.73-2.03c1.08,0.89,0.78,2.2,0.89,3.32
		c0.41,3.91,0.68,7.83,0.95,11.75c0.05,0.74-0.48,1.91-0.16,2.17c1.11,0.91-0.49,1.61,0.05,2.5c0.41,0.67,0.57,1.73,0.37,2.49
		c-0.73,2.79-0.05,5.51,0.59,8.11c0.3,1.24-1.71,2.52,0.24,3.48c-0.21,0.38-0.34,0.87-0.65,1.1c-0.35,0.26-0.87,0.28-1.32,0.41
		c-0.77,0.22-1.81-0.13-2.2,0.91c-0.4,1.06-1.06,2.04-0.81,3.29c0.26,1.31,0.22,2.71,0.64,3.96c0.35,1.03-0.89,2.19,0.37,3.04
		c-1.02,2.9,0.37,5.66,0.45,8.5c0.01,0.44-0.16,0.89-0.24,1.33c-0.06,0.33-0.26,0.88-0.13,0.97c1.04,0.78,2.2,2.15,3.21,2.06
		c1.94-0.17,1.93,1.08,1.69,1.93c-0.65,2.19,0.03,4.24,0.24,6.34c0.42,4.15-0.01,8.38,1.03,12.48
		C320.32,297.39,321.33,299.95,321.52,302.95z M268.4,277.98c-0.45,1.77,1.45,3.47,2.53,5.21c1.47,2.37,2.86,5.01,5.5,6.52
		c1.51,0.86,5.19,0.39,6.06-1.09c0.62-1.06,0.99-2.27,1.33-3.46c0.3-1.08,0.51-2.21,0.53-3.32c0.01-0.56-0.53-1.11-0.69-1.7
		c-1.17-4.12-3.9-7.07-7.38-9.28c-2.72-1.73-7.64,0.17-8.01,3.2C268.15,275.1,268.33,276.17,268.4,277.98z M254.94,286.79
		c0.61,1.76,0.93,3.4,1.71,4.78c1.22,2.16,2.41,4.33,4.32,6.1c1.92,1.78,3.94,2.51,6.44,2.24c1.55-0.17,2.36-1.33,3.3-2.38
		c1.2-1.32,1.44-2.41,0.5-3.35c-0.83-0.83-2.31-0.68-3.46,0.37c-0.18,0.16-0.26,0.46-0.45,0.56c-0.37,0.19-0.97,0.51-1.17,0.37
		c-1.3-0.98-3.24-1.2-3.7-3.23c-0.19-0.85-0.86-1.57-1.25-2.39c-0.99-2.08-2.63-4.13-0.57-6.47c0.38-0.43,0.89-0.74,1.26-1.17
		c0.43-0.51,1-1.05,1.1-1.64c0.11-0.65-1.9-1.93-2.75-1.78c-0.66,0.12-1.3,0.43-1.9,0.75C255.35,281.18,255.17,284.07,254.94,286.79
		z M292.85,261.76c-0.16-1.57-1.64-2.34-3.13-1.69c-1.76,0.77-3.43,1.69-5.14,2.55c-0.97,0.48-1.49,1.15-2,1.89
		c-0.28,0.41-0.25,1.14-0.12,1.66c0.05,0.22,0.73,0.3,1.14,0.41c1.24,0.34,2.55,1.06,2.76,2.18c0.33,1.71,1.55,2.85,2.06,4.28
		c0.73,2.06,2.47,3.7,2.45,6.02c-0.01,1.24,1.1,1.46,1.77,2.09c0.54,0.51,1.01,0.35,1.49-0.2c0.83-0.95,1.39-1.89,1-3.24
		c-0.29-1-0.24-1.99-1.25-2.82c-1.46-1.2-1.16-1.86,0.58-2.5c0.94-0.35,1.88-0.84,2.63-1.49c1.14-0.99,0.63-1.99-0.91-2.66
		c-1.27-0.55-2.21-0.45-3.23,0.44c-0.83,0.73-1.83,0.67-2.5-0.2c-0.61-0.79-1.23-1.72-1.39-2.67c-0.17-1.07,1.26-1.05,1.8-1.73
		c0.28-0.35,0.67-0.78,1.05-0.83C292.94,263.12,293.1,262.61,292.85,261.76z M303.35,258.21c1.44-0.63,2.62-1.07,3.71-1.66
		c0.93-0.5,1.38-1.39,0.93-2.41c-0.43-0.95-1.24-1.15-2.34-1.11c-2.71,0.1-4.62,1.99-6.9,2.98c-1.89,0.82-1.63,2.19,0.4,3.11
		c0.97,0.44,1.67,1.5,1.62,1.9c-0.23,1.86,2.11,3.25,0.87,5.21c-0.1,0.16-0.01,0.5,0.1,0.71c0.48,0.92,1.6,2.02,1.38,2.68
		c-0.54,1.58,1.18,2.15,1.06,3.52c-0.08,0.93,2.03,2.19,2.62,1.94c0.82-0.35,1.73-2.34,1.51-3.36c-0.07-0.34-0.14-0.69-0.28-1.01
		c-1.34-3.09-1.34-3.09,1.54-4.15c1.96-0.72,2.23-1.16,1.95-3.29c-0.03-0.2-0.24-0.38-0.41-0.63c-1.17,0.37-2.53-0.07-3.58,1.16
		c-0.54,0.63-2.25,0.15-2.52-0.57C304.36,261.55,303.86,259.8,303.35,258.21z M301.9,245.63c1.81-0.59,3.51-1.01,5.07-1.74
		c0.49-0.23,1.53-1.04,0.53-2.05c-0.3-0.31-0.57-0.76-0.63-1.17c-0.11-0.75-0.4-1.12-1.16-0.88c-0.65,0.2-1.27,0.52-1.93,0.7
		c-1.02,0.28-2.3,1.01-3.04,0.65c-2.56-1.24-4.73,2.26-7.21,0.39c-0.05-0.04-0.34,0.26-0.52,0.4c-1.1,0.78-2.43,1.38-3.25,2.39
		c-1.09,1.32-3.11,0.42-3.94,1.98c-1.7-0.18-2.08,1.36-2.98,2.26c-0.97,0.98-0.47,2.05-0.21,3.03c0.14,0.55,2.03,0.2,2.87-0.53
		c0.18-0.16,0.26-0.47,0.45-0.56c0.61-0.3,1.23-0.68,1.88-0.75c1.03-0.11,2.79-0.34,3.15-0.87c1.35-1.95,3.32-2.47,5.5-2.64
		c0.92-0.07,1.74-0.24,2.58-0.96C299.58,244.85,300.99,245.49,301.9,245.63z"/>
	<path class="st1" d="M307.11,144.27c3.62,0.6,5.89,3.47,9.24,4.04c0.56,0.09,1.16,1.44,1.28,2.27c0.22,1.47,0.8,2.92,0.05,4.54
		c-0.38,0.84,0.14,2.14,0.39,3.21c0.2,0.88-0.91,1.93,0.34,2.68c0.13,0.08,0.08,0.46,0.12,0.7c0.02,0.12,0.09,0.32,0.04,0.35
		c-0.91,0.63,0.09,1.24,0.01,1.87c-0.26,2.08-0.03,2.38,1.85,3.54c1.34,0.83,2.57,1.82,4,2.84c-0.99,2.05-2.29,3.6-3.98,4.96
		c-2.83,2.27-5.73,4.45-8.78,6.38c-2.08,1.32-4.06,2.92-6.55,3.52c-0.41,0.1-0.75,0.49-1.12,0.75c-1.38,0.98-2.69,2.6-4.17,2.78
		c-2.26,0.28-3.87,1.53-5.66,2.49c-1.69,0.91-3.67,1.15-5.18,2.54c-0.61,0.56-1.79,0.45-2.68,0.76c-0.74,0.26-1.43,0.66-2.13,1.03
		c-3.12,1.62-6.62,2.4-9.6,4.32c-3.35,0.11-6.21,2.04-9.35,2.66c-2.8,0.55-5.52,1.4-8.22,2.17c-3.47,0.98-6.89,2.15-10.45,2.81
		c-1.17,0.22-1.83,1.86-3.51,0.94c-0.68-0.37-2.02,0.55-3.08,0.76c-1.31,0.26-2.65,0.39-3.97,0.58c-1.21,0.17-2.41,0.34-3.62,0.51
		c-2.17,0.31-4.36,0.52-6.51,0.94c-4,0.79-8.14-0.17-12.1,0.96c-1.74-0.66-3.35-0.59-4.84,0.66c-0.24,0.2-0.75,0.26-1.06,0.15
		c-2.77-0.91-5.42,0.29-8.13,0.43c-1.98,0.1-3.94,1.16-5.95,0.12c-0.66-0.34-0.65,1.39-1.68,0.51c-0.4-0.34-1.38-0.1-2.06,0.03
		c-2.56,0.51-5.09,0.41-7.6-0.28c-1.24-0.34-2.58,0.87-3.77-0.24c-2.05,0.8-3.75-0.83-5.73-0.82c-1.91,0.01-3.79-0.89-5.61-1.09
		c-5.36-0.59-10.23-2.74-15.37-4.01c-0.55-0.13-1.42-0.19-1.55-0.53c-0.67-1.62-2.4-1.66-3.48-2.61c-0.36-0.32-0.56-1.13-0.45-1.62
		c0.2-0.87,0.75-1.66,1.04-2.52c1.67-4.99,1.73-5,0.73-10.26c-0.29-1.55-1.06-3.02-1.62-4.52c-1.68-4.52-1.61-6.32,1.15-9.44
		c0.81-0.92,1.96-1.54,2.93-2.32c0.27-0.22,0.47-0.54,0.9-1.06c0.17,0.85,0.22,1.56,0.45,2.2c0.37,1.03,2.06,2.23,2.67,2
		c0.66-0.25,1.66-2.09,1.6-2.97c-0.02-0.24-0.08-0.48-0.1-0.72c-0.36-4.28-0.61-8.57-1.17-12.83c-0.13-0.99,1.45-1.81,0-2.87
		c-1.17-0.86,0.61-2.04,0.02-3.25c-0.46-0.94-0.37-2.14-0.52-3.23c-0.15-1.08-0.31-2.17-0.47-3.28c1.7-0.91,2.98-2.65,5.17-2.54
		c2.12-3.15,6.18-2.76,8.89-4.88c0.42-0.33,1.16-0.27,1.76-0.32c1.44-0.11,2.77-0.43,3.58-0.82c3.61-1.75,7.14-3.75,11.21-4.23
		c1.42-0.17,2.37-1.56,3.94-1.33c1.13,0.16,2.34-0.44,3.11-0.91c1.25-0.76,2.69-0.27,3.94-1.34c1.21-1.04,3.47-0.32,4.88-1.64
		c3.72-0.19,7.05-2.16,10.81-2.34c1.69-0.08,3.33-1,5.03-1.36c1.78-0.38,3.61-0.58,5.42-0.78c1.52-0.17,2.7-2.24,4.5-0.79
		c1.21-1.16,2.81-0.94,4.27-1.19c1.68-0.3,3.37-0.49,5.06-0.73c1.57-0.22,3.13-0.44,4.7-0.67c1.81-0.26,3.61-0.63,5.43-0.74
		c1.74-0.1,3.48-1.23,5.24-0.1c1.1-1.24,2.23-1.08,3.76-0.58c1.14,0.38,2.62-0.22,3.94-0.47c0.7-0.13,1.36-0.6,2.05-0.64
		c0.77-0.03,1.55,0.37,2.32,0.38c0.66,0.01,1.31-0.36,1.98-0.39c0.67-0.03,1.37,0.29,2.02,0.19c1.52-0.24,3.19,0.29,4.44-0.07
		c1.46-0.42,2.44,0.16,3.64,0.29c0.53,0.06,1.1-0.52,1.69-0.59c0.54-0.07,1.11,0.24,1.66,0.25c4.46,0.08,8.86,0.78,13.27,1.28
		c1.09,0.12,2.6,0.4,3.09,1.15c0.63,0.98,0.88,2.31,1.44,3.46c0.35,0.73,0.12,1.9,0.62,2.35c0.73,0.65-0.32,1.58,0.72,2.16
		c0.45,0.25,0.23,1.61,0.44,2.43c0.14,0.53,0.56,0.98,0.75,1.51c0.65,1.73,1.63,3.35,1.7,5.3c0.03,0.89,0.39,1.72,0.87,2.6
		c0.93,1.69,1.17,3.75,1.75,5.65c0.37,1.21,0.61,2.54,1.33,3.52c0.42,0.57,1.69,0.82,2.51,0.72c0.9-0.11,2-2.74,1.4-3.3
		C307.17,147.08,307.62,145.66,307.11,144.27z M152.7,180.64c-0.78,0.45-1.73,0.7-1.8,1.11c-0.09,0.54,0.34,1.42,0.83,1.77
		c2.83,2.06,5.59,4.4,9.53,3.61c0.27-0.05,0.6,0.38,0.93,0.41c2.26,0.25,4.53,0.48,6.8,0.68c2.28,0.2,4.58,0.23,6.82,0.62
		c0.64,0.12,1.28,0.55,1.99,0.34c1.77-0.52,3.43,0.15,5.13,0.39c0.41,0.06,1.14,0.16,1.22,0.01c0.67-1.41,1.31,0.5,2.11-0.03
		c0.59-0.39,1.65-0.34,2.41-0.13c3.3,0.89,6.7,0.53,9.97,0.37c4.03-0.19,8.14,0.26,12.12-0.83c0.35-0.1,0.73-0.17,1.08-0.15
		c3.98,0.23,3.95,0.14,7.38-0.99c1.03-0.34,2.26-0.86,3.49-0.08c0.4,0.25,1.46,0.22,1.64-0.06c0.76-1.17,1.93-0.87,2.94-1.04
		c1.05-0.17,2.15-0.01,3.2-0.16c1.28-0.19,2.52-0.65,3.8-0.84c4.09-0.62,8.21-1.14,12.3-1.79c1.24-0.2,2.7,0.18,3.65-1.15
		c0.11-0.15,0.82,0.17,1.25,0.22c0.46,0.05,1.11,0.26,1.35,0.04c2.04-1.91,5-0.78,7.25-2.37c1.44-1.01,3.5-1.27,5.33-1.56
		c2.7-0.43,5.09-2.04,7.91-1.92c0.2,0.01,0.49-0.11,0.61-0.27c1.4-1.82,3.5-1.74,5.46-2.07c0.68-0.11,1.27-0.34,1.92-0.72
		c3.04-1.74,6.67-2.27,9.45-4.58c2.32,0,3.82-2.11,6.07-2.35c2.38-0.26,3.95-2.17,6.03-3.06c2.44-1.03,4.27-2.74,5.73-4.92
		c0.37-0.56,0.52-0.79-0.09-1.35c-0.46-0.43-0.42-1.26-1.48-1.02c-0.84,0.19-1.44,0.61-2.15,1.03c-2.51,1.5-5,3.04-7.6,4.4
		c-2.02,1.06-4.21,1.65-6.24,2.7c-3.53,1.81-7.21,3.36-10.96,4.74c-1.67,0.61-3.38,0.86-5.01,1.43c-0.63,0.22-1.22,0.59-1.82,0.89
		c-0.71,0.35-1.39,0.78-2.14,1.02c-0.69,0.22-1.56,0.52-2.14,0.27c-0.99-0.42-0.99,1.5-2.08,0.66c-0.24-0.18-1.07,0.51-1.66,0.65
		c-0.83,0.2-1.69,0.22-2.53,0.39c-0.78,0.17-1.54,0.49-2.26,0.76c-1.94,0.72-3.79,1.77-5.98,1.93c-1.72,0.12-3.61-0.02-5.05,1.38
		c-0.21,0.21-0.71,0.2-1.06,0.16c-0.78-0.09-1.59-0.46-2.33-0.34c-0.87,0.14-1.64,0.86-2.51,1.01c-3.12,0.53-6.3,0.78-9.39,1.41
		c-3,0.61-6.26,0.04-9,1.91c-0.97-0.89-2.47-0.71-2.92-0.07c-1.04,1.47-2.41-0.37-2.72,0.26c-0.86,1.71-2.44-0.03-3.53,1.07
		c-0.62,0.62-2.26,0.13-3.43,0.3c-0.99,0.14-2.02-0.4-2.9,0.02c-1.13,0.55-2.42-0.89-3.39,0.4c-1.08-1.05-2.29-0.27-3.43-0.21
		c-3.31,0.19-6.62,0.44-9.94,0.66c-0.23,0.02-0.55,0.08-0.68-0.04c-1-0.95-2.08-0.1-3.11-0.16c-1.14-0.07-2.28-0.2-3.42-0.24
		c-1.5-0.06-3.08,0.2-4.48-0.21c-0.83-0.24-1.55-0.48-2.36-0.3c-1.87,0.41-3.67-0.19-5.5-0.34c-3.4-0.29-6.78-1.08-10.16-1.04
		c-2.99,0.03-5.63-0.68-8.28-1.8C154.18,181.13,153.43,180.9,152.7,180.64z M162.83,152.02c0.11,0.82,0.06,1.72,1.39,1.5
		c0.51-0.08,1.08,0.39,1.62,0.38c2.3-0.06,4.41,1.26,6.8,0.81c0.76-0.15,1.75,0.91,2.53,0.78c2.47-0.42,4.93-0.28,7.41-0.27
		c2.71,0,5.41-0.27,8.12-0.36c0.7-0.02,1.27,1.1,2.18,0.08c0.3-0.34,1.37-0.02,2.08,0.05c0.9,0.09,1.81,0.38,2.69,0.32
		c3.79-0.23,7.58-0.57,11.37-0.84c0.8-0.06,1.62-0.57,2.39,0.21c0.8,0.82,1.18-1.18,2.32-0.31c0.84,0.64,2.24,0.94,3.34-0.27
		c0.32-0.35,1.42-0.51,1.72-0.24c1.17,1.02,2.32,0.16,3.46,0.2c3.26,0.13,6.17-2.1,9.53-1.39c0.36,0.08,0.82-0.34,1.23-0.52
		c0.42-0.18,0.98-0.62,1.23-0.49c1.31,0.7,2.3-0.37,3.41-0.45c4.94-0.36,9.54-2.25,14.41-2.87c1.62-0.21,3.15-0.6,4.71-1.27
		c1.65-0.71,3.44-1.37,5.29-1.78c1.3-0.29,2.57,0.08,3.77-0.38c0.85-0.32,1.63-0.87,2.5-1.04c0.87-0.17,1.6-1.39,2.65-0.42
		c2.15-1.11,4.35-2.07,6.78-2.48c0.72-0.12,1.44-0.67,2.01-1.19c0.47-0.43,1.3-1.22,0.52-1.76c-0.69-0.47-0.44-1.74-1.97-1.61
		c-3.01,0.26-5.6,1.94-8.58,2.14c-0.64,1.23-2.05,0.56-2.86,1.11c-0.93,0.63-1.81,0.22-2.68,0.38c-1.94,0.36-3.84,0.98-5.75,1.51
		c-0.33,0.09-0.65,0.22-0.94,0.39c-1.6,0.95-3.19,1.88-5.12,1.94c-2.03,0.06-3.95,0.68-5.72,1.6c-0.85,0.44-1.48-1.01-2.11-0.05
		c-0.47,0.71-1.04-0.78-1.63,0.24c-0.28,0.49-1.53,0.39-2.31,0.63c-1.67,0.5-3.67-0.16-5.04,1.43c-0.11,0.12-0.55,0.14-0.67,0.03
		c-0.81-0.75-1.33-0.58-2.08,0.22c-0.4,0.42-1.37,0.49-2.05,0.42c-2.06-0.22-4.15-0.89-5.92,0.85c-1.51-1.77-2.98,0.42-4.64,0.08
		c-1.8-0.37-3.82,0.48-5.76,0.66c-3.42,0.31-6.87,0.77-10.28,0.62c-1.52-0.07-3.06-0.34-4.49,0.07c-1.58,0.46-3.02-0.26-4.52-0.14
		c-1.21,0.1-2.41,0.42-3.62,0.47c-1.13,0.04-2.28-0.11-3.42-0.24c-0.78-0.08-1.57-0.43-2.33-0.37c-2.46,0.2-4.9,1.01-7.4,0.28
		c-4.42,0.95-8.68-0.59-13.02-0.87C163.5,149.68,162.69,150.22,162.83,152.02z M190,203.2c1.15-0.31,2.28-0.46,2.69-1.68
		c0.43-1.3-0.91-2.99-2.43-2.98c-1.39,0.02-2.73,0.44-4.16-0.15c-1.42-0.58-2.97-0.54-4.49-0.15c-0.47,0.12-1.19,0.38-1.41,0.17
		c-1.3-1.26-2.89,0.39-4.08-0.43c-1.35-0.93-2.68,0.51-4.14-0.33c-1.07-0.62-2.68-0.29-4.04-0.42c-1.58-0.15-3.2-0.19-4.74-0.54
		c-1.64-0.38-3.2-1.08-4.81-1.62c-0.21-0.07-0.52,0.03-0.66-0.09c-0.96-0.85-2.03-0.27-3.07-0.32c-1.5-0.07-0.9,1.4-1.57,1.91
		c0.73,0.42,0.4,1.99,1.54,1.76c1.19-0.23,1.75,0.53,2.57,0.98c0.58,0.32,1.27,0.45,1.91,0.66c2.49,0.82,5.11,0.97,7.63,1.5
		c2.87,0.6,5.71,0.37,8.54,0.54c1.38,0.09,2.74,0.04,4.09,0.41c0.54,0.15,1.19,0.47,1.64,0.3c2-0.74,3.97,0.2,5.97-0.02
		C187.96,202.61,188.99,203.02,190,203.2z M281.1,124.15c-2.26,0.63-4.36,0.97-6.25,1.81c-1.59,0.7-2.79,2.16-3.58,3.74
		c-0.27,0.54-0.15,1.61,0.24,2.07c0.76,0.89,1.83,1.53,2.78,2.27c0.84-1.38,2.22,0.64,2.93-0.38c0.77-1.12,1.87-0.91,2.87-1.1
		c2.48-0.47,4.33-2.01,5.94-3.75c1.39-1.51,1.13-2.54-0.4-3.7c-0.55-0.41-1.6-1.15-1.64-1.09
		C283.01,125.18,281.8,123.44,281.1,124.15z"/>
	<g>
		<path class="st1" d="M198.59,245.38c-0.59,0-1.06-0.09-1.52-0.28l-0.28-0.12c-1.15-0.49-2.34-0.99-3.68-0.99
			c-0.38,0-0.75,0.04-1.11,0.13c-1.13-0.93-2.48-1.08-3.68-1.21c-0.64-0.07-1.25-0.14-1.81-0.31c-1.04-0.31-2.09-0.62-3.14-0.92
			c-3-0.87-6.11-1.76-9.08-2.94c-1.73-0.69-2.49-1.23-2.66-2.82c-0.07-0.65-0.37-1.21-0.65-1.76c-0.16-0.31-0.31-0.6-0.42-0.88
			c-0.07-0.21-0.09-0.47-0.11-0.76c-0.05-0.65-0.11-1.54-1-2.11c-0.04-2.51-1.09-4.68-2.11-6.78c-0.95-1.97-1.85-3.83-1.97-5.94
			c-0.02-0.37-0.25-0.64-0.42-0.83c-0.05-0.06-0.14-0.15-0.15-0.19c-0.05-0.15-0.09-0.33-0.11-0.53c0.03,0,0.06-0.01,0.07-0.01
			c1.18,0.62,2.47,0.72,3.72,0.82c0.25,0.02,1.03,0.09,1.03,0.09c1.14,0.11,2.42,0.23,3.47,0.75c1.45,0.71,2.9,0.81,4.27,0.81
			c0.36,0,0.73-0.01,1.09-0.01l0.62-0.01c1.46,0,2.98,0.21,4.45,0.42c0.66,0.09,1.31,0.18,1.97,0.26c0.19,0.02,0.39,0.07,0.58,0.11
			c0.33,0.07,0.67,0.15,1.03,0.15c0.06,0,0.12,0,0.18-0.01c0.81-0.06,1.62-0.19,2.41-0.31c1.1-0.17,2.15-0.33,3.22-0.33
			c0.71,0,1.35,0.07,1.96,0.22c0.26,0.06,0.53,0.1,0.81,0.1c0.85,0,1.63-0.3,2.22-0.83c0.31,0.19,0.67,0.28,1.06,0.28
			c0.37,0,0.71-0.08,1.05-0.15c0.21-0.05,0.41-0.1,0.61-0.11c0.46-0.04,0.94-0.16,1.4-0.28c0.51-0.13,1-0.25,1.39-0.25
			c0.18,0,0.33,0.03,0.43,0.08c0.31,0.16,0.62,0.24,0.93,0.24c0.57,0,0.98-0.26,1.31-0.48c0.19-0.12,0.38-0.24,0.5-0.24
			c0.68,0.19,1.24,0.28,1.73,0.28c0.08,0,0.15,0,0.23-0.01c0.91-0.05,1.85-0.19,2.78-0.41c0.32-0.08,0.63-0.25,0.9-0.41
			c0.11-0.06,0.25-0.15,0.35-0.19c0.57,0.25,1.17,0.37,1.84,0.37c0.68,0,1.33-0.12,1.96-0.24c0.59-0.11,1.15-0.22,1.7-0.22
			c0.08,0,0.15,0,0.23,0.01c0.68,0.04,1.36,0.06,2.03,0.06c4.05,0,8.06-0.67,11.95-1.32c2.5-0.42,5.08-0.85,7.62-1.09
			c0.22-0.02,0.45-0.03,0.68-0.05c0.99-0.06,2.11-0.12,2.8-0.77c0.21-0.2,0.33-0.2,0.38-0.2c0.13,0,0.29,0.07,0.47,0.14
			c0.27,0.1,0.57,0.22,0.93,0.22c0.15,0,0.29-0.02,0.43-0.06c0.58-0.17,1.08-0.44,1.56-0.7c0.66-0.36,1.29-0.71,2.03-0.71l0.13,0
			c0.17,0.01,0.33,0.01,0.5,0.01c1.16,0,2.43-0.21,3.68-0.6c0.94-0.29,1.8-0.77,2.64-1.22c0.37-0.2,0.73-0.4,1.1-0.58
			c0.22-0.11,0.37-0.18,0.5-0.21c0.87-0.21,1.74-0.41,2.61-0.61c1.74-0.4,3.54-0.82,5.31-1.28c1.07-0.28,2.09-0.7,3.08-1.12
			l0.22-0.09c1.33-0.56,2.78-0.93,4.17-1.29c1.59-0.41,3.24-0.83,4.78-1.54c1.14-0.52,2.35-0.95,3.52-1.36
			c1.47-0.51,2.98-1.04,4.43-1.79c1.8-0.93,3.78-1.68,5.69-2.4c1.04-0.39,2.08-0.79,3.1-1.21c1.59-0.66,3.21-1.57,5.12-2.88
			c0.85-0.58,1.85-0.95,2.91-1.34c0.77-0.28,1.56-0.57,2.3-0.96c1.09-0.56,2.1-1.25,3.08-1.91c0.11-0.07,0.22-0.15,0.32-0.22
			c0,0.16,0,0.31,0,0.47c0.01,1.11,0.02,2.16,0.15,3.2c0.22,1.85,0.32,3.42,0.03,5.07c-0.14,0.8,0.03,1.57,0.19,2.31
			c0.22,1,0.41,1.86-0.12,2.72c-0.33,0.53-0.1,1.24,0.08,1.8l0.04,0.13c0.47,1.51,0.4,3.06,0.32,4.69
			c-0.06,1.31-0.12,2.67,0.12,4.03c-0.05,0.1-0.21,0.3-0.4,0.46c-1.35,1.12-2.71,2.22-4.07,3.32c-0.85,0.69-1.7,1.37-2.54,2.07
			c-0.67,0.55-1.33,1.1-2,1.66c-1.24,1.03-2.51,2.1-3.81,3.09c-0.44,0.34-0.94,0.62-1.47,0.92c-0.78,0.44-1.6,0.9-2.23,1.57
			l-0.07,0.08c-0.84,0.89-1.57,1.66-2.68,1.97c-0.3,0.08-0.54,0.26-0.75,0.42c-0.1,0.07-0.24,0.18-0.3,0.2
			c-1.81,0.09-3.39,0.81-4.92,1.51c-1.24,0.56-2.41,1.1-3.69,1.31l-0.32,0.05l-0.14,0.29c-0.23,0.47-0.55,0.53-1.34,0.58
			c-0.26,0.01-0.51,0.03-0.75,0.07c-0.28,0.05-0.56,0.09-0.84,0.13c-1.46,0.22-3.12,0.46-4.33,1.93c-0.06,0.06-0.34,0.13-0.51,0.17
			c-0.17,0.04-0.33,0.08-0.48,0.14c-0.36,0.13-0.79,0.15-1.24,0.18c-0.88,0.04-1.88,0.1-2.73,0.97c-0.3,0.31-0.72,0.37-1.37,0.43
			c-0.78,0.08-1.74,0.18-2.52,1.05c-0.23,0.26-0.77,0.35-1.34,0.46c-0.65,0.12-1.39,0.25-2.06,0.65c-0.52,0.31-1.15,0.47-1.92,0.47
			c-0.81,0-1.69-0.17-2.53-0.33c-0.33-0.06-0.65-0.12-0.97-0.18l-0.32-0.05c-0.95-0.16-1.58-0.26-2.15-0.26
			c-1,0-1.72,0.31-3.37,1.08c-0.28,0.13-0.71,0.33-1.01,0.33c-0.33-0.01-0.62-0.02-0.91-0.02c-0.79,0-1.74,0.06-2.8,0.5
			c-0.79,0.33-1.72,0.41-2.71,0.48c-0.36,0.03-0.72,0.06-1.07,0.1c-0.32,0.04-0.64,0.09-0.95,0.15c-0.5,0.09-0.97,0.18-1.43,0.18
			c-0.53,0-0.96-0.12-1.35-0.38l-0.55-0.36l-0.32,0.58c-0.16,0.29-0.35,0.38-0.73,0.38c-0.22,0-0.44-0.03-0.67-0.06
			c-0.28-0.04-0.57-0.07-0.84-0.07c-0.8,0-1.38,0.3-1.78,0.92c-0.05,0.01-0.13,0.02-0.21,0.02c-0.06,0-0.1-0.01-0.11-0.01
			c-0.64-0.32-1.36-0.49-2.16-0.49c-0.77,0-1.52,0.15-2.24,0.29c-0.64,0.13-1.24,0.25-1.84,0.27c-0.68,0.02-1.36,0.03-2.04,0.05
			c-1.53,0.03-3.11,0.06-4.66,0.19c-0.86,0.07-1.73,0.25-2.56,0.42c-1.07,0.22-2.09,0.42-3.07,0.42c-0.25,0-0.49-0.01-0.74-0.04
			c-0.68-0.08-1.37-0.13-2.1-0.13c-2.03,0-4.02,0.33-5.95,0.64c-1.37,0.23-2.79,0.46-4.19,0.57l-0.24,0.02
			C199.28,245.36,198.94,245.38,198.59,245.38z"/>
		<path class="st2" d="M307.61,190.71c0.01,0.88,0.04,1.73,0.14,2.58c0.22,1.79,0.31,3.31,0.04,4.89c-0.16,0.92,0.03,1.78,0.2,2.54
			c0.23,1.03,0.33,1.65-0.04,2.27c-0.47,0.77-0.19,1.66,0.01,2.31l0.04,0.12c0.44,1.41,0.37,2.9,0.3,4.48
			c-0.06,1.26-0.12,2.57,0.08,3.9c-0.04,0.05-0.09,0.09-0.14,0.14c-1.35,1.12-2.71,2.22-4.07,3.32c-0.85,0.69-1.69,1.37-2.54,2.06
			c-0.67,0.55-1.34,1.1-2,1.66c-1.23,1.03-2.5,2.09-3.79,3.08c-0.41,0.31-0.89,0.58-1.4,0.87c-0.82,0.46-1.68,0.95-2.38,1.69
			l-0.07,0.07c-0.81,0.86-1.45,1.53-2.4,1.8c-0.42,0.12-0.73,0.35-0.96,0.52c-0.04,0.03-0.07,0.06-0.11,0.08
			c-1.87,0.13-3.46,0.86-4.99,1.55c-1.2,0.55-2.34,1.06-3.53,1.26l-0.64,0.11l-0.28,0.58c-0.07,0.14-0.09,0.19-0.82,0.23
			c-0.25,0.01-0.54,0.03-0.83,0.08c-0.27,0.05-0.55,0.09-0.82,0.13c-1.54,0.23-3.28,0.49-4.63,2.04c-0.08,0.02-0.19,0.05-0.28,0.08
			c-0.18,0.05-0.37,0.1-0.53,0.16c-0.28,0.1-0.66,0.12-1.06,0.14c-0.9,0.05-2.13,0.11-3.14,1.16c-0.15,0.16-0.47,0.2-0.99,0.25
			c-0.84,0.08-1.98,0.2-2.92,1.25c-0.12,0.1-0.64,0.2-0.99,0.26c-0.67,0.12-1.5,0.27-2.27,0.73c-0.43,0.26-0.94,0.38-1.6,0.38
			c-0.75,0-1.6-0.16-2.42-0.31c-0.33-0.06-0.67-0.13-0.99-0.18l-0.32-0.05c-0.98-0.16-1.63-0.27-2.24-0.27
			c-1.13,0-1.93,0.35-3.63,1.13c-0.19,0.09-0.58,0.27-0.75,0.27c-0.31-0.01-0.61-0.02-0.91-0.02c-0.8,0-1.87,0.06-3.04,0.55
			c-0.7,0.29-1.58,0.36-2.52,0.44c-0.37,0.03-0.73,0.06-1.09,0.1c-0.33,0.04-0.66,0.1-0.99,0.16c-0.47,0.09-0.92,0.17-1.32,0.17
			c-0.41,0-0.72-0.09-1.01-0.28l-1.11-0.72l-0.65,1.15c-0.02,0.03-0.03,0.05-0.03,0.06c-0.02,0-0.06,0.01-0.15,0.01
			c-0.16,0-0.37-0.03-0.59-0.06c-0.28-0.04-0.59-0.08-0.92-0.08c-1.01,0-1.65,0.42-2.06,0.89c-0.68-0.3-1.4-0.44-2.2-0.44
			c-0.83,0-1.61,0.16-2.37,0.31c-0.61,0.12-1.19,0.24-1.73,0.26c-0.68,0.02-1.36,0.03-2.03,0.05c-1.54,0.03-3.13,0.06-4.71,0.19
			c-0.9,0.08-1.78,0.26-2.63,0.43c-1.04,0.21-2.03,0.41-2.95,0.41c-0.23,0-0.45-0.01-0.66-0.04c-0.71-0.09-1.42-0.13-2.18-0.13
			c-2.08,0-4.1,0.33-6.05,0.65c-1.42,0.23-2.76,0.45-4.13,0.56l-0.24,0.02c-0.35,0.03-0.68,0.05-0.99,0.05
			c-0.51,0-0.89-0.07-1.28-0.23l-0.28-0.12c-1.15-0.49-2.46-1.04-3.92-1.04c-0.32,0-0.64,0.03-0.96,0.08
			c-1.21-0.88-2.56-1.03-3.77-1.16c-0.61-0.07-1.19-0.13-1.7-0.28c-1.05-0.31-2.1-0.62-3.15-0.92c-2.99-0.86-6.08-1.75-9.02-2.92
			c-1.72-0.68-2.14-1.11-2.27-2.31c-0.08-0.76-0.42-1.41-0.72-1.98c-0.15-0.29-0.29-0.56-0.38-0.81c-0.05-0.13-0.06-0.36-0.08-0.59
			c-0.05-0.64-0.12-1.65-1.01-2.39c-0.12-2.51-1.15-4.65-2.16-6.73c-0.93-1.91-1.8-3.72-1.91-5.7c-0.01-0.16-0.04-0.3-0.08-0.43
			c0.85,0.21,1.69,0.28,2.51,0.35c0.25,0.02,0.5,0.04,0.76,0.06l0.26,0.03c1.13,0.11,2.31,0.22,3.25,0.69
			c1.56,0.77,3.1,0.87,4.54,0.87c0.37,0,0.74-0.01,1.11-0.02l0.33-0.01c0.09,0,0.18,0,0.27,0c1.42,0,2.85,0.2,4.36,0.41
			c0.66,0.09,1.33,0.19,1.99,0.26c0.15,0.02,0.32,0.06,0.51,0.1c0.34,0.08,0.73,0.17,1.17,0.17c0.08,0,0.15,0,0.23-0.01
			c0.84-0.06,1.66-0.19,2.46-0.32c1.08-0.17,2.1-0.33,3.12-0.33c0.66,0,1.25,0.07,1.81,0.2c0.31,0.08,0.63,0.11,0.95,0.11
			c0.85,0,1.65-0.26,2.3-0.72c0.3,0.11,0.63,0.17,0.97,0.17c0.44,0,0.84-0.09,1.19-0.17c0.2-0.04,0.38-0.09,0.53-0.1
			c0.51-0.05,1.01-0.17,1.49-0.29c0.45-0.11,0.92-0.23,1.24-0.23c0.11,0,0.15,0.01,0.15,0.01c0,0,0,0,0,0c0.4,0.2,0.81,0.3,1.21,0.3
			c0.75,0,1.29-0.35,1.65-0.58c0.06-0.04,0.14-0.09,0.19-0.12c0.61,0.17,1.19,0.26,1.71,0.26c0.09,0,0.18,0,0.27-0.01
			c0.95-0.06,1.92-0.2,2.89-0.42c0.42-0.1,0.78-0.31,1.07-0.48c0.02-0.01,0.05-0.03,0.07-0.04c0.56,0.21,1.15,0.31,1.8,0.31
			c0.74,0,1.42-0.13,2.07-0.25c0.56-0.11,1.09-0.21,1.58-0.21c0.06,0,0.13,0,0.19,0.01c0.67,0.04,1.37,0.06,2.07,0.06
			c4.1,0,8.14-0.67,12.05-1.33c2.49-0.42,5.05-0.84,7.58-1.09c0.21-0.02,0.43-0.03,0.66-0.05c1.1-0.06,2.34-0.13,3.19-0.94
			c0,0,0.01-0.01,0.01-0.01c0.06,0.02,0.13,0.05,0.19,0.07c0.29,0.11,0.68,0.27,1.16,0.27c0.2,0,0.41-0.03,0.6-0.08
			c0.64-0.18,1.2-0.49,1.69-0.76c0.64-0.35,1.15-0.63,1.73-0.63c0.03,0,0.06,0,0.1,0c0.18,0.01,0.35,0.01,0.53,0.01
			c1.22,0,2.56-0.22,3.87-0.63c0.99-0.31,1.89-0.8,2.75-1.27c0.36-0.2,0.72-0.39,1.08-0.57l0.06-0.03c0.1-0.05,0.25-0.12,0.31-0.14
			c0.87-0.21,1.74-0.41,2.61-0.61c1.75-0.4,3.55-0.82,5.33-1.28c1.11-0.29,2.15-0.72,3.16-1.15l0.22-0.09
			c1.29-0.54,2.65-0.89,4.09-1.26c1.62-0.42,3.29-0.85,4.88-1.57c1.11-0.51,2.26-0.91,3.47-1.34c1.48-0.52,3.02-1.06,4.51-1.82
			c1.77-0.91,3.73-1.65,5.63-2.37c1.03-0.39,2.09-0.79,3.12-1.22c1.63-0.67,3.29-1.61,5.23-2.94c0.78-0.54,1.75-0.89,2.77-1.27
			c0.78-0.29,1.59-0.59,2.37-0.99C305.98,191.77,306.81,191.24,307.61,190.71 M308.81,188.4c-1.39,0.9-2.77,1.94-4.28,2.72
			c-1.71,0.88-3.72,1.27-5.28,2.34c-1.6,1.1-3.24,2.09-5,2.82c-2.95,1.22-6.04,2.2-8.84,3.64c-2.57,1.32-5.34,1.95-7.93,3.14
			c-2.82,1.3-6.03,1.6-8.93,2.82c-1.05,0.44-2.12,0.9-3.22,1.18c-2.62,0.68-5.27,1.26-7.91,1.89c-0.22,0.05-0.42,0.16-0.63,0.26
			c-1.21,0.6-2.37,1.37-3.65,1.77c-1.11,0.35-2.32,0.57-3.49,0.57c-0.16,0-0.31,0-0.47-0.01c-0.05,0-0.11,0-0.16,0
			c-1.48,0-2.46,1.06-3.76,1.44c-0.09,0.03-0.17,0.04-0.26,0.04c-0.49,0-0.91-0.36-1.4-0.36c-0.25,0-0.51,0.09-0.81,0.37
			c-0.66,0.62-2.04,0.55-3.11,0.65c-6.52,0.62-12.91,2.41-19.51,2.41c-0.66,0-1.33-0.02-1.99-0.06c-0.09-0.01-0.18-0.01-0.26-0.01
			c-1.21,0-2.42,0.46-3.66,0.46c-0.56,0-1.12-0.09-1.69-0.37c-0.04-0.02-0.08-0.02-0.12-0.02c-0.35,0-0.93,0.53-1.41,0.64
			c-0.88,0.2-1.78,0.34-2.68,0.39c-0.06,0-0.13,0.01-0.2,0.01c-0.49,0-1-0.1-1.48-0.24c-0.09-0.03-0.17-0.04-0.26-0.04
			c-0.64,0-1.07,0.72-1.82,0.72c-0.19,0-0.41-0.05-0.65-0.17c-0.21-0.11-0.45-0.15-0.71-0.15c-0.85,0-1.92,0.44-2.85,0.53
			c-0.52,0.05-1.07,0.27-1.6,0.27c-0.39,0-0.77-0.12-1.12-0.51c-0.55,0.75-1.38,1.06-2.15,1.06c-0.23,0-0.45-0.03-0.66-0.08
			c-0.71-0.17-1.41-0.24-2.11-0.24c-1.91,0-3.77,0.5-5.67,0.65c-0.04,0-0.09,0-0.13,0c-0.5,0-1.02-0.2-1.54-0.26
			c-2.16-0.25-4.33-0.68-6.49-0.68c-0.1,0-0.19,0-0.29,0c-0.48,0.01-0.95,0.02-1.42,0.02c-1.37,0-2.7-0.11-3.99-0.74
			c-1.23-0.61-2.69-0.71-3.94-0.83c-1.51-0.15-2.96-0.14-4.34-0.85c-0.06-0.03-0.13-0.04-0.2-0.04c-0.23,0-0.52,0.11-0.77,0.15
			c0.07,0.41,0.09,0.84,0.22,1.23c0.11,0.31,0.52,0.55,0.54,0.84c0.26,4.65,4.12,8.17,4.08,12.91c0,0.09,0.13,0.2,0.22,0.25
			c1.03,0.61,0.62,1.73,0.93,2.6c0.31,0.85,0.94,1.64,1.03,2.5c0.21,1.95,1.27,2.63,3.05,3.33c4.01,1.59,8.16,2.64,12.26,3.87
			c1.83,0.55,3.95,0.09,5.51,1.61c0.44-0.13,0.86-0.19,1.28-0.19c1.31,0,2.54,0.57,3.72,1.06c0.62,0.26,1.19,0.33,1.76,0.33
			c0.43,0,0.87-0.04,1.32-0.08c3.38-0.26,6.66-1.21,10.09-1.21c0.67,0,1.35,0.04,2.03,0.12c0.27,0.03,0.54,0.05,0.82,0.05
			c1.85,0,3.78-0.68,5.68-0.85c2.21-0.19,4.45-0.16,6.67-0.24c1.36-0.04,2.7-0.56,4.06-0.56c0.63,0,1.26,0.11,1.9,0.43
			c0.09,0.04,0.22,0.06,0.36,0.06c0.28,0,0.6-0.08,0.68-0.21c0.33-0.59,0.8-0.73,1.31-0.73c0.49,0,1.03,0.13,1.51,0.13
			c0.5,0,0.95-0.14,1.27-0.7c0.56,0.36,1.12,0.48,1.69,0.48c0.81,0,1.64-0.24,2.45-0.33c1.33-0.16,2.76-0.12,3.95-0.63
			c0.88-0.37,1.7-0.46,2.55-0.46c0.28,0,0.57,0.01,0.86,0.02c0.02,0,0.03,0,0.05,0c0.42,0,0.87-0.2,1.27-0.39
			c1.61-0.74,2.24-1.02,3.1-1.02c0.57,0,1.24,0.12,2.37,0.3c1.17,0.19,2.42,0.51,3.61,0.51c0.79,0,1.55-0.14,2.24-0.56
			c1.22-0.74,2.84-0.45,3.54-1.23c1.17-1.31,2.87-0.42,3.88-1.46c1.08-1.12,2.52-0.56,3.73-1c0.43-0.15,1.01-0.2,1.26-0.5
			c1.27-1.54,3.08-1.54,4.81-1.85c0.9-0.16,2.01,0.12,2.54-0.99c2.99-0.5,5.43-2.65,8.55-2.81c0.4-0.02,0.75-0.52,1.17-0.64
			c1.31-0.36,2.12-1.25,3.04-2.21c0.98-1.03,2.48-1.54,3.63-2.43c1.99-1.53,3.88-3.18,5.82-4.76c2.2-1.8,4.42-3.58,6.61-5.39
			c0.29-0.24,0.68-0.69,0.63-0.97c-0.54-2.94,0.43-5.95-0.47-8.86c-0.14-0.46-0.37-1.1-0.18-1.42c1.1-1.79-0.28-3.55,0.01-5.25
			c0.31-1.79,0.18-3.49-0.03-5.25C308.8,191.66,308.87,190.16,308.81,188.4L308.81,188.4z"/>
	</g>
	<g>
		<path class="st1" d="M254.9,378.66c-0.35,0-0.59-0.1-0.82-0.34l-0.18-0.2l-0.33-0.02c-0.14,0-0.27,0.03-0.37,0.06
			c-0.77,0.18-1.54,0.26-2.4,0.26c-1.02,0-2.07-0.11-3.09-0.22c-0.88-0.09-1.79-0.19-2.7-0.22c-0.8-0.03-1.56-0.26-2.36-0.51
			c-0.87-0.27-1.77-0.56-2.76-0.56c-0.2,0-0.4,0.01-0.6,0.04c-0.04-0.02-0.1-0.06-0.14-0.08c-0.19-0.12-0.44-0.26-0.74-0.26h-0.05
			l-0.1,0.01c-0.36,0.06-0.74,0.1-1.11,0.1c-1.39,0-2.69-0.42-4.07-0.86c-0.72-0.23-1.46-0.47-2.22-0.64
			c-0.61-0.14-1.19-0.35-1.82-0.57c-1.09-0.39-2.22-0.8-3.56-0.84c-1.47-0.05-2.95-0.79-4.51-1.58c-0.63-0.32-1.26-0.63-1.89-0.9
			c-0.85-0.37-1.74-0.82-2.69-1.4c-0.92-0.55-1.42-1.29-1.82-2.73c-0.92-3.29-2.26-6.45-3.68-9.67c-0.24-0.54-0.48-1.07-0.72-1.6
			c-0.91-2.01-1.85-4.08-2.43-6.24c-0.16-0.6-0.39-1.17-0.61-1.72c-0.21-0.52-0.41-1.01-0.55-1.52c-0.07-0.25-0.11-0.5-0.14-0.76
			c-0.11-0.75-0.26-1.68-1.11-2.37c-0.01-0.07-0.01-0.17-0.01-0.25c0-0.18-0.01-0.35-0.04-0.5c-0.07-0.42,0-0.69,0.09-0.8
			c0.02-0.03,0.08-0.09,0.25-0.09c0.12,0,0.26,0.03,0.41,0.09c0.38,0.14,0.78,0.2,1.13,0.24c0.26,0.04,0.59,0.08,0.7,0.15
			c1.51,0.98,3.17,1.27,4.78,1.54c1.22,0.21,2.37,0.4,3.45,0.88c1.14,0.51,2.4,0.66,3.62,0.8c1.02,0.12,2.07,0.25,3.02,0.58
			c1.66,0.59,3.39,0.81,5.06,1.03c1.2,0.16,2.45,0.32,3.63,0.62c0.87,0.22,2.03,0.47,3.27,0.47c0.65,0,1.29-0.07,1.88-0.21
			c0.44-0.1,0.93-0.15,1.56-0.15c0.42,0,0.85,0.02,1.28,0.04c0.45,0.02,0.9,0.04,1.35,0.04c0.31,0,0.63-0.01,0.94-0.04
			c2.59-0.23,4.55-0.72,6.35-1.56c0.63-0.29,1.37-0.36,2.16-0.44c1.21-0.11,2.58-0.24,3.72-1.26c0.07-0.04,0.29-0.07,0.66-0.07h0.35
			c2.15-0.03,4.18-0.63,6.14-1.21c1.72-0.51,3.35-0.99,5.06-1.12l0.2-0.01l0.15-0.12c1.05-0.86,2.37-1.01,3.77-1.17
			c1.39-0.16,2.83-0.32,4.09-1.19c0.24,0.12,0.48,0.18,0.73,0.18l0,0c0.48,0,0.87-0.22,1.22-0.41c0.18-0.1,0.35-0.2,0.51-0.24
			c0.43-0.12,0.89-0.17,1.39-0.22c0.48-0.05,0.98-0.1,1.47-0.23c1.22-0.32,2.44-0.72,3.61-1.11l0.73-0.24
			c0.41-0.13,0.89-0.15,1.39-0.17c1.01-0.04,2.25-0.09,3.16-1.22c0.05-0.01,0.34-0.03,0.34-0.03c5.92-0.59,10.6-3.86,15.13-7.01
			l0.2-0.14c0.96-0.67,1.95-1.27,3-1.9c1.33-0.8,2.7-1.62,4.01-2.62c0.05,0.16,0.1,0.31,0.15,0.45c0.31,0.93,0.45,1.45-0.02,2.01
			l-0.19,0.23l0.06,0.29c0.3,1.46,0.25,2.92,0.19,4.47c-0.03,0.92-0.07,1.86-0.02,2.81c0.04,0.91,0.23,1.79,0.4,2.65
			c0.3,1.47,0.58,2.86,0.2,4.28c-0.3,1.11-0.09,2.17,0.11,3.2c0.23,1.16,0.44,2.25-0.12,3.28c-0.23,0.42-0.1,0.9,0.01,1.28
			c0.02,0.08,0.04,0.15,0.06,0.23c0.53,2.32,0.68,3.8-1.62,4.63c-0.62,0.23-0.97,0.82-1.31,1.39c-0.16,0.27-0.33,0.56-0.5,0.75
			c-0.71,0.78-1.51,1.57-2.43,2.4c-0.39,0.35-0.82,0.68-1.24,1c-0.88,0.67-1.78,1.37-2.41,2.29c-0.31,0.46-0.87,0.74-1.41,1.01
			c-0.67,0.34-1.36,0.69-1.56,1.42c-0.23,0.85-0.79,1.13-1.5,1.49c-0.42,0.21-0.85,0.43-1.23,0.78c-0.33,0.31-0.87,0.48-1.44,0.66
			c-0.67,0.21-1.36,0.43-1.89,0.91c-1.08,0.98-2.38,1.49-3.76,2.03c-1.04,0.41-2.11,0.83-3.09,1.46c-0.34,0.22-0.84,0.3-1.36,0.39
			c-0.4,0.07-0.81,0.14-1.21,0.27c-0.45,0.16-0.87,0.37-1.26,0.58c-0.3,0.16-0.59,0.32-0.9,0.44c-4.33,1.75-8.39,2.82-12.4,3.28
			c-0.88,0.1-1.68,0.43-2.46,0.75c-0.89,0.37-1.74,0.71-2.65,0.71l-0.18,0l-0.45-0.03c-0.4-0.02-0.79-0.05-1.19-0.05
			c-0.49,0-0.91,0.04-1.29,0.11c-0.2,0.04-0.42,0.06-0.66,0.06c-0.28,0-0.55-0.02-0.83-0.05c-0.19-0.02-0.38-0.03-0.57-0.04
			c-0.09,0-0.18-0.01-0.26-0.01c-0.62,0-1.22,0.11-1.81,0.22c-0.31,0.06-0.62,0.11-0.93,0.15c-0.18,0.02-0.36,0.06-0.55,0.09
			C255.42,378.61,255.15,378.66,254.9,378.66z"/>
		<path class="st2" d="M310.92,325.26c0.19,0.64,0.17,0.82-0.02,1.05l-0.39,0.46l0.12,0.59c0.29,1.39,0.24,2.81,0.18,4.32
			c-0.03,0.93-0.07,1.89-0.02,2.86c0.05,0.95,0.23,1.86,0.41,2.74c0.29,1.4,0.55,2.72,0.21,3.99c-0.34,1.25-0.11,2.44,0.1,3.48
			c0.25,1.26,0.37,2.07-0.06,2.86c-0.35,0.64-0.16,1.31-0.04,1.74c0.02,0.07,0.04,0.13,0.05,0.2c0.57,2.52,0.49,3.29-1.22,3.91
			c-0.83,0.3-1.28,1.05-1.64,1.66c-0.15,0.25-0.3,0.5-0.43,0.65c-0.7,0.77-1.48,1.54-2.39,2.36c-0.37,0.33-0.77,0.64-1.2,0.97
			c-0.92,0.7-1.86,1.43-2.55,2.44c-0.22,0.33-0.71,0.57-1.17,0.81c-0.72,0.36-1.61,0.81-1.88,1.82c-0.15,0.56-0.47,0.74-1.18,1.1
			c-0.44,0.22-0.93,0.47-1.37,0.88c-0.23,0.21-0.72,0.37-1.2,0.52c-0.7,0.22-1.49,0.47-2.12,1.05c-1,0.9-2.25,1.39-3.57,1.91
			c-1.06,0.42-2.17,0.85-3.2,1.52c-0.23,0.15-0.66,0.22-1.12,0.3c-0.4,0.07-0.86,0.14-1.31,0.3c-0.5,0.17-0.93,0.4-1.35,0.62
			c-0.3,0.16-0.57,0.3-0.84,0.41c-4.28,1.72-8.28,2.78-12.24,3.24c-0.96,0.11-1.81,0.46-2.63,0.79c-0.84,0.34-1.63,0.66-2.41,0.66
			c-0.05,0-0.1,0-0.14,0l-0.44-0.02c-0.4-0.02-0.81-0.05-1.23-0.05c-0.53,0-0.99,0.04-1.42,0.12c-0.17,0.03-0.34,0.05-0.54,0.05
			c-0.24,0-0.5-0.02-0.77-0.05c-0.2-0.02-0.39-0.03-0.59-0.05c-0.1-0.01-0.2-0.01-0.3-0.01c-0.67,0-1.31,0.12-1.92,0.23
			c-0.3,0.05-0.6,0.11-0.9,0.15c-0.19,0.02-0.39,0.06-0.58,0.09c-0.26,0.05-0.51,0.09-0.7,0.09c-0.18,0-0.25-0.03-0.36-0.15
			c-0.25-0.26-0.59-0.41-0.97-0.41c-0.22,0-0.41,0.05-0.57,0.09c-0.67,0.15-1.39,0.23-2.2,0.23c-0.99,0-1.98-0.11-3.02-0.22
			c-0.89-0.1-1.81-0.2-2.75-0.22c-0.72-0.02-1.43-0.25-2.19-0.49c-0.92-0.29-1.86-0.59-2.94-0.59c-0.16,0-0.31,0.01-0.47,0.02
			c-0.23-0.14-0.57-0.32-1.02-0.32l-0.16,0l-0.11,0.02c-0.33,0.06-0.66,0.09-1.01,0.09c-1.29,0-2.55-0.4-3.88-0.83
			c-0.73-0.23-1.49-0.48-2.27-0.66c-0.57-0.13-1.14-0.34-1.74-0.55c-1.09-0.39-2.31-0.83-3.75-0.88c-1.33-0.05-2.75-0.76-4.25-1.51
			c-0.62-0.31-1.27-0.64-1.92-0.92c-0.83-0.36-1.68-0.8-2.62-1.36c-0.78-0.46-1.18-1.08-1.54-2.37c-0.93-3.32-2.28-6.51-3.71-9.75
			c-0.24-0.54-0.48-1.07-0.72-1.61c-0.94-2.07-1.83-4.03-2.39-6.14c-0.17-0.63-0.41-1.22-0.63-1.79c-0.2-0.5-0.39-0.98-0.53-1.45
			c-0.06-0.2-0.09-0.44-0.13-0.69c-0.11-0.76-0.27-1.76-1.12-2.57c0-0.17-0.01-0.36-0.05-0.56c-0.01-0.03-0.01-0.07-0.01-0.1
			c0.43,0.15,0.86,0.21,1.2,0.26c0.16,0.02,0.39,0.05,0.48,0.08c1.61,1.04,3.32,1.33,4.98,1.61c1.18,0.2,2.3,0.39,3.3,0.84
			c1.23,0.55,2.54,0.7,3.8,0.85c1.03,0.12,2,0.24,2.89,0.55c1.72,0.61,3.48,0.84,5.19,1.06c1.24,0.16,2.41,0.31,3.56,0.6
			c0.91,0.23,2.11,0.49,3.42,0.49c0.7,0,1.38-0.08,2.02-0.23c0.39-0.09,0.84-0.14,1.42-0.14c0.41,0,0.83,0.02,1.24,0.04
			c0.45,0.02,0.91,0.05,1.38,0.05c0.36,0,0.68-0.01,0.99-0.04c2.67-0.24,4.69-0.74,6.56-1.62c0.53-0.25,1.22-0.31,1.95-0.38
			c1.2-0.11,2.69-0.25,3.96-1.31c0.06-0.01,0.17-0.01,0.36-0.01l0.12,0l0.13,0l0.12,0c2.24-0.03,4.31-0.64,6.31-1.24
			c1.69-0.5,3.28-0.97,4.93-1.1l0.39-0.03l0.3-0.25c0.91-0.75,2.08-0.88,3.45-1.03c1.31-0.15,2.77-0.31,4.08-1.11
			c0.22,0.07,0.44,0.1,0.67,0.1c0.64,0,1.15-0.28,1.52-0.48c0.14-0.08,0.29-0.16,0.38-0.19c0.38-0.11,0.82-0.16,1.28-0.2
			c0.5-0.05,1.02-0.11,1.56-0.25c1.24-0.32,2.46-0.72,3.63-1.11l0.74-0.24c0.33-0.11,0.76-0.12,1.22-0.14
			c1.02-0.04,2.37-0.09,3.44-1.24c0.03,0,0.07-0.01,0.1-0.01c6.08-0.61,10.83-3.92,15.43-7.12l0.2-0.14
			c0.95-0.66,1.93-1.25,2.97-1.88C308.66,326.73,309.8,326.05,310.92,325.26 M311.64,323.15c-2.49,2.06-5.27,3.37-7.76,5.11
			c-4.61,3.21-9.2,6.46-15.04,7.05c-0.24,0.02-0.58,0.01-0.68,0.15c-1.13,1.54-2.91,0.82-4.34,1.29c-1.43,0.47-2.85,0.96-4.3,1.33
			c-0.94,0.24-1.95,0.19-2.88,0.46c-0.54,0.15-1.01,0.62-1.55,0.62c-0.23,0-0.48-0.09-0.75-0.33c-2.38,2.01-5.84,0.68-8.23,2.65
			c-3.82,0.3-7.29,2.28-11.17,2.33c-0.03,0-0.07,0-0.11,0c-0.08,0-0.16,0-0.25,0c-0.41,0-0.84,0.02-1.07,0.23
			c-1.68,1.51-3.97,0.77-5.74,1.6c-1.99,0.94-4.04,1.31-6.14,1.5c-0.29,0.03-0.58,0.04-0.88,0.04c-0.87,0-1.76-0.09-2.62-0.09
			c-0.58,0-1.15,0.04-1.7,0.17c-0.59,0.14-1.17,0.19-1.74,0.19c-1.1,0-2.16-0.21-3.12-0.45c-2.86-0.72-5.86-0.64-8.64-1.63
			c-2.16-0.77-4.6-0.48-6.6-1.37c-2.64-1.17-5.66-0.75-8.15-2.37c-0.43-0.28-1.27-0.2-1.95-0.46c-0.23-0.09-0.44-0.13-0.63-0.13
			c-0.75,0-1.13,0.66-0.96,1.63c0.06,0.36-0.03,0.91,0.18,1.05c1.03,0.74,0.86,1.87,1.14,2.88c0.3,1.1,0.86,2.13,1.16,3.23
			c0.74,2.78,2.03,5.32,3.18,7.93c1.38,3.13,2.74,6.3,3.65,9.58c0.4,1.43,0.93,2.4,2.1,3.1c0.89,0.53,1.81,1.02,2.77,1.43
			c2.19,0.94,4.39,2.45,6.62,2.53c1.98,0.07,3.52,1,5.26,1.4c2.16,0.5,4.19,1.52,6.44,1.52c0.4,0,0.81-0.03,1.22-0.11
			c0.02,0,0.03,0,0.05,0c0.26,0,0.58,0.35,0.85,0.35c0.01,0,0.03,0,0.04,0c0.2-0.03,0.4-0.04,0.59-0.04c1.75,0,3.29,1.02,5.1,1.07
			c1.94,0.06,3.87,0.44,5.81,0.44c0.82,0,1.65-0.07,2.48-0.26c0.09-0.02,0.21-0.06,0.29-0.06c0.03,0,0.05,0.01,0.06,0.02
			c0.39,0.42,0.82,0.54,1.27,0.54c0.47,0,0.96-0.14,1.43-0.2c0.89-0.11,1.78-0.37,2.66-0.37c0.08,0,0.15,0,0.23,0.01
			c0.49,0.03,0.95,0.09,1.43,0.09c0.25,0,0.51-0.02,0.78-0.07c0.38-0.08,0.78-0.1,1.18-0.1c0.53,0,1.07,0.04,1.6,0.07
			c0.07,0,0.14,0.01,0.21,0.01c1.88,0,3.42-1.26,5.18-1.46c4.36-0.5,8.51-1.69,12.56-3.32c0.73-0.29,1.4-0.76,2.14-1.01
			c0.89-0.3,1.96-0.25,2.71-0.73c2.19-1.42,4.91-1.73,6.93-3.56c0.87-0.79,2.48-0.78,3.34-1.58c0.92-0.86,2.45-0.87,2.9-2.57
			c0.25-0.93,2.07-1.05,2.88-2.25c0.87-1.28,2.37-2.12,3.56-3.19c0.86-0.78,1.69-1.59,2.47-2.44c0.57-0.63,0.9-1.73,1.57-1.97
			c2.88-1.04,2.51-3.13,2.01-5.35c-0.08-0.36-0.27-0.81-0.13-1.07c1.2-2.21-0.52-4.42,0.07-6.61c0.66-2.44-0.46-4.74-0.58-7.12
			c-0.12-2.46,0.33-4.93-0.18-7.37C312.9,325.85,311.79,324.63,311.64,323.15L311.64,323.15z"/>
	</g>
	<path d="M268.4,277.98c-0.07-1.81-0.25-2.88-0.12-3.92c0.37-3.03,5.28-4.93,8.01-3.2c3.48,2.21,6.21,5.15,7.38,9.28
		c0.17,0.59,0.71,1.14,0.69,1.7c-0.03,1.11-0.23,2.24-0.53,3.32c-0.33,1.19-0.71,2.41-1.33,3.46c-0.87,1.48-4.55,1.96-6.06,1.09
		c-2.64-1.51-4.03-4.15-5.5-6.52C269.85,281.45,267.95,279.75,268.4,277.98z M279.52,282.34c-0.18-3.82-2.95-5.69-5.71-7.52
		c-0.37-0.25-1.33-0.15-1.62,0.16c-0.29,0.31-0.35,1.31-0.07,1.63c2.29,2.66,3.58,5.96,5.63,8.77c0.47,0.64,0.9,0.47,1.43-0.01
		C280.22,284.43,279.57,283.36,279.52,282.34z"/>
	<path d="M254.94,286.79c0.23-2.72,0.41-5.61,3.39-7.26c0.59-0.33,1.24-0.64,1.9-0.75c0.85-0.15,2.86,1.13,2.75,1.78
		c-0.1,0.6-0.67,1.14-1.1,1.64c-0.37,0.43-0.88,0.75-1.26,1.17c-2.06,2.35-0.41,4.39,0.57,6.47c0.38,0.81,1.05,1.54,1.25,2.39
		c0.47,2.03,2.4,2.25,3.7,3.23c0.19,0.15,0.79-0.18,1.17-0.37c0.19-0.1,0.27-0.4,0.45-0.56c1.15-1.05,2.63-1.2,3.46-0.37
		c0.94,0.94,0.69,2.03-0.5,3.35c-0.95,1.05-1.75,2.21-3.3,2.38c-2.5,0.27-4.53-0.46-6.44-2.24c-1.91-1.77-3.09-3.95-4.32-6.1
		C255.87,290.18,255.55,288.54,254.94,286.79z"/>
	<path d="M292.85,261.76c0.25,0.85,0.09,1.36-0.93,1.48c-0.38,0.05-0.78,0.48-1.05,0.83c-0.54,0.68-1.98,0.66-1.8,1.73
		c0.15,0.95,0.78,1.88,1.39,2.67c0.67,0.87,1.67,0.93,2.5,0.2c1.02-0.89,1.96-0.98,3.23-0.44c1.54,0.66,2.05,1.66,0.91,2.66
		c-0.75,0.65-1.69,1.15-2.63,1.49c-1.74,0.64-2.04,1.3-0.58,2.5c1.01,0.83,0.96,1.81,1.25,2.82c0.39,1.35-0.17,2.3-1,3.24
		c-0.48,0.55-0.95,0.71-1.49,0.2c-0.67-0.62-1.79-0.84-1.77-2.09c0.02-2.32-1.72-3.96-2.45-6.02c-0.5-1.42-1.73-2.57-2.06-4.28
		c-0.21-1.12-1.52-1.84-2.76-2.18c-0.4-0.11-1.08-0.19-1.14-0.41c-0.13-0.52-0.16-1.25,0.12-1.66c0.51-0.74,1.03-1.41,2-1.89
		c1.71-0.85,3.38-1.77,5.14-2.55C291.21,259.42,292.7,260.2,292.85,261.76z"/>
	<path d="M303.35,258.21c0.51,1.59,1.02,3.34,1.66,5.03c0.27,0.72,1.98,1.2,2.52,0.57c1.05-1.23,2.41-0.79,3.58-1.16
		c0.17,0.25,0.38,0.43,0.41,0.63c0.27,2.13,0.01,2.56-1.95,3.29c-2.88,1.06-2.88,1.06-1.54,4.15c0.14,0.32,0.21,0.67,0.28,1.01
		c0.21,1.02-0.69,3.01-1.51,3.36c-0.59,0.25-2.7-1.01-2.62-1.94c0.12-1.38-1.6-1.95-1.06-3.52c0.22-0.66-0.9-1.76-1.38-2.68
		c-0.11-0.2-0.19-0.55-0.1-0.71c1.25-1.96-1.1-3.35-0.87-5.21c0.05-0.41-0.65-1.46-1.62-1.9c-2.03-0.93-2.28-2.29-0.4-3.11
		c2.28-0.99,4.19-2.88,6.9-2.98c1.1-0.04,1.91,0.16,2.34,1.11c0.46,1.02,0,1.91-0.93,2.41
		C305.97,257.15,304.79,257.58,303.35,258.21z"/>
	<path d="M301.9,245.63c-0.91-0.14-2.32-0.78-2.83-0.35c-0.84,0.72-1.67,0.88-2.58,0.96c-2.19,0.18-4.15,0.7-5.5,2.64
		c-0.37,0.53-2.12,0.76-3.15,0.87c-0.65,0.07-1.27,0.45-1.88,0.75c-0.19,0.1-0.27,0.41-0.45,0.56c-0.83,0.72-2.72,1.08-2.87,0.53
		c-0.26-0.99-0.77-2.05,0.21-3.03c0.89-0.9,1.28-2.43,2.98-2.26c0.83-1.56,2.86-0.66,3.94-1.98c0.83-1.01,2.15-1.61,3.25-2.39
		c0.18-0.13,0.47-0.43,0.52-0.4c2.48,1.87,4.65-1.63,7.21-0.39c0.74,0.36,2.02-0.36,3.04-0.65c0.66-0.18,1.28-0.5,1.93-0.7
		c0.76-0.24,1.05,0.13,1.16,0.88c0.06,0.42,0.33,0.87,0.63,1.17c1,1.01-0.04,1.83-0.53,2.05
		C305.41,244.62,303.71,245.04,301.9,245.63z"/>
	<path d="M152.7,180.64c0.73,0.26,1.48,0.49,2.19,0.79c2.65,1.12,5.3,1.83,8.28,1.8c3.38-0.04,6.77,0.75,10.16,1.04
		c1.83,0.15,3.63,0.76,5.5,0.34c0.82-0.18,1.54,0.05,2.36,0.3c1.39,0.41,2.98,0.15,4.48,0.21c1.14,0.05,2.28,0.17,3.42,0.24
		c1.03,0.07,2.1-0.78,3.11,0.16c0.13,0.12,0.45,0.05,0.68,0.04c3.31-0.22,6.62-0.47,9.94-0.66c1.14-0.06,2.35-0.84,3.43,0.21
		c0.97-1.29,2.26,0.15,3.39-0.4c0.87-0.42,1.91,0.12,2.9-0.02c1.16-0.17,2.81,0.32,3.43-0.3c1.09-1.09,2.68,0.64,3.53-1.07
		c0.31-0.63,1.68,1.21,2.72-0.26c0.45-0.64,1.96-0.82,2.92,0.07c2.73-1.87,5.99-1.3,9-1.91c3.1-0.63,6.27-0.88,9.39-1.41
		c0.87-0.15,1.64-0.87,2.51-1.01c0.74-0.12,1.55,0.25,2.33,0.34c0.35,0.04,0.85,0.05,1.06-0.16c1.44-1.4,3.33-1.25,5.05-1.38
		c2.18-0.16,4.03-1.21,5.98-1.93c0.73-0.27,1.48-0.6,2.26-0.76c0.83-0.18,1.7-0.19,2.53-0.39c0.59-0.14,1.42-0.83,1.66-0.65
		c1.09,0.84,1.09-1.08,2.08-0.66c0.57,0.25,1.45-0.05,2.14-0.27c0.75-0.24,1.43-0.67,2.14-1.02c0.61-0.3,1.19-0.67,1.82-0.89
		c1.64-0.57,3.35-0.82,5.01-1.43c3.75-1.38,7.44-2.93,10.96-4.74c2.04-1.05,4.22-1.63,6.24-2.7c2.6-1.37,5.09-2.9,7.6-4.4
		c0.71-0.42,1.31-0.84,2.15-1.03c1.06-0.24,1.01,0.59,1.48,1.02c0.61,0.56,0.46,0.8,0.09,1.35c-1.46,2.18-3.3,3.89-5.73,4.92
		c-2.08,0.88-3.66,2.8-6.03,3.06c-2.25,0.24-3.75,2.35-6.07,2.35c-2.78,2.31-6.41,2.85-9.45,4.58c-0.65,0.37-1.25,0.6-1.92,0.72
		c-1.96,0.33-4.06,0.25-5.46,2.07c-0.12,0.16-0.41,0.28-0.61,0.27c-2.82-0.12-5.22,1.49-7.91,1.92c-1.83,0.29-3.89,0.55-5.33,1.56
		c-2.25,1.59-5.21,0.45-7.25,2.37c-0.23,0.22-0.89,0.02-1.35-0.04c-0.44-0.05-1.15-0.37-1.25-0.22c-0.95,1.33-2.41,0.95-3.65,1.15
		c-4.09,0.65-8.2,1.16-12.3,1.79c-1.28,0.19-2.52,0.65-3.8,0.84c-1.05,0.16-2.15-0.01-3.2,0.16c-1.01,0.16-2.18-0.13-2.94,1.04
		c-0.18,0.28-1.24,0.32-1.64,0.06c-1.23-0.78-2.45-0.26-3.49,0.08c-3.44,1.13-3.4,1.22-7.38,0.99c-0.36-0.02-0.73,0.05-1.08,0.15
		c-3.98,1.09-8.09,0.64-12.12,0.83c-3.27,0.16-6.67,0.52-9.97-0.37c-0.76-0.2-1.82-0.25-2.41,0.13c-0.81,0.53-1.45-1.37-2.11,0.03
		c-0.07,0.16-0.8,0.05-1.22-0.01c-1.7-0.24-3.37-0.9-5.13-0.39c-0.72,0.21-1.35-0.22-1.99-0.34c-2.24-0.4-4.54-0.42-6.82-0.62
		c-2.27-0.2-4.54-0.42-6.8-0.68c-0.32-0.04-0.66-0.47-0.93-0.41c-3.94,0.79-6.7-1.55-9.53-3.61c-0.49-0.35-0.92-1.23-0.83-1.77
		C150.97,181.34,151.93,181.09,152.7,180.64z"/>
	<path d="M162.83,152.02c-0.14-1.8,0.67-2.35,2.55-2.22c4.34,0.28,8.6,1.81,13.02,0.87c2.5,0.73,4.93-0.08,7.4-0.28
		c0.76-0.06,1.55,0.28,2.33,0.37c1.14,0.12,2.28,0.28,3.42,0.24c1.21-0.05,2.41-0.37,3.62-0.47c1.5-0.12,2.94,0.59,4.52,0.14
		c1.44-0.41,2.98-0.14,4.49-0.07c3.41,0.15,6.86-0.31,10.28-0.62c1.94-0.17,3.96-1.03,5.76-0.66c1.66,0.34,3.13-1.86,4.64-0.08
		c1.77-1.74,3.86-1.07,5.92-0.85c0.68,0.07,1.66,0,2.05-0.42c0.75-0.8,1.27-0.97,2.08-0.22c0.12,0.11,0.57,0.09,0.67-0.03
		c1.37-1.59,3.37-0.93,5.04-1.43c0.79-0.24,2.03-0.14,2.31-0.63c0.59-1.02,1.16,0.47,1.63-0.24c0.63-0.96,1.26,0.49,2.11,0.05
		c1.77-0.92,3.68-1.54,5.72-1.6c1.93-0.06,3.53-1,5.12-1.94c0.29-0.17,0.62-0.3,0.94-0.39c1.91-0.53,3.81-1.15,5.75-1.51
		c0.87-0.16,1.75,0.25,2.68-0.38c0.82-0.56,2.22,0.12,2.86-1.11c2.98-0.2,5.57-1.87,8.58-2.14c1.53-0.13,1.28,1.13,1.97,1.61
		c0.78,0.54-0.05,1.33-0.52,1.76c-0.57,0.52-1.29,1.07-2.01,1.19c-2.43,0.41-4.62,1.37-6.78,2.48c-1.04-0.97-1.78,0.25-2.65,0.42
		c-0.87,0.17-1.66,0.72-2.5,1.04c-1.2,0.46-2.47,0.09-3.77,0.38c-1.85,0.41-3.64,1.07-5.29,1.78c-1.56,0.68-3.09,1.06-4.71,1.27
		c-4.87,0.62-9.47,2.51-14.41,2.87c-1.1,0.08-2.09,1.15-3.41,0.45c-0.25-0.13-0.81,0.31-1.23,0.49c-0.41,0.18-0.87,0.6-1.23,0.52
		c-3.36-0.71-6.27,1.52-9.53,1.39c-1.14-0.05-2.29,0.82-3.46-0.2c-0.3-0.26-1.4-0.1-1.72,0.24c-1.09,1.21-2.5,0.91-3.34,0.27
		c-1.14-0.87-1.52,1.13-2.32,0.31c-0.76-0.78-1.59-0.27-2.39-0.21c-3.79,0.27-7.58,0.61-11.37,0.84c-0.89,0.05-1.79-0.24-2.69-0.32
		c-0.71-0.07-1.79-0.39-2.08-0.05c-0.91,1.03-1.48-0.1-2.18-0.08c-2.71,0.09-5.41,0.37-8.12,0.36c-2.48,0-4.93-0.14-7.41,0.27
		c-0.78,0.13-1.76-0.92-2.53-0.78c-2.39,0.45-4.5-0.87-6.8-0.81c-0.54,0.01-1.12-0.46-1.62-0.38
		C162.89,153.74,162.94,152.85,162.83,152.02z"/>
	<path d="M190,203.2c-1-0.18-2.03-0.59-3.01-0.48c-1.99,0.21-3.96-0.72-5.97,0.02c-0.45,0.17-1.1-0.16-1.64-0.3
		c-1.35-0.37-2.72-0.33-4.09-0.41c-2.84-0.18-5.68,0.06-8.54-0.54c-2.52-0.53-5.14-0.68-7.63-1.5c-0.64-0.21-1.33-0.34-1.91-0.66
		c-0.81-0.45-1.37-1.21-2.57-0.98c-1.14,0.22-0.8-1.34-1.54-1.76c0.67-0.51,0.07-1.98,1.57-1.91c1.03,0.05,2.1-0.52,3.07,0.32
		c0.14,0.12,0.45,0.02,0.66,0.09c1.6,0.54,3.17,1.24,4.81,1.62c1.54,0.36,3.15,0.39,4.74,0.54c1.36,0.13,2.97-0.19,4.04,0.42
		c1.46,0.84,2.79-0.6,4.14,0.33c1.19,0.83,2.78-0.83,4.08,0.43c0.21,0.21,0.94-0.05,1.41-0.17c1.52-0.39,3.07-0.43,4.49,0.15
		c1.43,0.58,2.77,0.16,4.16,0.15c1.53-0.02,2.87,1.67,2.43,2.98C192.28,202.74,191.14,202.89,190,203.2z"/>
	<path d="M281.1,124.15c0.71-0.71,1.91,1.03,2.88-0.15c0.04-0.05,1.1,0.68,1.64,1.09c1.54,1.16,1.79,2.19,0.4,3.7
		c-1.6,1.74-3.46,3.28-5.94,3.75c-1.01,0.19-2.1-0.02-2.87,1.1c-0.71,1.02-2.09-1-2.93,0.38c-0.94-0.74-2.01-1.37-2.78-2.27
		c-0.39-0.45-0.51-1.53-0.24-2.07c0.79-1.58,1.98-3.04,3.58-3.74C276.74,125.13,278.84,124.78,281.1,124.15z"/>
	<path class="st0" d="M279.52,282.34c0.06,1.02,0.71,2.09-0.34,3.03c-0.53,0.48-0.96,0.65-1.43,0.01c-2.05-2.81-3.34-6.11-5.63-8.77
		c-0.28-0.32-0.22-1.31,0.07-1.63c0.29-0.31,1.25-0.41,1.62-0.16C276.57,276.65,279.34,278.52,279.52,282.34z"/>
</g>
</svg>
