<?xml version="1.0" encoding="utf-8"?>
<!-- Generator: Adobe Illustrator 27.5.0, SVG Export Plug-In . SVG Version: 6.00 Build 0)  -->
<svg version="1.1" id="Outline" xmlns="http://www.w3.org/2000/svg" xmlns:xlink="http://www.w3.org/1999/xlink" x="0px" y="0px"
	 viewBox="0 0 512 512" style="enable-background:new 0 0 512 512;" xml:space="preserve">
<path d="M229.19,212.3c2.1,1.75,4.28,3.57,4.28,5.24c0,2.28-0.86,2.95-4.14,5.13c-0.74,0.5-0.95,1.5-0.45,2.25
	c0.5,0.74,1.5,0.95,2.25,0.45l0,0c3.36-2.24,5.58-3.72,5.58-7.83c0-3.19-2.77-5.5-5.45-7.73c-2.1-1.75-4.28-3.57-4.28-5.24
	c0-2.28,0.86-2.95,4.14-5.14c0.74-0.5,0.94-1.51,0.44-2.25c-0.5-0.74-1.49-0.94-2.24-0.45c-3.36,2.24-5.58,3.72-5.58,7.83
	C223.75,207.76,226.51,210.07,229.19,212.3z"/>
<path d="M247.02,205.82c2.1,1.75,4.28,3.57,4.28,5.24c0,2.28-0.86,2.95-4.14,5.13c-0.74,0.5-0.95,1.5-0.45,2.25
	c0.5,0.74,1.5,0.95,2.25,0.45l0,0c3.36-2.24,5.58-3.72,5.58-7.83c0-3.19-2.77-5.5-5.45-7.73c-2.1-1.75-4.28-3.57-4.28-5.24
	c0-1.57,1.27-2.4,3.69-3.85c0.67-0.4,1.36-0.81,2.07-1.28c0.74-0.5,0.94-1.51,0.44-2.25c-0.5-0.74-1.49-0.94-2.24-0.45
	c-0.64,0.43-1.3,0.82-1.93,1.2c-2.59,1.55-5.27,3.15-5.27,6.63C241.58,201.28,244.34,203.59,247.02,205.82z"/>
<path d="M266.47,212.3c2.1,1.75,4.28,3.57,4.28,5.24c0,2.28-0.86,2.95-4.14,5.13c-0.74,0.5-0.95,1.5-0.45,2.25
	c0.5,0.74,1.5,0.95,2.25,0.45c3.36-2.24,5.58-3.72,5.58-7.83c0-3.19-2.77-5.5-5.45-7.73c-2.1-1.75-4.28-3.57-4.28-5.24
	c0-2.28,0.86-2.95,4.14-5.14c0.74-0.5,0.94-1.51,0.44-2.25c-0.5-0.74-1.49-0.94-2.24-0.45c-3.36,2.24-5.58,3.72-5.58,7.83
	C261.03,207.76,263.79,210.07,266.47,212.3z"/>
<path d="M306.41,277.51h-34.78c2.47-1.88,4.71-4.06,6.65-6.48h8.68c11.63-0.01,21.06-9.44,21.07-21.07
	c-0.01-9.84-7.99-17.82-17.83-17.83h-71.32c-0.9,0-1.62,0.73-1.62,1.62v6.48c0,8.78,2.11,17.26,6.1,24.5
	c2.86,5.2,6.56,9.54,10.86,12.78h-18.58c-0.9,0-1.62,0.73-1.62,1.62c0.01,4.47,3.63,8.1,8.1,8.1h77.8c4.47-0.01,8.1-3.63,8.1-8.1
	C308.03,278.24,307.31,277.51,306.41,277.51z M288.58,235.37h1.62c8.05,0.01,14.58,6.54,14.59,14.59
	c-0.01,9.84-7.99,17.82-17.83,17.83h-6.31c0.69-1.04,1.34-2.12,1.94-3.24h4.95c7.73-0.01,13.99-6.27,14-14
	c-0.01-6.59-5.35-11.93-11.94-11.94h-1.03V235.37z M288.56,241.85h1.06c4.8,0.01,8.69,3.89,8.69,8.69
	c-0.01,5.94-4.82,10.75-10.76,10.76h-3.35C286.9,255.17,288.38,248.56,288.56,241.85z M226.2,263.17c-3.73-6.77-5.7-14.7-5.7-22.94
	v-4.86h64.84v4.86c0,8.21-1.96,16.11-5.65,22.86c-3.51,6.41-8.37,11.39-14.05,14.42h-25.43
	C234.55,274.49,229.71,269.54,226.2,263.17z M299.93,284h-77.8c-2.06,0-3.9-1.3-4.58-3.24h86.97C303.82,282.7,301.99,284,299.93,284
	z"/>
</svg>
